<svg width="36" height="60" viewBox="0 0 36 60" fill="none" xmlns="http://www.w3.org/2000/svg">
<path d="M2 31.5L24.5 3.5V56.5L2 31.5Z" stroke="#3D60E0"/>
<path d="M23.1943 7.53918C23.1815 7.6416 23.063 7.82608 22.9981 7.90953C22.939 7.98546 22.8757 8.24854 22.8208 8.27988C22.6508 8.377 22.6055 8.85925 22.4663 9.03323C22.3764 9.14564 22.3835 9.31594 22.2542 9.4194C22.2297 9.439 22.0862 9.68104 22.0548 9.73593C22.0115 9.81179 21.8955 10.016 21.8269 10.0588C21.6895 10.1447 21.6977 10.3339 21.599 10.445C21.5174 10.5367 21.3459 10.7754 21.3173 10.8755C21.2743 11.026 21.109 11.1283 21.0292 11.268C20.8652 11.5551 20.5201 11.7518 20.2885 11.9833C20.1221 12.1498 19.8044 12.6548 19.5732 12.7209C19.429 12.762 18.9549 13.1896 18.9179 13.3191C18.8911 13.413 18.6863 13.5533 18.6236 13.623C18.5253 13.7321 18.4547 13.8199 18.364 13.9332C18.2742 14.0455 18.2195 14.229 18.1203 14.3447C18.0845 14.3864 17.996 14.5074 17.9525 14.5346C17.8729 14.5844 17.9325 14.679 17.8639 14.7182C17.6012 14.8683 17.3273 15.3364 17.1549 15.5855C17.0514 15.7349 16.9689 15.9297 16.8415 16.0571C16.6783 16.2203 16.4111 16.436 16.3002 16.6301C16.1649 16.8668 15.9368 17.2099 15.7304 17.3518C15.6681 17.3946 15.4599 17.6167 15.4487 17.6556C15.3959 17.8405 15.1895 17.9043 15.1037 18.0545C14.9166 18.3819 14.6724 18.6238 14.4327 18.8901C14.316 19.0197 14.2481 19.195 14.1224 19.3206C14.0245 19.4186 13.9699 19.6055 13.8502 19.6878C13.6372 19.8342 13.5712 20.2967 13.3628 20.4158C13.2608 20.4741 13.2073 20.7454 13.1095 20.7577C13.0593 20.7639 12.9012 21.0416 12.869 21.0995C12.5275 21.7142 12.0025 22.293 11.5269 22.8215C11.3255 23.0452 11.0967 23.3594 10.859 23.5495C10.6494 23.7171 10.3168 24.0528 10.1911 24.2902C10.0374 24.5805 9.66587 24.7456 9.49155 25.0594C9.31293 25.3809 9.0888 25.7359 8.86165 26.028C8.67377 26.2695 8.60184 26.6011 8.39318 26.8098C8.20576 26.9972 8.03721 27.2975 7.86773 27.5093C7.43466 28.0507 6.94818 28.4117 6.50347 28.9306C6.27348 29.1989 5.95666 29.3904 5.71529 29.6586C5.4828 29.9169 5.27862 30.2929 5.05057 30.5861C4.85633 30.8358 4.74562 31.0118 4.55045 31.2286C4.38955 31.4074 3.99335 31.4921 3.99335 31.7541" stroke="#3D60E0" stroke-width="3" stroke-linecap="round"/>
<path d="M21.3141 9.87524C21.2896 10.0717 21.008 10.3166 20.9153 10.502" stroke="#3D60E0" stroke-width="3" stroke-linecap="round"/>
<path d="M20.0037 10.9008C20.0037 11.0507 19.8394 11.1722 19.7758 11.2996" stroke="#3D60E0" stroke-width="3" stroke-linecap="round"/>
<path d="M9.44887 26.0806C9.33592 26.1404 9.23635 26.2856 9.16078 26.389C9.07133 26.5114 8.91261 26.6381 8.79411 26.7295C8.68815 26.8112 8.58872 26.8761 8.46818 26.9332C8.28728 27.0189 8.02115 26.969 7.82506 26.9914C7.56741 27.0209 7.1813 26.9245 6.99278 27.1602C6.97455 27.183 6.96077 27.3539 6.96077 27.3901C6.96077 27.4724 6.90839 27.522 6.90839 27.5996" stroke="#3D60E0" stroke-width="3" stroke-linecap="round"/>
<path d="M5.46791 32.4187C5.40982 32.484 5.44172 32.648 5.44172 32.7272C5.44172 32.8226 5.41563 32.9609 5.44754 33.0531C5.5056 33.2208 5.64506 33.4255 5.78219 33.5333C5.94049 33.6576 6.01551 33.8415 6.1896 33.9523C6.42057 34.0993 6.58386 34.3648 6.80363 34.5343C6.96677 34.6602 7.12673 34.81 7.30125 34.9126C7.37888 34.9583 7.49753 35.0933 7.54278 35.1687C7.61814 35.2943 7.75811 35.419 7.86289 35.5237C8.29649 35.9573 8.67785 36.397 9.01528 36.9031C9.18673 37.1603 9.38962 37.3618 9.60602 37.5782C9.8445 37.8167 10.0669 38.1351 10.2477 38.4163C10.5495 38.8859 10.8956 39.322 11.2036 39.7841C11.502 40.2316 11.9368 40.5449 12.2891 40.9292C12.4264 41.0789 12.5849 41.2731 12.7358 41.3904C12.9018 41.5196 13.0371 41.7557 13.2203 41.8473" stroke="#3D60E0" stroke-width="3" stroke-linecap="round"/>
<path d="M13.9799 42.6068C14.0744 42.7118 14.1387 42.8983 14.2025 43.0259C14.2667 43.1543 14.3859 43.2509 14.4717 43.3663C14.5849 43.5188 14.7765 43.6222 14.8965 43.7723C15.0719 43.9914 15.2832 44.1813 15.5047 44.3616C15.7088 44.5277 15.8541 44.7331 16.0751 44.8752C16.1625 44.9314 16.2619 45.0606 16.337 45.1357C16.4526 45.2512 16.5683 45.3948 16.6571 45.5343C16.8085 45.7721 17.0595 45.9742 17.1751 46.2342C17.2846 46.4805 17.5703 46.6466 17.7193 46.8701C17.8428 47.0552 18.0828 47.2451 18.2504 47.388C18.3671 47.4876 18.538 47.6086 18.6301 47.7271C18.7027 47.8203 18.8189 47.8911 18.9037 47.9759C19.0375 48.1096 19.1692 48.2533 19.2951 48.3949C19.388 48.4995 19.4828 48.6235 19.5585 48.7412C19.6847 48.9376 19.8446 49.1106 19.9717 49.3058C20.0465 49.4206 20.1471 49.5246 20.2263 49.639C20.2884 49.7286 20.3326 49.85 20.4096 49.9271C20.4996 50.0171 20.5702 50.1925 20.6323 50.3068C20.6782 50.3915 20.7787 50.4704 20.7894 50.5629C20.8047 50.6959 20.9425 50.8726 21.0004 50.998C21.0682 51.1449 21.1684 51.2879 21.2623 51.4229C21.4389 51.6767 21.693 51.8867 21.9302 52.082C22.0036 52.1425 22.0285 52.2533 22.1048 52.3119C22.2421 52.4176 22.3322 52.5597 22.4511 52.6785C22.4985 52.726 22.5597 52.7204 22.6228 52.7484C22.6928 52.7795 22.7279 52.8735 22.8061 52.8735" stroke="#3D60E0" stroke-width="3" stroke-linecap="round"/>
<path d="M23.4084 52.8474C23.4084 52.5898 23.1727 52.3348 23.1727 52.0747C23.1727 51.9159 23.0942 51.7616 23.0942 51.6033C23.0942 51.4545 23.068 51.3193 23.068 51.1712C23.068 50.338 22.9643 49.5117 23.0738 48.6772C23.1208 48.3184 23.1203 47.9699 23.1203 47.6078C23.1203 47.3371 23.1203 47.0665 23.1203 46.7959C23.1203 46.6242 23.0942 46.4529 23.0942 46.2793C23.0942 46.2102 23.109 46.0236 23.0621 45.965C23.0266 45.9207 23.0418 45.8433 23.0418 45.7861C23.0418 45.6462 22.9894 45.5188 22.9894 45.383C22.9894 45.2157 22.937 45.038 22.937 44.8694C22.937 44.412 22.937 43.9547 22.937 43.4973" stroke="#3D60E0" stroke-width="3" stroke-linecap="round"/>
<path d="M23.068 43.2616C23.0117 43.128 23.034 42.959 23.0098 42.8163C22.9817 42.6512 22.9401 42.4883 22.937 42.3187C22.9312 41.9988 22.8847 41.6839 22.8847 41.3628C22.8847 40.8377 22.8061 40.3037 22.8061 39.7782C22.8061 39.4554 22.8122 39.1319 22.8061 38.8092C22.7998 38.4756 22.7013 38.1629 22.7013 37.8285C22.7013 37.0911 22.5966 36.3492 22.5966 35.6139C22.5966 34.4937 22.6027 33.363 22.7479 32.2557C22.7851 31.972 22.6901 31.6471 22.7668 31.371C22.8036 31.2385 22.7728 31.0883 22.7813 30.952C22.7906 30.8039 22.8061 30.6619 22.8061 30.5126C22.8061 30.0446 22.9108 29.5865 22.9108 29.1187" stroke="#3D60E0" stroke-width="3" stroke-linecap="round"/>
<path d="M22.9894 28.3854C22.9422 28.3264 22.937 28.0997 22.937 28.0187C22.937 27.8469 22.9155 27.6782 22.9108 27.5094C22.9078 27.4 22.9108 27.2901 22.9108 27.1806C22.9108 27.0045 22.8585 26.8392 22.8585 26.6626C22.8585 25.4404 22.6686 24.2242 22.6242 23.0032C22.6115 22.6553 22.6227 22.3052 22.6227 21.957C22.6227 21.7354 22.6751 21.5229 22.6751 21.3037C22.6751 21.1367 22.7275 20.9685 22.7275 20.8032C22.7275 20.6057 22.8061 20.4126 22.8061 20.2168C22.8061 20.0458 22.8443 19.8613 22.8599 19.6901C22.878 19.491 22.8903 19.2859 22.9123 19.0877C22.9568 18.6873 22.937 18.2762 22.937 17.8713C22.937 16.2269 22.9894 14.5908 22.9894 12.9475C22.9894 11.9387 22.8846 10.9801 22.8846 9.97339" stroke="#3D60E0" stroke-width="3" stroke-linecap="round"/>
<path d="M21.9156 13.1425C21.7799 13.1425 21.6656 13.2615 21.5751 13.352C21.4105 13.5166 21.3326 13.7316 21.1823 13.9034C20.7439 14.4044 20.2776 14.8745 19.7811 15.3279C19.6266 15.4689 19.3751 15.6056 19.3751 15.827C19.3751 15.9391 19.5172 15.9796 19.6021 16.0118C19.9152 16.1305 20.2185 16.156 20.5508 16.1806C20.7665 16.1965 20.9775 16.2068 21.1939 16.2068C21.2735 16.2068 21.2909 16.2699 21.3249 16.3377C21.4991 16.6862 20.8487 17.0403 20.6177 17.1336C20.2892 17.2664 19.8428 17.202 19.4973 17.202C19.0114 17.202 18.5254 17.202 18.0394 17.202C17.7659 17.202 17.3681 17.1644 17.1286 17.3329C17.006 17.4192 17.0815 17.6552 17.1547 17.7404C17.4158 18.0442 18.0197 18.144 18.3886 18.2031C19.1244 18.321 19.8465 18.3869 20.5886 18.4475C20.6505 18.4526 21.3983 18.432 21.287 18.5843C21.2385 18.6507 21.0976 18.6851 21.0237 18.7065C20.8366 18.7607 20.6461 18.8082 20.4577 18.8578C19.0181 19.2371 17.4948 18.9735 16.0344 19.239C15.9989 19.2455 15.4457 19.3761 15.5629 19.4078C16.0793 19.5474 16.6377 19.5496 17.1664 19.6115C18.0911 19.7198 19.0252 19.7432 19.9484 19.8531C20.1934 19.8822 20.0319 20.0153 19.8989 20.0626C19.645 20.1528 19.3617 20.1527 19.0958 20.1746C18.667 20.21 18.2491 20.2698 17.8241 20.3332C16.7297 20.4965 15.5609 20.5094 14.5153 20.8949C14.291 20.9776 14.0492 21.0509 13.8344 21.1568C13.6868 21.2295 13.9195 21.2393 13.9813 21.2484C14.4407 21.3162 14.9139 21.3143 15.3767 21.3459C16.1619 21.3997 16.9478 21.4439 17.7338 21.4842C18.5231 21.5245 19.3117 21.5744 20.0997 21.634C20.5207 21.6659 20.9592 21.6839 21.3685 21.7955C21.4325 21.813 21.478 21.8633 21.3802 21.8843C21.1018 21.9439 20.8132 21.9687 20.5319 22.0094C19.2842 22.1901 18.0208 22.2901 16.7662 22.4125C16.3166 22.4563 14.9686 22.5711 15.4203 22.5711C16.6709 22.5711 17.9167 22.6009 19.1656 22.6744C19.4826 22.693 19.8042 22.6911 20.1172 22.7486C20.2357 22.7703 20.0858 22.7775 20.0415 22.7806C19.5973 22.8112 19.1537 22.8246 18.7087 22.8388C18.0084 22.8612 17.3133 22.9488 16.6164 23.0149C15.4464 23.1258 14.2022 23.1421 13.0879 23.5503C13.0502 23.5641 12.6031 23.7255 12.8769 23.6856C13.332 23.6194 13.7893 23.5828 14.249 23.5678C16.076 23.5082 17.8735 23.6338 19.6923 23.7991C19.9978 23.8269 20.3635 23.8124 20.6556 23.9272C20.6751 23.9348 20.6166 23.9437 20.5959 23.9475C20.4372 23.9768 20.2762 23.9953 20.1157 24.0115C19.3814 24.086 18.6392 24.0992 17.9026 24.1425C16.6308 24.2173 15.3604 24.294 14.0919 24.4146C13.5033 24.4706 12.9147 24.5259 12.324 24.5557C12.269 24.5585 12.1794 24.5729 12.1218 24.5601C12.044 24.5428 12.2762 24.5204 12.3546 24.5063C12.995 24.391 13.6449 24.369 14.2941 24.3578C15.3489 24.3397 16.4029 24.3575 17.4545 24.4451C18.5152 24.5335 19.5822 24.6907 20.6468 24.7187C21.0175 24.7284 19.9055 24.7378 19.5352 24.7565C18.1291 24.8275 16.7571 25.0248 15.3709 25.2629C15.2264 25.2877 15.0822 25.3139 14.9387 25.3444C14.8995 25.3527 14.8607 25.3638 14.8209 25.3691C14.8112 25.3704 14.8378 25.3591 14.8471 25.356C15.3286 25.1955 15.8571 25.1368 16.3574 25.0708C17.3421 24.9409 18.3405 24.9049 19.3329 24.9049C20.268 24.9049 21.2085 24.9082 22.1426 24.9544C22.3738 24.9658 23.0667 25.0068 22.8352 25.0068C22.5353 25.0068 22.2361 25.032 21.936 25.033C20.3671 25.0381 18.7959 25.0032 17.2275 25.0388C15.9877 25.067 14.7519 25.2658 13.5172 25.3735C13.3346 25.3894 13.1015 25.3811 12.9279 25.4506C12.7439 25.5242 13.3225 25.4151 13.5201 25.3996C14.6893 25.3085 15.8661 25.2917 17.0383 25.2949C17.3847 25.2958 17.7359 25.2978 18.0816 25.3225C18.2194 25.3324 18.015 25.3991 17.9899 25.4055C17.5283 25.523 17.0631 25.5525 16.5902 25.599C15.6842 25.688 14.782 25.8107 13.8751 25.8914C13.1875 25.9527 12.502 26.0145 11.8119 26.0297C11.7988 26.03 11.4532 26.0544 11.6285 26.0544C12.2471 26.0544 12.8581 25.9255 13.4793 25.9235C14.2155 25.921 14.9511 25.9497 15.6822 25.9497" stroke="#3D60E0" stroke-width="3" stroke-linecap="round"/>
<path d="M21.8632 26.84C21.6292 26.84 21.3987 26.8924 21.1633 26.8924C20.6387 26.8924 20.1211 26.8581 19.5977 26.8415C18.4434 26.8049 17.2824 26.84 16.1275 26.84C15.7488 26.84 15.368 26.8287 14.9896 26.8459C14.5668 26.8651 14.1621 26.9619 13.7499 27.0496C13.1473 27.1777 12.577 27.2255 11.9632 27.2329C11.376 27.24 10.7628 27.4004 10.1938 27.5414C9.76466 27.6477 9.28414 27.6788 8.87268 27.8353C8.41996 28.0075 7.89605 28.2811 7.61408 28.6865C7.50178 28.8479 7.32979 29.0415 7.29979 29.2365C7.26263 29.478 7.46234 29.4649 7.67228 29.4998C8.35504 29.6136 9.06177 29.5639 9.75152 29.5639C10.1259 29.5639 10.4888 29.5637 10.8573 29.4911C11.0979 29.4437 11.3365 29.3859 11.5761 29.334C12.0396 29.2336 12.5571 29.175 13.0312 29.171C13.5066 29.167 13.9674 29.0724 14.4396 29.0255C15.173 28.9526 15.9291 28.9339 16.6658 28.9091C17.5696 28.8787 18.4658 28.8305 19.3707 28.8305C20.1015 28.8305 20.8562 28.7991 21.546 29.0793C21.8944 29.2209 21.833 29.713 21.6479 29.9625C21.1785 30.5952 20.3927 30.9661 19.637 31.0829C19.0483 31.1739 18.4018 31.1172 17.808 31.1077C16.6918 31.0898 15.5777 30.9586 14.4644 30.8865C13.1415 30.8008 11.8312 30.7376 10.5038 30.7832C9.85522 30.8054 9.20872 30.8779 8.55985 30.8981C7.72023 30.9244 6.74001 30.9067 5.97134 31.291C5.86698 31.3432 5.77764 31.3867 5.82439 31.5165C5.95532 31.8802 6.26729 32.2389 6.63484 32.3633C7.12149 32.5281 7.64224 32.5647 8.14516 32.6544C8.65642 32.7455 9.16681 32.7329 9.68459 32.7329C10.9361 32.7329 12.1778 32.8628 13.4269 32.9104C14.8519 32.9648 16.2691 33.0164 17.6931 32.9425C18.3664 32.9075 19.0383 32.9126 19.7112 32.8886C19.9894 32.8787 20.2625 32.8548 20.542 32.8653C20.8507 32.877 21.1416 32.9612 21.4442 32.9948C21.534 33.0048 21.4349 33.3412 21.4121 33.3877C21.2682 33.6812 21.0386 33.8768 20.836 34.1268C20.543 34.4885 20.1872 34.768 19.7301 34.8602C19.1404 34.9791 18.5328 34.8807 17.9434 34.8165C16.9028 34.7032 15.8852 34.4894 14.8529 34.3218C13.4031 34.0865 11.9214 34.1237 10.4601 34.1996C10.3175 34.207 8.93257 34.2961 9.12003 34.671C9.2808 34.9926 9.59217 35.2533 9.8621 35.4771C10.2675 35.8132 10.7496 35.9309 11.2618 36.0068C12.4122 36.1772 13.5862 36.1639 14.7481 36.1639C16.5349 36.1639 18.2783 36.6952 20.0633 36.7415C20.4111 36.7506 20.7535 36.8326 21.0979 36.8448C21.2352 36.8498 21.2189 36.9518 21.2405 37.0544C21.3166 37.4162 20.8642 37.6817 20.6002 37.8401C19.9912 38.2055 19.2082 38.2361 18.5195 38.233C17.6274 38.2289 16.7552 38.0152 15.8656 37.9652C15.3402 37.9357 14.8276 37.844 14.2999 37.8401C13.8019 37.8364 13.3063 37.7877 12.8071 37.7877C12.6548 37.7877 12.5062 37.7919 12.356 37.8197C12.2921 37.8316 12.2383 37.8663 12.1727 37.8663" stroke="#3D60E0" stroke-width="3" stroke-linecap="round"/>
<path d="M13.5346 38.3115C13.5346 38.4947 13.5312 38.6783 13.5346 38.8615C13.5391 39.0987 13.6665 39.3287 13.6903 39.5672C13.7136 39.8001 13.9926 39.8308 14.1705 39.8975C14.4283 39.9942 14.7196 40.0334 14.9911 40.0779C15.3097 40.1302 15.6199 40.1526 15.9412 40.1187C16.5449 40.0549 17.1727 40.0138 17.76 39.8509C17.9244 39.8054 18.0683 39.7085 18.2286 39.6531C18.4114 39.5898 18.5973 39.5396 18.7873 39.5032C19.4159 39.3828 20.12 39.2617 20.7516 39.4261C20.9548 39.479 20.9966 39.5138 21.0775 39.6851C21.1864 39.9157 21.1823 40.1437 21.1823 40.3951C21.1823 40.6385 21.25 41.0049 21.1415 41.2318C20.9639 41.6031 20.3148 41.5571 19.9891 41.5592C19.3172 41.5633 18.6928 41.48 18.0307 41.3875C17.7619 41.3499 17.4475 41.3079 17.1751 41.3249C16.9941 41.3362 16.8087 41.4083 16.6353 41.4558C16.355 41.5326 16.0595 41.6062 15.7986 41.7367C15.517 41.8775 15.4415 42.1438 15.4072 42.438C15.3781 42.6883 15.4355 43.064 15.6459 43.2354C15.8209 43.378 16.0489 43.4041 16.2672 43.4172C16.9611 43.4589 17.6525 43.5012 18.3479 43.5176C18.9318 43.5314 19.5359 43.5616 20.1143 43.4652C20.4739 43.4053 20.8124 43.2996 21.1561 43.183C21.4302 43.0899 21.702 42.9996 21.9942 42.9996C22.2115 42.9996 22.3661 43.1078 22.3856 43.3416C22.3966 43.4736 22.4061 43.6329 22.3288 43.7461C22.2053 43.927 21.9879 44.1016 21.7992 44.2102C21.3725 44.4558 20.8212 44.4401 20.3442 44.4401C20.0561 44.4401 19.768 44.4401 19.4799 44.4401C19.2838 44.4401 19.0509 44.4049 18.8644 44.4809C18.5593 44.6052 18.4846 44.9076 18.4846 45.2142C18.4846 45.6703 18.78 45.7732 19.1831 45.7758C20.1782 45.7823 21.1898 45.7033 22.1717 45.8893C22.2833 45.9105 22.6118 45.9285 22.6693 46.0698C22.7079 46.1645 22.6403 46.2933 22.6097 46.3782C22.4609 46.7903 22.2431 47.4144 21.7585 47.5131C21.3906 47.5881 20.949 47.5738 20.5741 47.5568C20.3121 47.5449 20.0075 47.4276 20.0212 47.1232C20.0253 47.0313 20.0861 46.8459 20.2016 46.8249C20.3224 46.803 20.5138 46.9981 20.5959 47.0621C20.7847 47.2093 20.9608 47.3615 21.1299 47.5306" stroke="#3D60E0" stroke-width="3" stroke-linecap="round"/>
<path d="M23.6756 5.81907C23.6685 5.8897 23.5879 5.95283 23.5508 6.00847C23.5306 6.03871 23.4209 6.30932 23.412 6.30783C23.4059 6.30682 23.4763 6.16735 23.4792 6.1612C23.5363 6.03863 23.5769 5.90671 23.6206 5.77892C23.6789 5.60841 23.7201 5.43173 23.8292 5.28492C23.8719 5.22745 23.8165 5.47737 23.8082 5.50487C23.771 5.62902 23.6991 5.741 23.6634 5.8662C23.6469 5.92366 23.6093 5.88686 23.6136 5.84176C23.6192 5.78288 23.6585 5.74455 23.6756 5.69339" stroke="white" stroke-linecap="round"/>
<path d="M24.1155 5.25347C24.2156 5.26599 24.0317 5.5562 24.009 5.57989C23.9322 5.66002 23.8857 5.76772 23.8309 5.86355C23.6997 6.0932 23.5403 6.28948 23.3648 6.48759C23.3041 6.55616 23.2487 6.62918 23.1885 6.69794C23.187 6.6997 23.1522 6.73732 23.1693 6.70928C23.212 6.63945 23.2614 6.57482 23.302 6.5033C23.414 6.30589 23.5181 6.10341 23.6276 5.90457C23.7259 5.72607 23.8026 5.51689 23.8152 5.31194C23.816 5.29947 23.8393 5.13312 23.7855 5.1627C23.7149 5.20154 23.6554 5.31745 23.6057 5.37915C23.557 5.4397 23.5045 5.50601 23.4626 5.57116C23.4262 5.62785 23.4119 5.7041 23.3771 5.76405C23.2892 5.91546 23.22 6.11458 23.22 6.29034" stroke="#3D60E0" stroke-linecap="round"/>
<path d="M23.9102 55.167C23.8981 55.0467 23.8499 54.8962 23.8051 54.784C23.7576 54.6654 23.7287 54.4981 23.6475 54.3988C23.5683 54.302 23.4688 54.0947 23.4688 53.9691" stroke="#3D60E0" stroke-linecap="round"/>
<path d="M1 31.5849L25 2V58L1 31.5849Z" stroke="black"/>
<path d="M12 31.5L34.5 3.5V56.5L12 31.5Z" stroke="#3D60E0"/>
<path d="M33.1943 7.53918C33.1815 7.6416 33.063 7.82608 32.9981 7.90953C32.939 7.98546 32.8757 8.24854 32.8208 8.27988C32.6508 8.377 32.6055 8.85925 32.4663 9.03323C32.3764 9.14564 32.3835 9.31594 32.2542 9.4194C32.2297 9.439 32.0862 9.68104 32.0548 9.73593C32.0115 9.81179 31.8955 10.016 31.8269 10.0588C31.6895 10.1447 31.6977 10.3339 31.599 10.445C31.5174 10.5367 31.3459 10.7754 31.3173 10.8755C31.2743 11.026 31.109 11.1283 31.0292 11.268C30.8652 11.5551 30.5201 11.7518 30.2885 11.9833C30.1221 12.1498 29.8044 12.6548 29.5732 12.7209C29.429 12.762 28.9549 13.1896 28.9179 13.3191C28.8911 13.413 28.6863 13.5533 28.6236 13.623C28.5253 13.7321 28.4547 13.8199 28.364 13.9332C28.2742 14.0455 28.2195 14.229 28.1203 14.3447C28.0845 14.3864 27.996 14.5074 27.9525 14.5346C27.8729 14.5844 27.9325 14.679 27.8639 14.7182C27.6012 14.8683 27.3273 15.3364 27.1549 15.5855C27.0514 15.7349 26.9689 15.9297 26.8415 16.0571C26.6783 16.2203 26.4111 16.436 26.3002 16.6301C26.1649 16.8668 25.9368 17.2099 25.7304 17.3518C25.6681 17.3946 25.4599 17.6167 25.4487 17.6556C25.3959 17.8405 25.1895 17.9043 25.1037 18.0545C24.9166 18.3819 24.6724 18.6238 24.4327 18.8901C24.316 19.0197 24.2481 19.195 24.1224 19.3206C24.0245 19.4186 23.9699 19.6055 23.8502 19.6878C23.6372 19.8342 23.5712 20.2967 23.3628 20.4158C23.2608 20.4741 23.2073 20.7454 23.1095 20.7577C23.0593 20.7639 22.9012 21.0416 22.869 21.0995C22.5275 21.7142 22.0025 22.293 21.5269 22.8215C21.3255 23.0452 21.0967 23.3594 20.859 23.5495C20.6494 23.7171 20.3168 24.0528 20.1911 24.2902C20.0374 24.5805 19.6659 24.7456 19.4916 25.0594C19.3129 25.3809 19.0888 25.7359 18.8616 26.028C18.6738 26.2695 18.6018 26.6011 18.3932 26.8098C18.2058 26.9972 18.0372 27.2975 17.8677 27.5093C17.4347 28.0507 16.9482 28.4117 16.5035 28.9306C16.2735 29.1989 15.9567 29.3904 15.7153 29.6586C15.4828 29.9169 15.2786 30.2929 15.0506 30.5861C14.8563 30.8358 14.7456 31.0118 14.5504 31.2286C14.3895 31.4074 13.9933 31.4921 13.9933 31.7541" stroke="#3D60E0" stroke-width="3" stroke-linecap="round"/>
<path d="M31.3141 9.87524C31.2896 10.0717 31.008 10.3166 30.9153 10.502" stroke="#3D60E0" stroke-width="3" stroke-linecap="round"/>
<path d="M30.0037 10.9008C30.0037 11.0507 29.8394 11.1722 29.7758 11.2996" stroke="#3D60E0" stroke-width="3" stroke-linecap="round"/>
<path d="M19.4489 26.0806C19.3359 26.1404 19.2364 26.2856 19.1608 26.389C19.0713 26.5114 18.9126 26.6381 18.7941 26.7295C18.6882 26.8112 18.5887 26.8761 18.4682 26.9332C18.2873 27.0189 18.0212 26.969 17.8251 26.9914C17.5674 27.0209 17.1813 26.9245 16.9928 27.1602C16.9745 27.183 16.9608 27.3539 16.9608 27.3901C16.9608 27.4724 16.9084 27.522 16.9084 27.5996" stroke="#3D60E0" stroke-width="3" stroke-linecap="round"/>
<path d="M15.4679 32.4187C15.4098 32.484 15.4417 32.648 15.4417 32.7272C15.4417 32.8226 15.4156 32.9609 15.4475 33.0531C15.5056 33.2208 15.6451 33.4255 15.7822 33.5333C15.9405 33.6576 16.0155 33.8415 16.1896 33.9523C16.4206 34.0993 16.5839 34.3648 16.8036 34.5343C16.9668 34.6602 17.1267 34.81 17.3012 34.9126C17.3789 34.9583 17.4975 35.0933 17.5428 35.1687C17.6181 35.2943 17.7581 35.419 17.8629 35.5237C18.2965 35.9573 18.6778 36.397 19.0153 36.9031C19.1867 37.1603 19.3896 37.3618 19.606 37.5782C19.8445 37.8167 20.0669 38.1351 20.2477 38.4163C20.5495 38.8859 20.8956 39.322 21.2036 39.7841C21.502 40.2316 21.9368 40.5449 22.2891 40.9292C22.4264 41.0789 22.5849 41.2731 22.7358 41.3904C22.9018 41.5196 23.0371 41.7557 23.2203 41.8473" stroke="#3D60E0" stroke-width="3" stroke-linecap="round"/>
<path d="M23.9799 42.6068C24.0744 42.7118 24.1387 42.8983 24.2025 43.0259C24.2667 43.1543 24.3859 43.2509 24.4717 43.3663C24.5849 43.5188 24.7765 43.6222 24.8965 43.7723C25.0719 43.9914 25.2832 44.1813 25.5047 44.3616C25.7088 44.5277 25.8541 44.7331 26.0751 44.8752C26.1625 44.9314 26.2619 45.0606 26.337 45.1357C26.4526 45.2512 26.5683 45.3948 26.6571 45.5343C26.8085 45.7721 27.0595 45.9742 27.1751 46.2342C27.2846 46.4805 27.5703 46.6466 27.7193 46.8701C27.8428 47.0552 28.0828 47.2451 28.2504 47.388C28.3671 47.4876 28.538 47.6086 28.6301 47.7271C28.7027 47.8203 28.8189 47.8911 28.9037 47.9759C29.0375 48.1096 29.1692 48.2533 29.2951 48.3949C29.388 48.4995 29.4828 48.6235 29.5585 48.7412C29.6847 48.9376 29.8446 49.1106 29.9717 49.3058C30.0465 49.4206 30.1471 49.5246 30.2263 49.639C30.2884 49.7286 30.3326 49.85 30.4096 49.9271C30.4996 50.0171 30.5702 50.1925 30.6323 50.3068C30.6782 50.3915 30.7787 50.4704 30.7894 50.5629C30.8047 50.6959 30.9425 50.8726 31.0004 50.998C31.0682 51.1449 31.1684 51.2879 31.2623 51.4229C31.4389 51.6767 31.693 51.8867 31.9302 52.082C32.0036 52.1425 32.0285 52.2533 32.1048 52.3119C32.2421 52.4176 32.3322 52.5597 32.4511 52.6785C32.4985 52.726 32.5597 52.7204 32.6228 52.7484C32.6928 52.7795 32.7279 52.8735 32.8061 52.8735" stroke="#3D60E0" stroke-width="3" stroke-linecap="round"/>
<path d="M33.4084 52.8474C33.4084 52.5898 33.1727 52.3348 33.1727 52.0747C33.1727 51.9159 33.0942 51.7616 33.0942 51.6033C33.0942 51.4545 33.068 51.3193 33.068 51.1712C33.068 50.338 32.9643 49.5117 33.0738 48.6772C33.1208 48.3184 33.1203 47.9699 33.1203 47.6078C33.1203 47.3371 33.1203 47.0665 33.1203 46.7959C33.1203 46.6242 33.0942 46.4529 33.0942 46.2793C33.0942 46.2102 33.109 46.0236 33.0621 45.965C33.0266 45.9207 33.0418 45.8433 33.0418 45.7861C33.0418 45.6462 32.9894 45.5188 32.9894 45.383C32.9894 45.2157 32.937 45.038 32.937 44.8694C32.937 44.412 32.937 43.9547 32.937 43.4973" stroke="#3D60E0" stroke-width="3" stroke-linecap="round"/>
<path d="M33.068 43.2616C33.0117 43.128 33.034 42.959 33.0098 42.8163C32.9817 42.6512 32.9401 42.4883 32.937 42.3187C32.9312 41.9988 32.8847 41.6839 32.8847 41.3628C32.8847 40.8377 32.8061 40.3037 32.8061 39.7782C32.8061 39.4554 32.8122 39.1319 32.8061 38.8092C32.7998 38.4756 32.7013 38.1629 32.7013 37.8285C32.7013 37.0911 32.5966 36.3492 32.5966 35.6139C32.5966 34.4937 32.6027 33.363 32.7479 32.2557C32.7851 31.972 32.6901 31.6471 32.7668 31.371C32.8036 31.2385 32.7728 31.0883 32.7813 30.952C32.7906 30.8039 32.8061 30.6619 32.8061 30.5126C32.8061 30.0446 32.9108 29.5865 32.9108 29.1187" stroke="#3D60E0" stroke-width="3" stroke-linecap="round"/>
<path d="M32.9894 28.3854C32.9422 28.3264 32.937 28.0997 32.937 28.0187C32.937 27.8469 32.9155 27.6782 32.9108 27.5094C32.9078 27.4 32.9108 27.2901 32.9108 27.1806C32.9108 27.0045 32.8585 26.8392 32.8585 26.6626C32.8585 25.4404 32.6686 24.2242 32.6242 23.0032C32.6115 22.6553 32.6227 22.3052 32.6227 21.957C32.6227 21.7354 32.6751 21.5229 32.6751 21.3037C32.6751 21.1367 32.7275 20.9685 32.7275 20.8032C32.7275 20.6057 32.8061 20.4126 32.8061 20.2168C32.8061 20.0458 32.8443 19.8613 32.8599 19.6901C32.878 19.491 32.8903 19.2859 32.9123 19.0877C32.9568 18.6873 32.937 18.2762 32.937 17.8713C32.937 16.2269 32.9894 14.5908 32.9894 12.9475C32.9894 11.9387 32.8846 10.9801 32.8846 9.97339" stroke="#3D60E0" stroke-width="3" stroke-linecap="round"/>
<path d="M31.9156 13.1425C31.7799 13.1425 31.6656 13.2615 31.5751 13.352C31.4105 13.5166 31.3326 13.7316 31.1823 13.9034C30.7439 14.4044 30.2776 14.8745 29.7811 15.3279C29.6266 15.4689 29.3751 15.6056 29.3751 15.827C29.3751 15.9391 29.5172 15.9796 29.6021 16.0118C29.9152 16.1305 30.2185 16.156 30.5508 16.1806C30.7665 16.1965 30.9775 16.2068 31.1939 16.2068C31.2735 16.2068 31.2909 16.2699 31.3249 16.3377C31.4991 16.6862 30.8487 17.0403 30.6177 17.1336C30.2892 17.2664 29.8428 17.202 29.4973 17.202C29.0114 17.202 28.5254 17.202 28.0394 17.202C27.7659 17.202 27.3681 17.1644 27.1286 17.3329C27.006 17.4192 27.0815 17.6552 27.1547 17.7404C27.4158 18.0442 28.0197 18.144 28.3886 18.2031C29.1244 18.321 29.8465 18.3869 30.5886 18.4475C30.6505 18.4526 31.3983 18.432 31.287 18.5843C31.2385 18.6507 31.0976 18.6851 31.0237 18.7065C30.8366 18.7607 30.6461 18.8082 30.4577 18.8578C29.0181 19.2371 27.4948 18.9735 26.0344 19.239C25.9989 19.2455 25.4457 19.3761 25.5629 19.4078C26.0793 19.5474 26.6377 19.5496 27.1664 19.6115C28.0911 19.7198 29.0252 19.7432 29.9484 19.8531C30.1934 19.8822 30.0319 20.0153 29.8989 20.0626C29.645 20.1528 29.3617 20.1527 29.0958 20.1746C28.667 20.21 28.2491 20.2698 27.8241 20.3332C26.7297 20.4965 25.5609 20.5094 24.5153 20.8949C24.291 20.9776 24.0492 21.0509 23.8344 21.1568C23.6868 21.2295 23.9195 21.2393 23.9813 21.2484C24.4407 21.3162 24.9139 21.3143 25.3767 21.3459C26.1619 21.3997 26.9478 21.4439 27.7338 21.4842C28.5231 21.5245 29.3117 21.5744 30.0997 21.634C30.5207 21.6659 30.9592 21.6839 31.3685 21.7955C31.4325 21.813 31.478 21.8633 31.3802 21.8843C31.1018 21.9439 30.8132 21.9687 30.5319 22.0094C29.2842 22.1901 28.0208 22.2901 26.7662 22.4125C26.3166 22.4563 24.9686 22.5711 25.4203 22.5711C26.6709 22.5711 27.9167 22.6009 29.1656 22.6744C29.4826 22.693 29.8042 22.6911 30.1172 22.7486C30.2357 22.7703 30.0858 22.7775 30.0415 22.7806C29.5973 22.8112 29.1537 22.8246 28.7087 22.8388C28.0084 22.8612 27.3133 22.9488 26.6164 23.0149C25.4464 23.1258 24.2022 23.1421 23.0879 23.5503C23.0502 23.5641 22.6031 23.7255 22.8769 23.6856C23.332 23.6194 23.7893 23.5828 24.249 23.5678C26.076 23.5082 27.8735 23.6338 29.6923 23.7991C29.9978 23.8269 30.3635 23.8124 30.6556 23.9272C30.6751 23.9348 30.6166 23.9437 30.5959 23.9475C30.4372 23.9768 30.2762 23.9953 30.1157 24.0115C29.3814 24.086 28.6392 24.0992 27.9026 24.1425C26.6308 24.2173 25.3604 24.294 24.0919 24.4146C23.5033 24.4706 22.9147 24.5259 22.324 24.5557C22.269 24.5585 22.1794 24.5729 22.1218 24.5601C22.044 24.5428 22.2762 24.5204 22.3546 24.5063C22.995 24.391 23.6449 24.369 24.2941 24.3578C25.3489 24.3397 26.4029 24.3575 27.4545 24.4451C28.5152 24.5335 29.5822 24.6907 30.6468 24.7187C31.0175 24.7284 29.9055 24.7378 29.5352 24.7565C28.1291 24.8275 26.7571 25.0248 25.3709 25.2629C25.2264 25.2877 25.0822 25.3139 24.9387 25.3444C24.8995 25.3527 24.8607 25.3638 24.8209 25.3691C24.8112 25.3704 24.8378 25.3591 24.8471 25.356C25.3286 25.1955 25.8571 25.1368 26.3574 25.0708C27.3421 24.9409 28.3405 24.9049 29.3329 24.9049C30.268 24.9049 31.2085 24.9082 32.1426 24.9544C32.3738 24.9658 33.0667 25.0068 32.8352 25.0068C32.5353 25.0068 32.2361 25.032 31.936 25.033C30.3671 25.0381 28.7959 25.0032 27.2275 25.0388C25.9877 25.067 24.7519 25.2658 23.5172 25.3735C23.3346 25.3894 23.1015 25.3811 22.9279 25.4506C22.7439 25.5242 23.3225 25.4151 23.5201 25.3996C24.6893 25.3085 25.8661 25.2917 27.0383 25.2949C27.3847 25.2958 27.7359 25.2978 28.0816 25.3225C28.2194 25.3324 28.015 25.3991 27.9899 25.4055C27.5283 25.523 27.0631 25.5525 26.5902 25.599C25.6842 25.688 24.782 25.8107 23.8751 25.8914C23.1875 25.9527 22.502 26.0145 21.8119 26.0297C21.7988 26.03 21.4532 26.0544 21.6285 26.0544C22.2471 26.0544 22.8581 25.9255 23.4793 25.9235C24.2155 25.921 24.9511 25.9497 25.6822 25.9497" stroke="#3D60E0" stroke-width="3" stroke-linecap="round"/>
<path d="M31.8632 26.84C31.6292 26.84 31.3987 26.8924 31.1633 26.8924C30.6387 26.8924 30.1211 26.8581 29.5977 26.8415C28.4434 26.8049 27.2824 26.84 26.1275 26.84C25.7488 26.84 25.368 26.8287 24.9896 26.8459C24.5668 26.8651 24.1621 26.9619 23.7499 27.0496C23.1473 27.1777 22.577 27.2255 21.9632 27.2329C21.376 27.24 20.7628 27.4004 20.1938 27.5414C19.7647 27.6477 19.2841 27.6788 18.8727 27.8353C18.42 28.0075 17.896 28.2811 17.6141 28.6865C17.5018 28.8479 17.3298 29.0415 17.2998 29.2365C17.2626 29.478 17.4623 29.4649 17.6723 29.4998C18.355 29.6136 19.0618 29.5639 19.7515 29.5639C20.1259 29.5639 20.4888 29.5637 20.8573 29.4911C21.0979 29.4437 21.3365 29.3859 21.5761 29.334C22.0396 29.2336 22.5571 29.175 23.0312 29.171C23.5066 29.167 23.9674 29.0724 24.4396 29.0255C25.173 28.9526 25.9291 28.9339 26.6658 28.9091C27.5696 28.8787 28.4658 28.8305 29.3707 28.8305C30.1015 28.8305 30.8562 28.7991 31.546 29.0793C31.8944 29.2209 31.833 29.713 31.6479 29.9625C31.1785 30.5952 30.3927 30.9661 29.637 31.0829C29.0483 31.1739 28.4018 31.1172 27.808 31.1077C26.6918 31.0898 25.5777 30.9586 24.4644 30.8865C23.1415 30.8008 21.8312 30.7376 20.5038 30.7832C19.8552 30.8054 19.2087 30.8779 18.5598 30.8981C17.7202 30.9244 16.74 30.9067 15.9713 31.291C15.867 31.3432 15.7776 31.3867 15.8244 31.5165C15.9553 31.8802 16.2673 32.2389 16.6348 32.3633C17.1215 32.5281 17.6422 32.5647 18.1452 32.6544C18.6564 32.7455 19.1668 32.7329 19.6846 32.7329C20.9361 32.7329 22.1778 32.8628 23.4269 32.9104C24.8519 32.9648 26.2691 33.0164 27.6931 32.9425C28.3664 32.9075 29.0383 32.9126 29.7112 32.8886C29.9894 32.8787 30.2625 32.8548 30.542 32.8653C30.8507 32.877 31.1416 32.9612 31.4442 32.9948C31.534 33.0048 31.4349 33.3412 31.4121 33.3877C31.2682 33.6812 31.0386 33.8768 30.836 34.1268C30.543 34.4885 30.1872 34.768 29.7301 34.8602C29.1404 34.9791 28.5328 34.8807 27.9434 34.8165C26.9028 34.7032 25.8852 34.4894 24.8529 34.3218C23.4031 34.0865 21.9214 34.1237 20.4601 34.1996C20.3175 34.207 18.9326 34.2961 19.12 34.671C19.2808 34.9926 19.5922 35.2533 19.8621 35.4771C20.2675 35.8132 20.7496 35.9309 21.2618 36.0068C22.4122 36.1772 23.5862 36.1639 24.7481 36.1639C26.5349 36.1639 28.2783 36.6952 30.0633 36.7415C30.4111 36.7506 30.7535 36.8326 31.0979 36.8448C31.2352 36.8498 31.2189 36.9518 31.2405 37.0544C31.3166 37.4162 30.8642 37.6817 30.6002 37.8401C29.9912 38.2055 29.2082 38.2361 28.5195 38.233C27.6274 38.2289 26.7552 38.0152 25.8656 37.9652C25.3402 37.9357 24.8276 37.844 24.2999 37.8401C23.8019 37.8364 23.3063 37.7877 22.8071 37.7877C22.6548 37.7877 22.5062 37.7919 22.356 37.8197C22.2921 37.8316 22.2383 37.8663 22.1727 37.8663" stroke="#3D60E0" stroke-width="3" stroke-linecap="round"/>
<path d="M23.5346 38.3115C23.5346 38.4947 23.5312 38.6783 23.5346 38.8615C23.5391 39.0987 23.6665 39.3287 23.6903 39.5672C23.7136 39.8001 23.9926 39.8308 24.1705 39.8975C24.4283 39.9942 24.7196 40.0334 24.9911 40.0779C25.3097 40.1302 25.6199 40.1526 25.9412 40.1187C26.5449 40.0549 27.1727 40.0138 27.76 39.8509C27.9244 39.8054 28.0683 39.7085 28.2286 39.6531C28.4114 39.5898 28.5973 39.5396 28.7873 39.5032C29.4159 39.3828 30.12 39.2617 30.7516 39.4261C30.9548 39.479 30.9966 39.5138 31.0775 39.6851C31.1864 39.9157 31.1823 40.1437 31.1823 40.3951C31.1823 40.6385 31.25 41.0049 31.1415 41.2318C30.9639 41.6031 30.3148 41.5571 29.9891 41.5592C29.3172 41.5633 28.6928 41.48 28.0307 41.3875C27.7619 41.3499 27.4475 41.3079 27.1751 41.3249C26.9941 41.3362 26.8087 41.4083 26.6353 41.4558C26.355 41.5326 26.0595 41.6062 25.7986 41.7367C25.517 41.8775 25.4415 42.1438 25.4072 42.438C25.3781 42.6883 25.4355 43.064 25.6459 43.2354C25.8209 43.378 26.0489 43.4041 26.2672 43.4172C26.9611 43.4589 27.6525 43.5012 28.3479 43.5176C28.9318 43.5314 29.5359 43.5616 30.1143 43.4652C30.4739 43.4053 30.8124 43.2996 31.1561 43.183C31.4302 43.0899 31.702 42.9996 31.9942 42.9996C32.2115 42.9996 32.3661 43.1078 32.3856 43.3416C32.3966 43.4736 32.4061 43.6329 32.3288 43.7461C32.2053 43.927 31.9879 44.1016 31.7992 44.2102C31.3725 44.4558 30.8212 44.4401 30.3442 44.4401C30.0561 44.4401 29.768 44.4401 29.4799 44.4401C29.2838 44.4401 29.0509 44.4049 28.8644 44.4809C28.5593 44.6052 28.4846 44.9076 28.4846 45.2142C28.4846 45.6703 28.78 45.7732 29.1831 45.7758C30.1782 45.7823 31.1898 45.7033 32.1717 45.8893C32.2833 45.9105 32.6118 45.9285 32.6693 46.0698C32.7079 46.1645 32.6403 46.2933 32.6097 46.3782C32.4609 46.7903 32.2431 47.4144 31.7585 47.5131C31.3906 47.5881 30.949 47.5738 30.5741 47.5568C30.3121 47.5449 30.0075 47.4276 30.0212 47.1232C30.0253 47.0313 30.0861 46.8459 30.2016 46.8249C30.3224 46.803 30.5138 46.9981 30.5959 47.0621C30.7847 47.2093 30.9608 47.3615 31.1299 47.5306" stroke="#3D60E0" stroke-width="3" stroke-linecap="round"/>
<path d="M33.6756 5.81907C33.6685 5.8897 33.5879 5.95283 33.5508 6.00847C33.5306 6.03871 33.4209 6.30932 33.412 6.30783C33.4059 6.30682 33.4763 6.16735 33.4792 6.1612C33.5363 6.03863 33.5769 5.90671 33.6206 5.77892C33.6789 5.60841 33.7201 5.43173 33.8292 5.28492C33.8719 5.22745 33.8165 5.47737 33.8082 5.50487C33.771 5.62902 33.6991 5.741 33.6634 5.8662C33.6469 5.92366 33.6093 5.88686 33.6136 5.84176C33.6192 5.78288 33.6585 5.74455 33.6756 5.69339" stroke="white" stroke-linecap="round"/>
<path d="M34.1155 5.25347C34.2156 5.26599 34.0317 5.5562 34.009 5.57989C33.9322 5.66002 33.8857 5.76772 33.8309 5.86355C33.6997 6.0932 33.5403 6.28948 33.3648 6.48759C33.3041 6.55616 33.2487 6.62918 33.1885 6.69794C33.187 6.6997 33.1522 6.73732 33.1693 6.70928C33.212 6.63945 33.2614 6.57482 33.302 6.5033C33.414 6.30589 33.5181 6.10341 33.6276 5.90457C33.7259 5.72607 33.8026 5.51689 33.8152 5.31194C33.816 5.29947 33.8393 5.13312 33.7855 5.1627C33.7149 5.20154 33.6554 5.31745 33.6057 5.37915C33.557 5.4397 33.5045 5.50601 33.4626 5.57116C33.4262 5.62785 33.4119 5.7041 33.3771 5.76405C33.2892 5.91546 33.22 6.11458 33.22 6.29034" stroke="#3D60E0" stroke-linecap="round"/>
<path d="M33.9102 55.167C33.8981 55.0467 33.8499 54.8962 33.8051 54.784C33.7576 54.6654 33.7287 54.4981 33.6475 54.3988C33.5683 54.302 33.4688 54.0947 33.4688 53.9691" stroke="#3D60E0" stroke-linecap="round"/>
<path d="M11 31.5849L35 2V58L11 31.5849Z" stroke="black"/>
</svg>
