<svg width="36" height="60" viewBox="0 0 36 60" fill="none" xmlns="http://www.w3.org/2000/svg">
<path d="M34 28.5L11.5 56.5V3.5L34 28.5Z" stroke="#3D60E0"/>
<path d="M12.8057 52.4608C12.8185 52.3584 12.937 52.1739 13.0019 52.0905C13.061 52.0145 13.1243 51.7515 13.1792 51.7201C13.3492 51.623 13.3945 51.1407 13.5337 50.9668C13.6236 50.8544 13.6165 50.6841 13.7458 50.5806C13.7703 50.561 13.9138 50.319 13.9452 50.2641C13.9885 50.1882 14.1045 49.984 14.1731 49.9412C14.3105 49.8553 14.3023 49.6661 14.401 49.555C14.4826 49.4633 14.6541 49.2246 14.6827 49.1245C14.7257 48.974 14.891 48.8717 14.9708 48.732C15.1348 48.4449 15.4799 48.2482 15.7115 48.0167C15.8779 47.8502 16.1956 47.3452 16.4268 47.2791C16.571 47.238 17.0451 46.8104 17.0821 46.6809C17.1089 46.587 17.3137 46.4467 17.3764 46.377C17.4747 46.2679 17.5453 46.1801 17.636 46.0668C17.7258 45.9545 17.7805 45.771 17.8797 45.6553C17.9155 45.6136 18.004 45.4926 18.0475 45.4654C18.1271 45.4156 18.0675 45.321 18.1361 45.2818C18.3988 45.1317 18.6727 44.6636 18.8451 44.4145C18.9486 44.2651 19.0311 44.0703 19.1585 43.9429C19.3217 43.7797 19.5889 43.564 19.6998 43.3699C19.8351 43.1332 20.0632 42.7901 20.2696 42.6482C20.3319 42.6054 20.5401 42.3833 20.5513 42.3444C20.6041 42.1595 20.8105 42.0957 20.8963 41.9455C21.0834 41.6181 21.3276 41.3762 21.5673 41.1099C21.684 40.9803 21.7519 40.805 21.8776 40.6794C21.9755 40.5814 22.0301 40.3945 22.1498 40.3122C22.3628 40.1658 22.4288 39.7033 22.6372 39.5842C22.7392 39.5259 22.7927 39.2546 22.8905 39.2423C22.9407 39.2361 23.0988 38.9584 23.131 38.9005C23.4725 38.2858 23.9975 37.707 24.4731 37.1785C24.6745 36.9548 24.9033 36.6406 25.141 36.4505C25.3506 36.2829 25.6832 35.9472 25.8089 35.7098C25.9626 35.4195 26.3341 35.2544 26.5084 34.9406C26.6871 34.6191 26.9112 34.2641 27.1384 33.972C27.3262 33.7305 27.3982 33.3989 27.6068 33.1902C27.7942 33.0028 27.9628 32.7025 28.1323 32.4907C28.5653 31.9493 29.0518 31.5883 29.4965 31.0694C29.7265 30.8011 30.0433 30.6096 30.2847 30.3414C30.5172 30.0831 30.7214 29.7071 30.9494 29.4139C31.1437 29.1642 31.2544 28.9882 31.4496 28.7714C31.6105 28.5926 32.0067 28.5079 32.0067 28.2459" stroke="#3D60E0" stroke-width="3" stroke-linecap="round"/>
<path d="M14.6859 50.1248C14.7104 49.9283 14.992 49.6834 15.0847 49.498" stroke="#3D60E0" stroke-width="3" stroke-linecap="round"/>
<path d="M15.9963 49.0992C15.9963 48.9493 16.1606 48.8278 16.2242 48.7004" stroke="#3D60E0" stroke-width="3" stroke-linecap="round"/>
<path d="M26.5511 33.9194C26.6641 33.8596 26.7636 33.7144 26.8392 33.611C26.9287 33.4886 27.0874 33.3619 27.2059 33.2705C27.3118 33.1888 27.4113 33.1239 27.5318 33.0668C27.7127 32.9811 27.9788 33.031 28.1749 33.0086C28.4326 32.9791 28.8187 33.0755 29.0072 32.8398C29.0255 32.817 29.0392 32.6461 29.0392 32.6099C29.0392 32.5276 29.0916 32.478 29.0916 32.4004" stroke="#3D60E0" stroke-width="3" stroke-linecap="round"/>
<path d="M30.5321 27.5813C30.5902 27.516 30.5583 27.352 30.5583 27.2728C30.5583 27.1774 30.5844 27.0391 30.5525 26.9469C30.4944 26.7792 30.3549 26.5745 30.2178 26.4667C30.0595 26.3424 29.9845 26.1585 29.8104 26.0477C29.5794 25.9007 29.4161 25.6352 29.1964 25.4657C29.0332 25.3398 28.8733 25.19 28.6988 25.0874C28.6211 25.0417 28.5025 24.9067 28.4572 24.8313C28.3819 24.7057 28.2419 24.581 28.1371 24.4763C27.7035 24.0427 27.3222 23.603 26.9847 23.0969C26.8133 22.8397 26.6104 22.6382 26.394 22.4218C26.1555 22.1833 25.9331 21.8649 25.7523 21.5837C25.4505 21.1141 25.1044 20.678 24.7964 20.2159C24.498 19.7684 24.0632 19.4551 23.7109 19.0708C23.5736 18.9211 23.4151 18.7269 23.2642 18.6096C23.0982 18.4804 22.9629 18.2443 22.7797 18.1527" stroke="#3D60E0" stroke-width="3" stroke-linecap="round"/>
<path d="M22.0201 17.3932C21.9256 17.2882 21.8613 17.1017 21.7975 16.9741C21.7333 16.8457 21.6141 16.7491 21.5283 16.6337C21.4151 16.4812 21.2235 16.3778 21.1035 16.2277C20.9281 16.0086 20.7168 15.8187 20.4953 15.6384C20.2912 15.4723 20.1459 15.2669 19.9249 15.1248C19.8375 15.0686 19.7381 14.9394 19.663 14.8643C19.5474 14.7488 19.4317 14.6052 19.3429 14.4657C19.1915 14.2279 18.9405 14.0258 18.8249 13.7658C18.7154 13.5195 18.4297 13.3534 18.2807 13.1299C18.1572 12.9448 17.9172 12.7549 17.7496 12.612C17.6329 12.5124 17.462 12.3914 17.3699 12.2729C17.2973 12.1797 17.1811 12.1089 17.0963 12.0241C16.9625 11.8904 16.8308 11.7467 16.7049 11.6051C16.612 11.5005 16.5172 11.3765 16.4415 11.2588C16.3153 11.0624 16.1554 10.8894 16.0283 10.6942C15.9535 10.5794 15.8529 10.4754 15.7737 10.361C15.7116 10.2714 15.6674 10.15 15.5904 10.0729C15.5004 9.98295 15.4298 9.8075 15.3677 9.69316C15.3218 9.60848 15.2213 9.52963 15.2106 9.43707C15.1953 9.30414 15.0575 9.12735 14.9996 9.00202C14.9318 8.85507 14.8316 8.7121 14.7377 8.57715C14.5611 8.32332 14.307 8.11334 14.0698 7.91802C13.9964 7.85753 13.9715 7.74675 13.8952 7.68812C13.7579 7.58244 13.6678 7.44033 13.5489 7.32145C13.5015 7.27397 13.4403 7.27963 13.3772 7.25161C13.3072 7.2205 13.2721 7.12648 13.1939 7.12648" stroke="#3D60E0" stroke-width="3" stroke-linecap="round"/>
<path d="M12.5916 7.15265C12.5916 7.41023 12.8273 7.66517 12.8273 7.92527C12.8273 8.0841 12.9058 8.23842 12.9058 8.3967C12.9058 8.54551 12.932 8.6807 12.932 8.82884C12.932 9.66201 13.0357 10.4883 12.9262 11.3228C12.8792 11.6816 12.8797 12.0301 12.8797 12.3922C12.8797 12.6629 12.8797 12.9335 12.8797 13.2041C12.8797 13.3758 12.9058 13.5471 12.9058 13.7207C12.9058 13.7898 12.891 13.9764 12.9379 14.035C12.9734 14.0793 12.9582 14.1567 12.9582 14.2139C12.9582 14.3538 13.0106 14.4812 13.0106 14.617C13.0106 14.7843 13.063 14.962 13.063 15.1306C13.063 15.588 13.063 16.0453 13.063 16.5027" stroke="#3D60E0" stroke-width="3" stroke-linecap="round"/>
<path d="M12.932 16.7384C12.9883 16.872 12.966 17.041 12.9902 17.1837C13.0183 17.3488 13.0599 17.5117 13.063 17.6813C13.0688 18.0012 13.1153 18.3161 13.1153 18.6372C13.1153 19.1623 13.1939 19.6963 13.1939 20.2218C13.1939 20.5446 13.1878 20.8681 13.1939 21.1908C13.2002 21.5244 13.2987 21.8371 13.2987 22.1715C13.2987 22.9089 13.4034 23.6508 13.4034 24.3861C13.4034 25.5063 13.3973 26.637 13.2521 27.7443C13.2149 28.028 13.3099 28.3529 13.2332 28.629C13.1964 28.7615 13.2272 28.9117 13.2187 29.048C13.2094 29.1961 13.1939 29.3381 13.1939 29.4874C13.1939 29.9554 13.0892 30.4135 13.0892 30.8813" stroke="#3D60E0" stroke-width="3" stroke-linecap="round"/>
<path d="M13.0106 31.6146C13.0578 31.6736 13.063 31.9003 13.063 31.9813C13.063 32.1531 13.0845 32.3218 13.0892 32.4906C13.0922 32.6 13.0892 32.7099 13.0892 32.8194C13.0892 32.9955 13.1415 33.1608 13.1415 33.3374C13.1415 34.5596 13.3314 35.7758 13.3758 36.9968C13.3885 37.3447 13.3773 37.6948 13.3773 38.043C13.3773 38.2646 13.3249 38.4771 13.3249 38.6963C13.3249 38.8633 13.2725 39.0315 13.2725 39.1968C13.2725 39.3943 13.1939 39.5874 13.1939 39.7832C13.1939 39.9542 13.1557 40.1387 13.1401 40.3099C13.122 40.509 13.1097 40.7141 13.0877 40.9123C13.0432 41.3127 13.063 41.7238 13.063 42.1287C13.063 43.7731 13.0106 45.4092 13.0106 47.0525C13.0106 48.0613 13.1154 49.0199 13.1154 50.0266" stroke="#3D60E0" stroke-width="3" stroke-linecap="round"/>
<path d="M14.0844 46.8575C14.2201 46.8575 14.3344 46.7385 14.4249 46.648C14.5895 46.4834 14.6674 46.2684 14.8177 46.0966C15.2561 45.5956 15.7224 45.1255 16.2189 44.6721C16.3734 44.5311 16.6249 44.3944 16.6249 44.173C16.6249 44.0609 16.4828 44.0204 16.3979 43.9882C16.0848 43.8695 15.7815 43.844 15.4492 43.8194C15.2335 43.8035 15.0225 43.7932 14.8061 43.7932C14.7265 43.7932 14.7091 43.7301 14.6751 43.6623C14.5009 43.3138 15.1513 42.9597 15.3823 42.8664C15.7108 42.7336 16.1572 42.798 16.5027 42.798C16.9886 42.798 17.4746 42.798 17.9606 42.798C18.2341 42.798 18.6319 42.8356 18.8714 42.6671C18.994 42.5808 18.9185 42.3448 18.8453 42.2596C18.5842 41.9558 17.9803 41.856 17.6114 41.7969C16.8756 41.679 16.1535 41.6131 15.4114 41.5525C15.3495 41.5474 14.6017 41.568 14.713 41.4157C14.7615 41.3493 14.9024 41.3149 14.9763 41.2935C15.1634 41.2393 15.3539 41.1918 15.5423 41.1422C16.9819 40.7629 18.5052 41.0265 19.9656 40.761C20.0011 40.7545 20.5543 40.6239 20.4371 40.5922C19.9207 40.4526 19.3623 40.4504 18.8336 40.3885C17.9089 40.2802 16.9748 40.2568 16.0516 40.1469C15.8066 40.1178 15.9681 39.9847 16.1011 39.9374C16.355 39.8472 16.6383 39.8473 16.9042 39.8254C17.333 39.79 17.7509 39.7302 18.1759 39.6668C19.2703 39.5035 20.4391 39.4906 21.4847 39.1051C21.709 39.0224 21.9508 38.9491 22.1656 38.8432C22.3132 38.7705 22.0805 38.7607 22.0187 38.7516C21.5593 38.6838 21.0861 38.6857 20.6233 38.6541C19.8381 38.6003 19.0522 38.5561 18.2662 38.5158C17.4769 38.4755 16.6883 38.4256 15.9003 38.366C15.4793 38.3341 15.0408 38.3161 14.6315 38.2045C14.5675 38.187 14.522 38.1367 14.6198 38.1157C14.8982 38.0561 15.1868 38.0313 15.4681 37.9906C16.7158 37.8099 17.9792 37.7099 19.2338 37.5875C19.6834 37.5437 21.0314 37.4289 20.5797 37.4289C19.3291 37.4289 18.0833 37.3991 16.8344 37.3256C16.5174 37.307 16.1958 37.3089 15.8828 37.2514C15.7643 37.2297 15.9142 37.2225 15.9585 37.2194C16.4027 37.1888 16.8463 37.1754 17.2913 37.1612C17.9916 37.1388 18.6867 37.0512 19.3836 36.9851C20.5536 36.8742 21.7978 36.8579 22.9121 36.4497C22.9498 36.4359 23.3969 36.2745 23.1231 36.3144C22.668 36.3806 22.2107 36.4172 21.751 36.4322C19.924 36.4918 18.1265 36.3662 16.3077 36.2009C16.0022 36.1731 15.6365 36.1876 15.3444 36.0728C15.3249 36.0652 15.3834 36.0563 15.4041 36.0525C15.5628 36.0232 15.7238 36.0047 15.8843 35.9885C16.6186 35.914 17.3608 35.9008 18.0974 35.8575C19.3692 35.7827 20.6396 35.706 21.9081 35.5854C22.4967 35.5294 23.0853 35.4741 23.676 35.4443C23.731 35.4415 23.8206 35.4271 23.8782 35.4399C23.956 35.4572 23.7238 35.4796 23.6454 35.4937C23.005 35.609 22.3551 35.631 21.7059 35.6422C20.6511 35.6603 19.5971 35.6425 18.5455 35.5549C17.4848 35.4665 16.4178 35.3093 15.3532 35.2813C14.9825 35.2716 16.0945 35.2622 16.4648 35.2435C17.8709 35.1725 19.2429 34.9752 20.6291 34.7371C20.7736 34.7123 20.9178 34.6861 21.0613 34.6556C21.1005 34.6473 21.1393 34.6362 21.1791 34.6309C21.1888 34.6296 21.1622 34.6409 21.1529 34.644C20.6714 34.8045 20.1429 34.8632 19.6426 34.9292C18.6579 35.0591 17.6595 35.0951 16.6671 35.0951C15.732 35.0951 14.7915 35.0918 13.8574 35.0456C13.6262 35.0342 12.9333 34.9932 13.1648 34.9932C13.4647 34.9932 13.7639 34.968 14.064 34.967C15.6329 34.9619 17.2041 34.9968 18.7725 34.9612C20.0123 34.933 21.2481 34.7342 22.4828 34.6265C22.6654 34.6106 22.8985 34.6189 23.0721 34.5494C23.2561 34.4758 22.6775 34.5849 22.4799 34.6004C21.3107 34.6915 20.1339 34.7083 18.9617 34.7051C18.6153 34.7042 18.2641 34.7022 17.9184 34.6775C17.7806 34.6676 17.985 34.6009 18.0101 34.5945C18.4717 34.477 18.9369 34.4475 19.4098 34.401C20.3158 34.312 21.218 34.1893 22.1249 34.1086C22.8125 34.0473 23.498 33.9855 24.1881 33.9703C24.2012 33.97 24.5468 33.9456 24.3715 33.9456C23.7529 33.9456 23.1419 34.0745 22.5207 34.0765C21.7845 34.079 21.0489 34.0503 20.3178 34.0503" stroke="#3D60E0" stroke-width="3" stroke-linecap="round"/>
<path d="M14.1368 33.16C14.3708 33.16 14.6013 33.1076 14.8367 33.1076C15.3613 33.1076 15.8789 33.1419 16.4023 33.1585C17.5566 33.1951 18.7176 33.16 19.8725 33.16C20.2512 33.16 20.632 33.1713 21.0104 33.1541C21.4332 33.1349 21.8379 33.0381 22.2501 32.9504C22.8527 32.8223 23.423 32.7745 24.0368 32.7671C24.624 32.76 25.2372 32.5996 25.8062 32.4586C26.2353 32.3523 26.7159 32.3212 27.1273 32.1647C27.58 31.9925 28.104 31.7189 28.3859 31.3135C28.4982 31.1521 28.6702 30.9585 28.7002 30.7635C28.7374 30.522 28.5377 30.5351 28.3277 30.5002C27.645 30.3864 26.9382 30.4361 26.2485 30.4361C25.8741 30.4361 25.5112 30.4363 25.1427 30.5089C24.9021 30.5563 24.6635 30.6141 24.4239 30.666C23.9604 30.7664 23.4429 30.825 22.9688 30.829C22.4934 30.833 22.0326 30.9276 21.5604 30.9745C20.827 31.0474 20.0709 31.0661 19.3342 31.0909C18.4304 31.1213 17.5342 31.1695 16.6293 31.1695C15.8985 31.1695 15.1438 31.2009 14.454 30.9207C14.1056 30.7791 14.167 30.287 14.3521 30.0375C14.8215 29.4048 15.6073 29.0339 16.363 28.9171C16.9517 28.8261 17.5982 28.8828 18.192 28.8923C19.3082 28.9102 20.4223 29.0414 21.5356 29.1135C22.8585 29.1992 24.1688 29.2624 25.4962 29.2168C26.1448 29.1946 26.7913 29.1221 27.4402 29.1019C28.2798 29.0756 29.26 29.0933 30.0287 28.709C30.133 28.6568 30.2224 28.6133 30.1756 28.4835C30.0447 28.1198 29.7327 27.7611 29.3652 27.6367C28.8785 27.4719 28.3578 27.4353 27.8548 27.3456C27.3436 27.2545 26.8332 27.2671 26.3154 27.2671C25.0639 27.2671 23.8222 27.1372 22.5731 27.0896C21.1481 27.0352 19.7309 26.9836 18.3069 27.0575C17.6336 27.0925 16.9617 27.0874 16.2888 27.1114C16.0106 27.1213 15.7375 27.1452 15.458 27.1347C15.1493 27.123 14.8584 27.0388 14.5558 27.0052C14.466 26.9952 14.5651 26.6588 14.5879 26.6123C14.7318 26.3188 14.9614 26.1232 15.164 25.8732C15.457 25.5115 15.8128 25.232 16.2699 25.1398C16.8596 25.0209 17.4672 25.1193 18.0566 25.1835C19.0972 25.2968 20.1148 25.5106 21.1471 25.6782C22.5969 25.9135 24.0786 25.8763 25.5399 25.8004C25.6825 25.793 27.0674 25.7039 26.88 25.329C26.7192 25.0074 26.4078 24.7467 26.1379 24.5229C25.7325 24.1868 25.2504 24.0691 24.7382 23.9932C23.5878 23.8228 22.4138 23.8361 21.2519 23.8361C19.4651 23.8361 17.7217 23.3048 15.9367 23.2585C15.5889 23.2494 15.2465 23.1674 14.9021 23.1552C14.7648 23.1502 14.7811 23.0482 14.7595 22.9456C14.6834 22.5838 15.1358 22.3183 15.3998 22.1599C16.0088 21.7945 16.7918 21.7639 17.4805 21.767C18.3726 21.7711 19.2448 21.9848 20.1344 22.0348C20.6598 22.0643 21.1724 22.156 21.7001 22.1599C22.1981 22.1636 22.6937 22.2123 23.1929 22.2123C23.3452 22.2123 23.4938 22.2081 23.644 22.1803C23.7079 22.1684 23.7617 22.1337 23.8273 22.1337" stroke="#3D60E0" stroke-width="3" stroke-linecap="round"/>
<path d="M22.4654 21.6885C22.4654 21.5053 22.4688 21.3217 22.4654 21.1385C22.4609 20.9013 22.3335 20.6713 22.3097 20.4328C22.2864 20.1999 22.0074 20.1692 21.8295 20.1025C21.5717 20.0058 21.2804 19.9666 21.0089 19.9221C20.6903 19.8698 20.3801 19.8474 20.0588 19.8813C19.4551 19.9451 18.8273 19.9862 18.24 20.1491C18.0756 20.1946 17.9317 20.2915 17.7714 20.3469C17.5886 20.4102 17.4027 20.4604 17.2127 20.4968C16.5841 20.6172 15.88 20.7383 15.2484 20.5739C15.0452 20.521 15.0034 20.4862 14.9225 20.3149C14.8136 20.0843 14.8177 19.8563 14.8177 19.6049C14.8177 19.3615 14.75 18.9951 14.8585 18.7682C15.0361 18.3969 15.6852 18.4429 16.0109 18.4408C16.6828 18.4367 17.3072 18.52 17.9693 18.6125C18.2381 18.6501 18.5525 18.6921 18.8249 18.6751C19.0059 18.6638 19.1913 18.5917 19.3647 18.5442C19.645 18.4674 19.9405 18.3938 20.2014 18.2633C20.483 18.1225 20.5585 17.8562 20.5928 17.562C20.6219 17.3117 20.5645 16.936 20.3541 16.7646C20.1791 16.622 19.9511 16.5959 19.7328 16.5828C19.0389 16.5411 18.3475 16.4988 17.6521 16.4824C17.0682 16.4686 16.4641 16.4384 15.8857 16.5348C15.5261 16.5947 15.1876 16.7004 14.8439 16.817C14.5698 16.9101 14.298 17.0004 14.0058 17.0004C13.7885 17.0004 13.6339 16.8922 13.6144 16.6584C13.6034 16.5264 13.5939 16.3671 13.6712 16.2539C13.7947 16.073 14.0121 15.8984 14.2008 15.7898C14.6275 15.5442 15.1788 15.5599 15.6558 15.5599C15.9439 15.5599 16.232 15.5599 16.5201 15.5599C16.7162 15.5599 16.9491 15.5951 17.1356 15.5191C17.4407 15.3948 17.5154 15.0924 17.5154 14.7858C17.5154 14.3297 17.22 14.2268 16.8169 14.2242C15.8218 14.2177 14.8102 14.2967 13.8283 14.1107C13.7167 14.0895 13.3882 14.0715 13.3307 13.9302C13.2921 13.8355 13.3597 13.7067 13.3903 13.6218C13.5391 13.2097 13.7569 12.5856 14.2415 12.4869C14.6094 12.4119 15.051 12.4262 15.4259 12.4432C15.6879 12.4551 15.9925 12.5724 15.9788 12.8768C15.9747 12.9687 15.9139 13.1541 15.7984 13.1751C15.6776 13.197 15.4862 13.0019 15.4041 12.9379C15.2153 12.7907 15.0392 12.6385 14.8701 12.4694" stroke="#3D60E0" stroke-width="3" stroke-linecap="round"/>
<path d="M12.3244 54.1809C12.3315 54.1103 12.4121 54.0472 12.4492 53.9915C12.4694 53.9613 12.5791 53.6907 12.588 53.6922C12.5941 53.6932 12.5237 53.8327 12.5208 53.8388C12.4637 53.9614 12.4231 54.0933 12.3794 54.2211C12.3211 54.3916 12.2799 54.5683 12.1708 54.7151C12.1281 54.7725 12.1835 54.5226 12.1918 54.4951C12.229 54.371 12.3009 54.259 12.3366 54.1338C12.3531 54.0763 12.3907 54.1131 12.3864 54.1582C12.3808 54.2171 12.3415 54.2555 12.3244 54.3066" stroke="white" stroke-linecap="round"/>
<path d="M11.8845 54.7465C11.7844 54.734 11.9683 54.4438 11.991 54.4201C12.0678 54.34 12.1143 54.2323 12.1691 54.1365C12.3003 53.9068 12.4597 53.7105 12.6352 53.5124C12.6959 53.4438 12.7513 53.3708 12.8115 53.3021C12.813 53.3003 12.8478 53.2627 12.8307 53.2907C12.788 53.3606 12.7386 53.4252 12.698 53.4967C12.586 53.6941 12.4819 53.8966 12.3724 54.0954C12.2741 54.2739 12.1974 54.4831 12.1848 54.6881C12.184 54.7005 12.1607 54.8669 12.2145 54.8373C12.2851 54.7985 12.3446 54.6825 12.3943 54.6209C12.443 54.5603 12.4955 54.494 12.5374 54.4288C12.5738 54.3721 12.5881 54.2959 12.6229 54.2359C12.7108 54.0845 12.78 53.8854 12.78 53.7097" stroke="#3D60E0" stroke-linecap="round"/>
<path d="M12.0898 4.83303C12.1019 4.95333 12.1501 5.10381 12.1949 5.21597C12.2424 5.33456 12.2713 5.50193 12.3525 5.60124C12.4317 5.69798 12.5312 5.90532 12.5312 6.03088" stroke="#3D60E0" stroke-linecap="round"/>
<path d="M35 28.4151L11 58V2L35 28.4151Z" stroke="black"/>
<path d="M24 28.5L1.5 56.5V3.5L24 28.5Z" stroke="#3D60E0"/>
<path d="M2.80567 52.4608C2.81847 52.3584 2.93701 52.1739 3.00192 52.0905C3.06098 52.0145 3.12434 51.7515 3.17918 51.7201C3.34916 51.623 3.39452 51.1407 3.5337 50.9668C3.62363 50.8544 3.61645 50.6841 3.74578 50.5806C3.77029 50.561 3.91383 50.319 3.9452 50.2641C3.98854 50.1882 4.10455 49.984 4.1731 49.9412C4.31054 49.8553 4.3023 49.6661 4.401 49.555C4.48258 49.4633 4.65414 49.2246 4.68272 49.1245C4.72572 48.974 4.89099 48.8717 4.97077 48.732C5.13484 48.4449 5.47992 48.2482 5.71146 48.0167C5.87795 47.8502 6.1956 47.3452 6.42683 47.2791C6.57096 47.238 7.04506 46.8104 7.08205 46.6809C7.10887 46.587 7.31368 46.4467 7.37643 46.377C7.47467 46.2679 7.54534 46.1801 7.63599 46.0668C7.72581 45.9545 7.78055 45.771 7.87972 45.6553C7.91551 45.6136 8.00397 45.4926 8.04748 45.4654C8.12714 45.4156 8.06753 45.321 8.13611 45.2818C8.39881 45.1317 8.67271 44.6636 8.84515 44.4145C8.9486 44.2651 9.03112 44.0703 9.15852 43.9429C9.32171 43.7797 9.58891 43.564 9.69979 43.3699C9.83508 43.1332 10.0632 42.7901 10.2696 42.6482C10.3319 42.6054 10.5401 42.3833 10.5513 42.3444C10.6041 42.1595 10.8105 42.0957 10.8963 41.9455C11.0834 41.6181 11.3276 41.3762 11.5673 41.1099C11.684 40.9803 11.7519 40.805 11.8776 40.6794C11.9755 40.5814 12.0301 40.3945 12.1498 40.3122C12.3628 40.1658 12.4288 39.7033 12.6372 39.5842C12.7392 39.5259 12.7927 39.2546 12.8905 39.2423C12.9407 39.2361 13.0988 38.9584 13.131 38.9005C13.4725 38.2858 13.9975 37.707 14.4731 37.1785C14.6745 36.9548 14.9033 36.6406 15.141 36.4505C15.3506 36.2829 15.6832 35.9472 15.8089 35.7098C15.9626 35.4195 16.3341 35.2544 16.5084 34.9406C16.6871 34.6191 16.9112 34.2641 17.1384 33.972C17.3262 33.7305 17.3982 33.3989 17.6068 33.1902C17.7942 33.0028 17.9628 32.7025 18.1323 32.4907C18.5653 31.9493 19.0518 31.5883 19.4965 31.0694C19.7265 30.8011 20.0433 30.6096 20.2847 30.3414C20.5172 30.0831 20.7214 29.7071 20.9494 29.4139C21.1437 29.1642 21.2544 28.9882 21.4496 28.7714C21.6105 28.5926 22.0067 28.5079 22.0067 28.2459" stroke="#3D60E0" stroke-width="3" stroke-linecap="round"/>
<path d="M4.68588 50.1248C4.71044 49.9283 4.99201 49.6834 5.08472 49.498" stroke="#3D60E0" stroke-width="3" stroke-linecap="round"/>
<path d="M5.99634 49.0992C5.99634 48.9493 6.16056 48.8278 6.22424 48.7004" stroke="#3D60E0" stroke-width="3" stroke-linecap="round"/>
<path d="M16.5511 33.9194C16.6641 33.8596 16.7636 33.7144 16.8392 33.611C16.9287 33.4886 17.0874 33.3619 17.2059 33.2705C17.3118 33.1888 17.4113 33.1239 17.5318 33.0668C17.7127 32.9811 17.9788 33.031 18.1749 33.0086C18.4326 32.9791 18.8187 33.0755 19.0072 32.8398C19.0255 32.817 19.0392 32.6461 19.0392 32.6099C19.0392 32.5276 19.0916 32.478 19.0916 32.4004" stroke="#3D60E0" stroke-width="3" stroke-linecap="round"/>
<path d="M20.5321 27.5813C20.5902 27.516 20.5583 27.352 20.5583 27.2728C20.5583 27.1774 20.5844 27.0391 20.5525 26.9469C20.4944 26.7792 20.3549 26.5745 20.2178 26.4667C20.0595 26.3424 19.9845 26.1585 19.8104 26.0477C19.5794 25.9007 19.4161 25.6352 19.1964 25.4657C19.0332 25.3398 18.8733 25.19 18.6988 25.0874C18.6211 25.0417 18.5025 24.9067 18.4572 24.8313C18.3819 24.7057 18.2419 24.581 18.1371 24.4763C17.7035 24.0427 17.3222 23.603 16.9847 23.0969C16.8133 22.8397 16.6104 22.6382 16.394 22.4218C16.1555 22.1833 15.9331 21.8649 15.7523 21.5837C15.4505 21.1141 15.1044 20.678 14.7964 20.2159C14.498 19.7684 14.0632 19.4551 13.7109 19.0708C13.5736 18.9211 13.4151 18.7269 13.2642 18.6096C13.0982 18.4804 12.9629 18.2443 12.7797 18.1527" stroke="#3D60E0" stroke-width="3" stroke-linecap="round"/>
<path d="M12.0201 17.3932C11.9256 17.2882 11.8613 17.1017 11.7975 16.9741C11.7333 16.8457 11.6141 16.7491 11.5283 16.6337C11.4151 16.4812 11.2235 16.3778 11.1035 16.2277C10.9281 16.0086 10.7168 15.8187 10.4953 15.6384C10.2912 15.4723 10.1459 15.2669 9.9249 15.1248C9.83754 15.0686 9.73809 14.9394 9.66299 14.8643C9.54742 14.7488 9.43169 14.6052 9.34288 14.4657C9.19155 14.2279 8.94046 14.0258 8.82489 13.7658C8.71544 13.5195 8.42966 13.3534 8.28071 13.1299C8.15725 12.9448 7.91721 12.7549 7.74962 12.612C7.63293 12.5124 7.46201 12.3914 7.36986 12.2729C7.29732 12.1797 7.18109 12.1089 7.09631 12.0241C6.96254 11.8904 6.83079 11.7467 6.70491 11.6051C6.61199 11.5005 6.51724 11.3765 6.44155 11.2588C6.31533 11.0624 6.15544 10.8894 6.02832 10.6942C5.95354 10.5794 5.85286 10.4754 5.77369 10.361C5.71161 10.2714 5.66744 10.15 5.59035 10.0729C5.50038 9.98295 5.4298 9.8075 5.36773 9.69316C5.32176 9.60848 5.22127 9.52963 5.21059 9.43707C5.19525 9.30414 5.05746 9.12735 4.99961 9.00202C4.93179 8.85507 4.83158 8.7121 4.7377 8.57715C4.56113 8.32332 4.30703 8.11334 4.06984 7.91802C3.9964 7.85753 3.97146 7.74675 3.89524 7.68812C3.75785 7.58244 3.66782 7.44033 3.54894 7.32145C3.50146 7.27397 3.44028 7.27963 3.37725 7.25161C3.30725 7.2205 3.27214 7.12648 3.19392 7.12648" stroke="#3D60E0" stroke-width="3" stroke-linecap="round"/>
<path d="M2.59156 7.15265C2.59156 7.41023 2.82727 7.66517 2.82727 7.92527C2.82727 8.0841 2.90584 8.23842 2.90584 8.3967C2.90584 8.54551 2.93204 8.6807 2.93204 8.82884C2.93204 9.66201 3.03566 10.4883 2.92622 11.3228C2.87916 11.6816 2.87965 12.0301 2.87965 12.3922C2.87965 12.6629 2.87965 12.9335 2.87965 13.2041C2.87965 13.3758 2.90584 13.5471 2.90584 13.7207C2.90584 13.7898 2.891 13.9764 2.93786 14.035C2.97337 14.0793 2.95823 14.1567 2.95823 14.2139C2.95823 14.3538 3.01061 14.4812 3.01061 14.617C3.01061 14.7843 3.06299 14.962 3.06299 15.1306C3.06299 15.588 3.06299 16.0453 3.06299 16.5027" stroke="#3D60E0" stroke-width="3" stroke-linecap="round"/>
<path d="M2.93201 16.7384C2.98827 16.872 2.96598 17.041 2.99021 17.1837C3.01825 17.3488 3.05988 17.5117 3.06296 17.6813C3.06878 18.0012 3.11535 18.3161 3.11535 18.6372C3.11535 19.1623 3.19392 19.6963 3.19392 20.2218C3.19392 20.5446 3.18783 20.8681 3.19392 21.1908C3.20021 21.5244 3.29868 21.8371 3.29868 22.1715C3.29868 22.9089 3.40344 23.6508 3.40344 24.3861C3.40344 25.5063 3.39733 26.637 3.25212 27.7443C3.21491 28.028 3.30988 28.3529 3.2332 28.629C3.1964 28.7615 3.22717 28.9117 3.21865 29.048C3.2094 29.1961 3.19392 29.3381 3.19392 29.4874C3.19392 29.9554 3.08916 30.4135 3.08916 30.8813" stroke="#3D60E0" stroke-width="3" stroke-linecap="round"/>
<path d="M3.0106 31.6146C3.05779 31.6736 3.06298 31.9003 3.06298 31.9813C3.06298 32.1531 3.08448 32.3218 3.08917 32.4906C3.09221 32.6 3.08917 32.7099 3.08917 32.8194C3.08917 32.9955 3.14155 33.1608 3.14155 33.3374C3.14155 34.5596 3.33141 35.7758 3.37581 36.9968C3.38846 37.3447 3.37726 37.6948 3.37726 38.043C3.37726 38.2646 3.32488 38.4771 3.32488 38.6963C3.32488 38.8633 3.2725 39.0315 3.2725 39.1968C3.2725 39.3943 3.19393 39.5874 3.19393 39.7832C3.19393 39.9542 3.15566 40.1387 3.14009 40.3099C3.122 40.509 3.10974 40.7141 3.08771 40.9123C3.04323 41.3127 3.06298 41.7238 3.06298 42.1287C3.06298 43.7731 3.0106 45.4092 3.0106 47.0525C3.0106 48.0613 3.11536 49.0199 3.11536 50.0266" stroke="#3D60E0" stroke-width="3" stroke-linecap="round"/>
<path d="M4.08439 46.8575C4.22009 46.8575 4.33444 46.7385 4.42487 46.648C4.58953 46.4834 4.66735 46.2684 4.81773 46.0966C5.25606 45.5956 5.72236 45.1255 6.21892 44.6721C6.37339 44.5311 6.62488 44.3944 6.62488 44.173C6.62488 44.0609 6.48277 44.0204 6.39789 43.9882C6.08482 43.8695 5.7815 43.844 5.44921 43.8194C5.23349 43.8035 5.02249 43.7932 4.80609 43.7932C4.72647 43.7932 4.70905 43.7301 4.67513 43.6623C4.50089 43.3138 5.15135 42.9597 5.38228 42.8664C5.71084 42.7336 6.15716 42.798 6.50266 42.798C6.98864 42.798 7.47462 42.798 7.9606 42.798C8.23414 42.798 8.63187 42.8356 8.87145 42.6671C8.99404 42.5808 8.91846 42.3448 8.84526 42.2596C8.58419 41.9558 7.98025 41.856 7.61139 41.7969C6.87558 41.679 6.15348 41.6131 5.41138 41.5525C5.34954 41.5474 4.60168 41.568 4.71297 41.4157C4.76152 41.3493 4.90241 41.3149 4.97633 41.2935C5.16342 41.2393 5.35392 41.1918 5.54233 41.1422C6.98185 40.7629 8.50515 41.0265 9.96563 40.761C10.0011 40.7545 10.5543 40.6239 10.4371 40.5922C9.92069 40.4526 9.36229 40.4504 8.83362 40.3885C7.90887 40.2802 6.97476 40.2568 6.0516 40.1469C5.8066 40.1178 5.96807 39.9847 6.10107 39.9374C6.35498 39.8472 6.63831 39.8473 6.90424 39.8254C7.33305 39.79 7.75085 39.7302 8.17594 39.6668C9.27029 39.5035 10.4391 39.4906 11.4847 39.1051C11.709 39.0224 11.9508 38.9491 12.1656 38.8432C12.3132 38.7705 12.0805 38.7607 12.0187 38.7516C11.5593 38.6838 11.0861 38.6857 10.6233 38.6541C9.83812 38.6003 9.05215 38.5561 8.26615 38.5158C7.47693 38.4755 6.68829 38.4256 5.90027 38.366C5.47935 38.3341 5.04084 38.3161 4.63148 38.2045C4.56749 38.187 4.52203 38.1367 4.61984 38.1157C4.89816 38.0561 5.18679 38.0313 5.46813 37.9906C6.71582 37.8099 7.97922 37.7099 9.23375 37.5875C9.68336 37.5437 11.0314 37.4289 10.5797 37.4289C9.32909 37.4289 8.0833 37.3991 6.8344 37.3256C6.51743 37.307 6.19579 37.3089 5.88281 37.2514C5.7643 37.2297 5.91415 37.2225 5.95847 37.2194C6.40271 37.1888 6.84633 37.1754 7.29128 37.1612C7.99156 37.1388 8.68668 37.0512 9.38362 36.9851C10.5536 36.8742 11.7978 36.8579 12.9121 36.4497C12.9498 36.4359 13.3969 36.2745 13.1231 36.3144C12.668 36.3806 12.2107 36.4172 11.751 36.4322C9.92396 36.4918 8.12652 36.3662 6.30768 36.2009C6.0022 36.1731 5.63653 36.1876 5.34445 36.0728C5.32489 36.0652 5.38344 36.0563 5.40411 36.0525C5.56279 36.0232 5.72384 36.0047 5.88427 35.9885C6.61857 35.914 7.36077 35.9008 8.09737 35.8575C9.36918 35.7827 10.6396 35.706 11.9081 35.5854C12.4967 35.5294 13.0853 35.4741 13.676 35.4443C13.731 35.4415 13.8206 35.4271 13.8782 35.4399C13.956 35.4572 13.7238 35.4796 13.6454 35.4937C13.005 35.609 12.3551 35.631 11.7059 35.6422C10.6511 35.6603 9.59711 35.6425 8.54552 35.5549C7.48484 35.4665 6.41782 35.3093 5.35318 35.2813C4.98255 35.2716 6.09453 35.2622 6.46482 35.2435C7.87087 35.1725 9.24293 34.9752 10.6291 34.7371C10.7736 34.7123 10.9178 34.6861 11.0613 34.6556C11.1005 34.6473 11.1393 34.6362 11.1791 34.6309C11.1888 34.6296 11.1622 34.6409 11.1529 34.644C10.6714 34.8045 10.1429 34.8632 9.64262 34.9292C8.65792 35.0591 7.65949 35.0951 6.66707 35.0951C5.73201 35.0951 4.79153 35.0918 3.85741 35.0456C3.62616 35.0342 2.93329 34.9932 3.16481 34.9932C3.46467 34.9932 3.76392 34.968 4.06402 34.967C5.63286 34.9619 7.20405 34.9968 8.77251 34.9612C10.0123 34.933 11.2481 34.7342 12.4828 34.6265C12.6654 34.6106 12.8985 34.6189 13.0721 34.5494C13.2561 34.4758 12.6775 34.5849 12.4799 34.6004C11.3107 34.6915 10.1339 34.7083 8.96166 34.7051C8.61532 34.7042 8.26413 34.7022 7.9184 34.6775C7.78063 34.6676 7.98504 34.6009 8.01007 34.5945C8.47166 34.477 8.93693 34.4475 9.40981 34.401C10.3158 34.312 11.218 34.1893 12.1249 34.1086C12.8125 34.0473 13.498 33.9855 14.1881 33.9703C14.2012 33.97 14.5468 33.9456 14.3715 33.9456C13.7529 33.9456 13.1419 34.0745 12.5207 34.0765C11.7845 34.079 11.0489 34.0503 10.3178 34.0503" stroke="#3D60E0" stroke-width="3" stroke-linecap="round"/>
<path d="M4.13679 33.16C4.37084 33.16 4.60128 33.1076 4.83666 33.1076C5.36126 33.1076 5.87887 33.1419 6.40228 33.1585C7.55658 33.1951 8.71762 33.16 9.87253 33.16C10.2512 33.16 10.632 33.1713 11.0104 33.1541C11.4332 33.1349 11.8379 33.0381 12.2501 32.9504C12.8527 32.8223 13.423 32.7745 14.0368 32.7671C14.624 32.76 15.2372 32.5996 15.8062 32.4586C16.2353 32.3523 16.7159 32.3212 17.1273 32.1647C17.58 31.9925 18.104 31.7189 18.3859 31.3135C18.4982 31.1521 18.6702 30.9585 18.7002 30.7635C18.7374 30.522 18.5377 30.5351 18.3277 30.5002C17.645 30.3864 16.9382 30.4361 16.2485 30.4361C15.8741 30.4361 15.5112 30.4363 15.1427 30.5089C14.9021 30.5563 14.6635 30.6141 14.4239 30.666C13.9604 30.7664 13.4429 30.825 12.9688 30.829C12.4934 30.833 12.0326 30.9276 11.5604 30.9745C10.827 31.0474 10.0709 31.0661 9.33417 31.0909C8.43041 31.1213 7.53422 31.1695 6.62926 31.1695C5.89847 31.1695 5.14382 31.2009 4.45399 30.9207C4.10564 30.7791 4.16702 30.287 4.35214 30.0375C4.8215 29.4048 5.60734 29.0339 6.36299 28.9171C6.95172 28.8261 7.59817 28.8828 8.19197 28.8923C9.30822 28.9102 10.4223 29.0414 11.5356 29.1135C12.8585 29.1992 14.1688 29.2624 15.4962 29.2168C16.1448 29.1946 16.7913 29.1221 17.4402 29.1019C18.2798 29.0756 19.26 29.0933 20.0287 28.709C20.133 28.6568 20.2224 28.6133 20.1756 28.4835C20.0447 28.1198 19.7327 27.7611 19.3652 27.6367C18.8785 27.4719 18.3578 27.4353 17.8548 27.3456C17.3436 27.2545 16.8332 27.2671 16.3154 27.2671C15.0639 27.2671 13.8222 27.1372 12.5731 27.0896C11.1481 27.0352 9.7309 26.9836 8.30692 27.0575C7.63357 27.0925 6.96173 27.0874 6.28878 27.1114C6.01059 27.1213 5.7375 27.1452 5.45796 27.1347C5.14932 27.123 4.85836 27.0388 4.55584 27.0052C4.46601 26.9952 4.56506 26.6588 4.58785 26.6123C4.73183 26.3188 4.96144 26.1232 5.16405 25.8732C5.45702 25.5115 5.81284 25.232 6.26987 25.1398C6.85956 25.0209 7.46723 25.1193 8.05665 25.1835C9.09721 25.2968 10.1148 25.5106 11.1471 25.6782C12.5969 25.9135 14.0786 25.8763 15.5399 25.8004C15.6825 25.793 17.0674 25.7039 16.88 25.329C16.7192 25.0074 16.4078 24.7467 16.1379 24.5229C15.7325 24.1868 15.2504 24.0691 14.7382 23.9932C13.5878 23.8228 12.4138 23.8361 11.2519 23.8361C9.46506 23.8361 7.72168 23.3048 5.93667 23.2585C5.58891 23.2494 5.24649 23.1674 4.90214 23.1552C4.76479 23.1502 4.78115 23.0482 4.75955 22.9456C4.68336 22.5838 5.13585 22.3183 5.39976 22.1599C6.00877 21.7945 6.79184 21.7639 7.48046 21.767C8.37265 21.7711 9.24481 21.9848 10.1344 22.0348C10.6598 22.0643 11.1724 22.156 11.7001 22.1599C12.1981 22.1636 12.6937 22.2123 13.1929 22.2123C13.3452 22.2123 13.4938 22.2081 13.644 22.1803C13.7079 22.1684 13.7617 22.1337 13.8273 22.1337" stroke="#3D60E0" stroke-width="3" stroke-linecap="round"/>
<path d="M12.4654 21.6885C12.4654 21.5053 12.4688 21.3217 12.4654 21.1385C12.4609 20.9013 12.3335 20.6713 12.3097 20.4328C12.2864 20.1999 12.0074 20.1692 11.8295 20.1025C11.5717 20.0058 11.2804 19.9666 11.0089 19.9221C10.6903 19.8698 10.3801 19.8474 10.0588 19.8813C9.45513 19.9451 8.82728 19.9862 8.23997 20.1491C8.07556 20.1946 7.93171 20.2915 7.77145 20.3469C7.58855 20.4102 7.40267 20.4604 7.21272 20.4968C6.58406 20.6172 5.88001 20.7383 5.24842 20.5739C5.04523 20.521 5.00338 20.4862 4.92249 20.3149C4.81359 20.0843 4.81773 19.8563 4.81773 19.6049C4.81773 19.3615 4.74997 18.9951 4.85847 18.7682C5.03608 18.3969 5.6852 18.4429 6.01086 18.4408C6.6828 18.4367 7.30721 18.52 7.96933 18.6125C8.23813 18.6501 8.55249 18.6921 8.82489 18.6751C9.0059 18.6638 9.1913 18.5917 9.36471 18.5442C9.64501 18.4674 9.94048 18.3938 10.2014 18.2633C10.483 18.1225 10.5585 17.8562 10.5928 17.562C10.6219 17.3117 10.5645 16.936 10.3541 16.7646C10.1791 16.622 9.95114 16.5959 9.73283 16.5828C9.03888 16.5411 8.34751 16.4988 7.65214 16.4824C7.06821 16.4686 6.46411 16.4384 5.88573 16.5348C5.52612 16.5947 5.18765 16.7004 4.84392 16.817C4.56984 16.9101 4.29803 17.0004 4.00582 17.0004C3.78853 17.0004 3.6339 16.8922 3.61442 16.6584C3.60342 16.5264 3.59389 16.3671 3.67117 16.2539C3.79473 16.073 4.01212 15.8984 4.2008 15.7898C4.62749 15.5442 5.17884 15.5599 5.65583 15.5599C5.94393 15.5599 6.23202 15.5599 6.52012 15.5599C6.71616 15.5599 6.94909 15.5951 7.1356 15.5191C7.4407 15.3948 7.51536 15.0924 7.51536 14.7858C7.51536 14.3297 7.22004 14.2268 6.81695 14.2242C5.82179 14.2177 4.81019 14.2967 3.82831 14.1107C3.71671 14.0895 3.38825 14.0715 3.33069 13.9302C3.2921 13.8355 3.35967 13.7067 3.39035 13.6218C3.53914 13.2097 3.75693 12.5856 4.24154 12.4869C4.60942 12.4119 5.05103 12.4262 5.42594 12.4432C5.68786 12.4551 5.99248 12.5724 5.97885 12.8768C5.97473 12.9687 5.91395 13.1541 5.79842 13.1751C5.67763 13.197 5.48623 13.0019 5.40411 12.9379C5.21534 12.7907 5.0392 12.6385 4.87011 12.4694" stroke="#3D60E0" stroke-width="3" stroke-linecap="round"/>
<path d="M2.32442 54.1809C2.33149 54.1103 2.41214 54.0472 2.44923 53.9915C2.4694 53.9613 2.5791 53.6907 2.58801 53.6922C2.59408 53.6932 2.52366 53.8327 2.5208 53.8388C2.46374 53.9614 2.42308 54.0933 2.37941 54.2211C2.32114 54.3916 2.27987 54.5683 2.17081 54.7151C2.12812 54.7725 2.18351 54.5226 2.19176 54.4951C2.22901 54.371 2.30087 54.259 2.33664 54.1338C2.35306 54.0763 2.39069 54.1131 2.38639 54.1582C2.38079 54.2171 2.34148 54.2555 2.32442 54.3066" stroke="white" stroke-linecap="round"/>
<path d="M1.88455 54.7465C1.78439 54.734 1.96834 54.4438 1.99103 54.4201C2.06775 54.34 2.11432 54.2323 2.16908 54.1365C2.30031 53.9068 2.45974 53.7105 2.63515 53.5124C2.69586 53.4438 2.7513 53.3708 2.81146 53.3021C2.81299 53.3003 2.84779 53.2627 2.83066 53.2907C2.78798 53.3606 2.73857 53.4252 2.69799 53.4967C2.58598 53.6941 2.48195 53.8966 2.37244 54.0954C2.27414 54.2739 2.1974 54.4831 2.18479 54.6881C2.18402 54.7005 2.16069 54.8669 2.21447 54.8373C2.28509 54.7985 2.34456 54.6825 2.39426 54.6209C2.44304 54.5603 2.49551 54.494 2.5374 54.4288C2.57384 54.3721 2.58812 54.2959 2.62293 54.2359C2.71085 54.0845 2.78003 53.8854 2.78003 53.7097" stroke="#3D60E0" stroke-linecap="round"/>
<path d="M2.08984 4.83303C2.10187 4.95333 2.15006 5.10381 2.19492 5.21597C2.24235 5.33456 2.27128 5.50193 2.35253 5.60124C2.43168 5.69798 2.53116 5.90532 2.53116 6.03088" stroke="#3D60E0" stroke-linecap="round"/>
<path d="M25 28.4151L0.999998 58V2L25 28.4151Z" stroke="black"/>
</svg>
