<svg width="42" height="40" viewBox="0 0 42 40" fill="none" xmlns="http://www.w3.org/2000/svg">
<path d="M18.333 0.105532C14.5429 0.574464 11.0729 1.95781 8.03759 4.19305C7.07778 4.90427 5.44529 6.43611 4.64955 7.37397C2.38539 10.0469 0.884153 13.2044 0.244281 16.6432C0.014584 17.8624 -0.0756543 20.7932 0.0720083 22.1297C0.424758 25.2481 1.56504 28.304 3.33699 30.8987C4.14094 32.071 4.84643 32.9073 5.9457 33.978C9.38296 37.3387 13.7226 39.3707 18.6611 39.9178C19.7604 40.0429 22.4347 40.0194 23.6242 39.8866C29.7604 39.1597 35.2403 35.885 38.6612 30.8987C40.3839 28.3899 41.4832 25.506 41.8769 22.497C42.041 21.2309 42.041 18.769 41.8769 17.4951C41.1222 11.696 37.6932 6.45956 32.525 3.22393C29.826 1.53577 26.8236 0.488493 23.6242 0.105532C22.3773 -0.0351476 19.5143 -0.0351476 18.333 0.105532ZM17.1188 9.8046L17.5044 10.5549L17.8736 10.508C18.0787 10.4846 18.8662 10.422 19.6209 10.3751C20.9335 10.2814 22.6234 10.3361 24.1246 10.5158L24.5102 10.5549L24.8793 9.8046C25.3141 8.92926 25.2157 8.96834 26.5364 9.2497C27.7341 9.50761 29.0877 9.91402 30.3839 10.4064C31.5816 10.8597 31.5324 10.8128 32.4511 12.2743C34.3872 15.3771 35.5521 18.6205 35.9704 22.0672C36.0935 23.1066 36.1345 25.9749 36.0443 26.8581L35.9869 27.327L34.7891 28.0851C33.3863 28.9683 31.0894 30.0703 29.5963 30.5783C29.0221 30.7815 28.4971 30.9378 28.4314 30.9378C28.3166 30.9378 27.6439 29.9843 27.0697 29.0308C26.8072 28.5931 26.8072 28.5619 26.9466 28.4681C27.0369 28.4056 27.1353 28.3587 27.1763 28.3587C27.3486 28.3587 29.2846 27.3974 29.2846 27.3114C29.2846 27.2645 29.1534 27.1238 28.9893 27.0066L28.7022 26.7799L27.9064 27.0926C23.3781 28.8745 18.6693 28.8745 14.0918 27.0926L13.2878 26.7877L13.0007 26.9988C12.8448 27.1082 12.7136 27.2489 12.7136 27.2958C12.7136 27.4052 13.7144 27.921 14.5183 28.2414C14.8137 28.3587 15.0844 28.4759 15.1172 28.5072C15.2402 28.6244 13.7472 30.9378 13.5503 30.9378C13.3206 30.9378 11.2862 30.1875 10.2525 29.7186C8.91536 29.109 8.11962 28.6791 6.91371 27.9132L6.00313 27.3348L5.9457 26.6627C5.85546 25.631 5.9539 22.3407 6.10157 21.4419C6.4215 19.5115 6.83988 17.9796 7.50436 16.2837C8.07861 14.7987 9.62906 11.9773 10.3674 11.0551C10.5232 10.8519 10.7858 10.719 11.6225 10.3986C12.9433 9.90621 14.0425 9.57014 15.2977 9.28878C16.7825 8.95271 16.6759 8.92145 17.1188 9.8046Z" fill="#445964"/>
<path d="M15.3961 18.2063C14.584 18.386 13.9113 18.9409 13.5093 19.7459C13.2632 20.2305 13.2468 20.3321 13.2468 21.0902C13.2468 21.8483 13.2632 21.9499 13.5093 22.4345C13.6488 22.7158 13.9195 23.0988 14.1082 23.2785C15.1828 24.3024 16.8645 24.2789 17.8818 23.2316C18.0704 23.0363 18.3248 22.6767 18.4396 22.4345C18.6365 22.0359 18.6611 21.903 18.6611 21.0902C18.6611 20.2305 18.6529 20.168 18.3904 19.6678C17.8079 18.5345 16.5938 17.9405 15.3961 18.2063Z" fill="#445964"/>
<path d="M25.4208 18.2297C24.5676 18.4486 23.9933 18.9331 23.5586 19.8163C23.3617 20.2227 23.3371 20.3634 23.3371 21.0902C23.3371 21.8249 23.3617 21.9577 23.5668 22.372C23.9113 23.0832 24.2887 23.4661 24.9203 23.7631C25.9868 24.2633 27.1763 24.0601 27.972 23.2317C28.1607 23.0363 28.415 22.6768 28.5299 22.4345C28.7268 22.0359 28.7514 21.903 28.7514 21.0902C28.7514 20.2852 28.7268 20.1445 28.5381 19.7616C28.1443 18.9644 27.5701 18.4798 26.7415 18.2454C26.2247 18.0969 25.9376 18.0969 25.4208 18.2297Z" fill="#445964"/>
</svg>
