<svg width="396" height="79" viewBox="0 0 396 79" fill="none" xmlns="http://www.w3.org/2000/svg">
<path d="M19.18 64V44.47L0.7 15.98H11.2L23.87 36.28H24.22L36.75 15.98H46.69L28.28 44.47V64H19.18ZM64.2059 64L46.7059 15.98H56.5759L67.9859 49.02C68.1725 49.4867 68.3592 50.0233 68.5459 50.63C68.7325 51.2367 68.9192 51.82 69.1059 52.38C69.2925 52.8933 69.4559 53.36 69.5959 53.78H69.9459C70.0859 53.4067 70.2259 52.9633 70.3659 52.45C70.5525 51.9367 70.7392 51.4 70.9259 50.84C71.1125 50.2333 71.2992 49.65 71.4859 49.09L82.8259 15.98H92.2759L74.7759 64H64.2059ZM98.2888 64V15.98H135.739V23.75H107.389V35.58H132.659V43.35H107.389V56.23H136.159V64H98.2888ZM163.24 64.84C160.58 64.84 158.037 64.56 155.61 64C153.183 63.3933 151.037 62.4833 149.17 61.27C147.303 60.01 145.833 58.47 144.76 56.65C143.687 54.7833 143.15 52.59 143.15 50.07C143.15 49.79 143.15 49.51 143.15 49.23C143.197 48.95 143.22 48.74 143.22 48.6H152.39C152.39 48.6933 152.367 48.88 152.32 49.16C152.32 49.3933 152.32 49.6033 152.32 49.79C152.32 51.33 152.763 52.66 153.65 53.78C154.537 54.8533 155.82 55.6933 157.5 56.3C159.18 56.86 161.163 57.14 163.45 57.14C164.99 57.14 166.343 57.0467 167.51 56.86C168.723 56.6733 169.75 56.4167 170.59 56.09C171.477 55.7167 172.2 55.2967 172.76 54.83C173.32 54.3167 173.717 53.7567 173.95 53.15C174.23 52.5433 174.37 51.89 174.37 51.19C174.37 49.8367 173.95 48.7167 173.11 47.83C172.27 46.9433 171.127 46.1967 169.68 45.59C168.28 44.9833 166.67 44.4467 164.85 43.98C163.077 43.4667 161.233 42.9533 159.32 42.44C157.453 41.9267 155.61 41.32 153.79 40.62C152.017 39.8733 150.407 38.9867 148.96 37.96C147.56 36.9333 146.44 35.65 145.6 34.11C144.76 32.5233 144.34 30.6333 144.34 28.44C144.34 26.2 144.807 24.24 145.74 22.56C146.72 20.88 148.073 19.5033 149.8 18.43C151.573 17.31 153.627 16.4933 155.96 15.98C158.293 15.42 160.837 15.14 163.59 15.14C166.157 15.14 168.56 15.42 170.8 15.98C173.087 16.4933 175.093 17.3333 176.82 18.5C178.547 19.62 179.9 21.0667 180.88 22.84C181.86 24.5667 182.35 26.6433 182.35 29.07V29.91H173.32V29.21C173.32 27.8567 172.9 26.7133 172.06 25.78C171.267 24.8467 170.123 24.1233 168.63 23.61C167.183 23.0967 165.48 22.84 163.52 22.84C161.42 22.84 159.623 23.05 158.13 23.47C156.637 23.8433 155.493 24.4267 154.7 25.22C153.907 25.9667 153.51 26.9 153.51 28.02C153.51 29.1867 153.93 30.1667 154.77 30.96C155.61 31.7533 156.73 32.43 158.13 32.99C159.577 33.55 161.187 34.0633 162.96 34.53C164.78 34.9967 166.623 35.51 168.49 36.07C170.403 36.5833 172.247 37.19 174.02 37.89C175.84 38.59 177.45 39.4767 178.85 40.55C180.297 41.5767 181.44 42.86 182.28 44.4C183.12 45.94 183.54 47.7833 183.54 49.93C183.54 53.5233 182.653 56.4167 180.88 58.61C179.153 60.8033 176.75 62.39 173.67 63.37C170.637 64.35 167.16 64.84 163.24 64.84Z" fill="white"/>
<path d="M316.046 60.79L282.866 47.07V38.6L316.046 24.81V32.51L289.516 42.8L316.046 53.16V60.79ZM356.796 60.79V53.16L383.326 42.8L356.796 32.51V24.81L389.976 38.6V47.07L356.796 60.79Z" fill="#3D60E0"/>
<path d="M352.13 2.23901L350.634 22.2286L325.682 76.1463L323.518 53.0078L352.13 2.23901Z" fill="#3D60E0"/>
<path d="M316.643 5L325.202 13.5378L339.955 46.0344L328.497 37.915L316.643 5Z" fill="#3D60E0"/>
<path d="M191.045 64V58.88H196.125V64H191.045ZM209.517 64.48C207.811 64.48 206.331 64.0933 205.077 63.32C203.824 62.5467 202.851 61.3467 202.157 59.72C201.491 58.0933 201.157 56 201.157 53.44C201.157 50.9067 201.504 48.84 202.197 47.24C202.891 45.6133 203.851 44.4133 205.077 43.64C206.304 42.8667 207.691 42.48 209.237 42.48C210.197 42.48 211.077 42.5867 211.877 42.8C212.677 43.0133 213.384 43.3467 213.997 43.8C214.611 44.2267 215.131 44.76 215.557 45.4H215.797V35.08H220.677V64H216.637L216.237 61.2H215.957C215.291 62.2933 214.384 63.12 213.237 63.68C212.117 64.2133 210.877 64.48 209.517 64.48ZM211.037 60.28C212.157 60.28 213.064 60.0267 213.757 59.52C214.451 59.0133 214.957 58.28 215.277 57.32C215.624 56.36 215.797 55.1867 215.797 53.8V53.28C215.797 52.24 215.704 51.3067 215.517 50.48C215.331 49.6533 215.037 48.96 214.637 48.4C214.264 47.84 213.771 47.4133 213.157 47.12C212.571 46.8267 211.864 46.68 211.037 46.68C209.837 46.68 208.877 46.92 208.157 47.4C207.464 47.8533 206.957 48.5733 206.637 49.56C206.344 50.52 206.197 51.7467 206.197 53.24V53.8C206.197 55.2667 206.344 56.48 206.637 57.44C206.957 58.4 207.464 59.12 208.157 59.6C208.877 60.0533 209.837 60.28 211.037 60.28ZM234.909 64.48C232.669 64.48 230.803 64.0933 229.309 63.32C227.816 62.52 226.696 61.3067 225.949 59.68C225.203 58.0533 224.829 55.9867 224.829 53.48C224.829 50.9467 225.203 48.88 225.949 47.28C226.696 45.6533 227.816 44.4533 229.309 43.68C230.803 42.88 232.669 42.48 234.909 42.48C236.936 42.48 238.629 42.8667 239.989 43.64C241.376 44.3867 242.416 45.5467 243.109 47.12C243.803 48.6933 244.149 50.7333 244.149 53.24V54.68H229.829C229.883 55.9867 230.083 57.0933 230.429 58C230.776 58.88 231.309 59.5467 232.029 60C232.776 60.4267 233.749 60.64 234.949 60.64C235.563 60.64 236.136 60.56 236.669 60.4C237.203 60.24 237.669 60 238.069 59.68C238.469 59.3333 238.776 58.9067 238.989 58.4C239.229 57.8933 239.349 57.3067 239.349 56.64H244.149C244.149 57.9733 243.909 59.1333 243.429 60.12C242.976 61.1067 242.323 61.92 241.469 62.56C240.643 63.2 239.669 63.68 238.549 64C237.429 64.32 236.216 64.48 234.909 64.48ZM229.909 51.24H239.069C239.069 50.36 238.963 49.6133 238.749 49C238.563 48.3867 238.283 47.88 237.909 47.48C237.563 47.08 237.136 46.8 236.629 46.64C236.123 46.4533 235.549 46.36 234.909 46.36C233.869 46.36 232.989 46.5333 232.269 46.88C231.576 47.2267 231.043 47.76 230.669 48.48C230.296 49.2 230.043 50.12 229.909 51.24ZM253.691 64L245.891 42.96H251.011L254.411 52.44C254.571 52.8933 254.758 53.5067 254.971 54.28C255.211 55.0267 255.451 55.8133 255.691 56.64C255.931 57.44 256.131 58.1733 256.291 58.84H256.491C256.651 58.2267 256.838 57.52 257.051 56.72C257.264 55.92 257.478 55.1333 257.691 54.36C257.931 53.5867 258.144 52.9467 258.331 52.44L261.691 42.96H266.651L258.811 64H253.691Z" fill="white"/>
</svg>
