<svg width="452" height="252" viewBox="0 0 452 252" fill="none" xmlns="http://www.w3.org/2000/svg">
<path d="M38.794 129V122.367H36.209V121.454H42.446V122.367H39.839V129H38.794ZM43.5382 131.002C43.3622 131.002 43.2082 130.987 43.0762 130.958C42.9515 130.936 42.8672 130.921 42.8232 130.914V130.21H43.3072C43.4832 130.21 43.6555 130.173 43.8242 130.1C43.9928 130.027 44.1505 129.902 44.2972 129.726C44.4438 129.55 44.5685 129.308 44.6712 129L42.4272 123.214H43.4392L44.5942 126.195C44.6455 126.334 44.7042 126.507 44.7702 126.712C44.8435 126.91 44.9132 127.115 44.9792 127.328C45.0525 127.541 45.1112 127.728 45.1552 127.889H45.2212C45.2505 127.772 45.2872 127.64 45.3312 127.493C45.3752 127.346 45.4192 127.196 45.4632 127.042C45.5145 126.881 45.5622 126.73 45.6062 126.591C45.6575 126.444 45.6978 126.316 45.7272 126.206L46.7062 123.214H47.6852L45.7272 128.835C45.6172 129.15 45.4962 129.44 45.3642 129.704C45.2322 129.975 45.0855 130.206 44.9242 130.397C44.7628 130.588 44.5685 130.734 44.3412 130.837C44.1138 130.947 43.8462 131.002 43.5382 131.002ZM48.5861 130.903V123.214H49.3561L49.4551 124.039H49.5321C49.7301 123.716 49.9831 123.478 50.2911 123.324C50.5991 123.163 50.9475 123.082 51.3361 123.082C51.8201 123.082 52.2308 123.188 52.5681 123.401C52.9055 123.614 53.1658 123.947 53.3491 124.402C53.5325 124.849 53.6241 125.432 53.6241 126.151C53.6241 126.826 53.5288 127.387 53.3381 127.834C53.1548 128.274 52.8945 128.6 52.5571 128.813C52.2198 129.026 51.8275 129.132 51.3801 129.132C51.1308 129.132 50.8961 129.103 50.6761 129.044C50.4561 128.985 50.2581 128.894 50.0821 128.769C49.9061 128.637 49.7521 128.472 49.6201 128.274H49.5541V130.903H48.5861ZM51.0721 128.285C51.4315 128.285 51.7248 128.215 51.9521 128.076C52.1795 127.929 52.3481 127.706 52.4581 127.405C52.5681 127.097 52.6231 126.705 52.6231 126.228V125.997C52.6231 125.491 52.5645 125.088 52.4471 124.787C52.3298 124.479 52.1575 124.259 51.9301 124.127C51.7101 123.995 51.4351 123.929 51.1051 123.929C50.7458 123.929 50.4488 124.01 50.2141 124.171C49.9868 124.325 49.8181 124.56 49.7081 124.875C49.6055 125.19 49.5541 125.575 49.5541 126.03V126.195C49.5541 126.598 49.5908 126.936 49.6641 127.207C49.7448 127.471 49.8548 127.684 49.9941 127.845C50.1408 128.006 50.3058 128.12 50.4891 128.186C50.6725 128.252 50.8668 128.285 51.0721 128.285ZM57.1374 129.132C56.5654 129.132 56.0814 129.026 55.6854 128.813C55.2967 128.593 54.9997 128.259 54.7944 127.812C54.5964 127.365 54.4974 126.796 54.4974 126.107C54.4974 125.41 54.5964 124.842 54.7944 124.402C54.9997 123.955 55.3004 123.625 55.6964 123.412C56.0924 123.192 56.5874 123.082 57.1814 123.082C57.724 123.082 58.1787 123.188 58.5454 123.401C58.912 123.606 59.187 123.918 59.3704 124.336C59.561 124.747 59.6564 125.264 59.6564 125.887V126.349H55.4984C55.513 126.811 55.579 127.192 55.6964 127.493C55.821 127.786 56.0044 128.003 56.2464 128.142C56.4884 128.274 56.7927 128.34 57.1594 128.34C57.4087 128.34 57.625 128.311 57.8084 128.252C57.999 128.186 58.1567 128.094 58.2814 127.977C58.4134 127.86 58.5124 127.72 58.5784 127.559C58.6444 127.398 58.681 127.222 58.6884 127.031H59.6344C59.627 127.339 59.5684 127.625 59.4584 127.889C59.3484 128.146 59.187 128.366 58.9744 128.549C58.7617 128.732 58.5014 128.875 58.1934 128.978C57.8854 129.081 57.5334 129.132 57.1374 129.132ZM55.5204 125.623H58.6554C58.6554 125.3 58.6187 125.029 58.5454 124.809C58.472 124.589 58.3657 124.409 58.2264 124.27C58.0944 124.131 57.9367 124.032 57.7534 123.973C57.5774 123.907 57.3757 123.874 57.1484 123.874C56.811 123.874 56.525 123.936 56.2904 124.061C56.0557 124.186 55.876 124.376 55.7514 124.633C55.6267 124.89 55.5497 125.22 55.5204 125.623ZM62.8777 129.132C62.4817 129.132 62.1334 129.092 61.8327 129.011C61.5321 128.93 61.2827 128.813 61.0847 128.659C60.8867 128.505 60.7364 128.322 60.6337 128.109C60.5311 127.896 60.4797 127.654 60.4797 127.383C60.4797 127.346 60.4797 127.313 60.4797 127.284C60.4797 127.247 60.4834 127.218 60.4907 127.196H61.4477C61.4404 127.225 61.4367 127.251 61.4367 127.273C61.4367 127.295 61.4367 127.317 61.4367 127.339C61.4441 127.596 61.5101 127.797 61.6347 127.944C61.7667 128.091 61.9464 128.193 62.1737 128.252C62.4011 128.311 62.6541 128.34 62.9327 128.34C63.1747 128.34 63.3984 128.311 63.6037 128.252C63.8091 128.186 63.9704 128.091 64.0877 127.966C64.2124 127.834 64.2747 127.669 64.2747 127.471C64.2747 127.229 64.1941 127.046 64.0327 126.921C63.8787 126.789 63.6734 126.686 63.4167 126.613C63.1601 126.54 62.8924 126.463 62.6137 126.382C62.3791 126.316 62.1444 126.243 61.9097 126.162C61.6751 126.081 61.4624 125.982 61.2717 125.865C61.0884 125.748 60.9381 125.597 60.8207 125.414C60.7107 125.223 60.6557 124.985 60.6557 124.699C60.6557 124.442 60.7071 124.215 60.8097 124.017C60.9197 123.819 61.0737 123.65 61.2717 123.511C61.4697 123.372 61.7081 123.269 61.9867 123.203C62.2727 123.13 62.5881 123.093 62.9327 123.093C63.2994 123.093 63.6184 123.133 63.8897 123.214C64.1684 123.295 64.3994 123.408 64.5827 123.555C64.7661 123.702 64.9017 123.87 64.9897 124.061C65.0777 124.244 65.1217 124.442 65.1217 124.655C65.1217 124.699 65.1217 124.743 65.1217 124.787C65.1217 124.824 65.1181 124.853 65.1107 124.875H64.1647V124.754C64.1647 124.607 64.1244 124.468 64.0437 124.336C63.9704 124.197 63.8384 124.087 63.6477 124.006C63.4644 123.918 63.2077 123.874 62.8777 123.874C62.6651 123.874 62.4817 123.892 62.3277 123.929C62.1737 123.958 62.0454 124.01 61.9427 124.083C61.8401 124.149 61.7631 124.23 61.7117 124.325C61.6604 124.413 61.6347 124.516 61.6347 124.633C61.6347 124.824 61.6971 124.97 61.8217 125.073C61.9464 125.176 62.1114 125.26 62.3167 125.326C62.5294 125.392 62.7567 125.465 62.9987 125.546C63.2554 125.619 63.5157 125.696 63.7797 125.777C64.0511 125.85 64.2967 125.946 64.5167 126.063C64.7441 126.18 64.9237 126.342 65.0557 126.547C65.1951 126.745 65.2647 127.009 65.2647 127.339C65.2647 127.647 65.2061 127.915 65.0887 128.142C64.9714 128.369 64.8027 128.556 64.5827 128.703C64.3701 128.85 64.1171 128.956 63.8237 129.022C63.5377 129.095 63.2224 129.132 62.8777 129.132ZM68.6611 129.132C68.1038 129.132 67.6345 129.026 67.2531 128.813C66.8791 128.593 66.5931 128.259 66.3951 127.812C66.2045 127.357 66.1091 126.789 66.1091 126.107C66.1091 125.425 66.2045 124.86 66.3951 124.413C66.5931 123.966 66.8828 123.632 67.2641 123.412C67.6528 123.192 68.1295 123.082 68.6941 123.082C69.0901 123.082 69.4311 123.133 69.7171 123.236C70.0105 123.339 70.2525 123.489 70.4431 123.687C70.6338 123.885 70.7731 124.123 70.8611 124.402C70.9565 124.681 71.0041 125 71.0041 125.359H70.0251C70.0251 125.022 69.9775 124.747 69.8821 124.534C69.7941 124.314 69.6511 124.153 69.4531 124.05C69.2551 123.94 68.9948 123.885 68.6721 123.885C68.3495 123.885 68.0708 123.958 67.8361 124.105C67.6015 124.244 67.4218 124.468 67.2971 124.776C67.1725 125.084 67.1101 125.491 67.1101 125.997V126.228C67.1101 126.705 67.1688 127.101 67.2861 127.416C67.4108 127.731 67.5905 127.962 67.8251 128.109C68.0598 128.256 68.3458 128.329 68.6831 128.329C69.0131 128.329 69.2771 128.27 69.4751 128.153C69.6805 128.036 69.8271 127.867 69.9151 127.647C70.0105 127.427 70.0581 127.163 70.0581 126.855H71.0041C71.0041 127.178 70.9565 127.478 70.8611 127.757C70.7731 128.036 70.6338 128.278 70.4431 128.483C70.2525 128.688 70.0105 128.85 69.7171 128.967C69.4238 129.077 69.0718 129.132 68.6611 129.132ZM72.1653 129V123.214H72.9463L73.0343 124.171H73.1113C73.1699 123.988 73.2506 123.815 73.3533 123.654C73.4559 123.485 73.5953 123.35 73.7713 123.247C73.9473 123.137 74.1636 123.082 74.4203 123.082C74.5303 123.082 74.6293 123.093 74.7173 123.115C74.8126 123.13 74.8823 123.148 74.9263 123.17V124.061H74.5633C74.3139 124.061 74.0976 124.105 73.9143 124.193C73.7383 124.274 73.5916 124.391 73.4743 124.545C73.3569 124.699 73.2689 124.882 73.2103 125.095C73.1589 125.308 73.1333 125.535 73.1333 125.777V129H72.1653ZM75.8176 122.125V121.047H76.7856V122.125H75.8176ZM75.8176 129V123.214H76.7856V129H75.8176ZM78.2883 130.903V123.214H79.0583L79.1573 124.039H79.2343C79.4323 123.716 79.6853 123.478 79.9933 123.324C80.3013 123.163 80.6496 123.082 81.0383 123.082C81.5223 123.082 81.933 123.188 82.2703 123.401C82.6076 123.614 82.868 123.947 83.0513 124.402C83.2346 124.849 83.3263 125.432 83.3263 126.151C83.3263 126.826 83.231 127.387 83.0403 127.834C82.857 128.274 82.5966 128.6 82.2593 128.813C81.922 129.026 81.5296 129.132 81.0823 129.132C80.833 129.132 80.5983 129.103 80.3783 129.044C80.1583 128.985 79.9603 128.894 79.7843 128.769C79.6083 128.637 79.4543 128.472 79.3223 128.274H79.2563V130.903H78.2883ZM80.7743 128.285C81.1336 128.285 81.427 128.215 81.6543 128.076C81.8816 127.929 82.0503 127.706 82.1603 127.405C82.2703 127.097 82.3253 126.705 82.3253 126.228V125.997C82.3253 125.491 82.2666 125.088 82.1493 124.787C82.032 124.479 81.8596 124.259 81.6323 124.127C81.4123 123.995 81.1373 123.929 80.8073 123.929C80.448 123.929 80.151 124.01 79.9163 124.171C79.689 124.325 79.5203 124.56 79.4103 124.875C79.3076 125.19 79.2563 125.575 79.2563 126.03V126.195C79.2563 126.598 79.293 126.936 79.3663 127.207C79.447 127.471 79.557 127.684 79.6963 127.845C79.843 128.006 80.008 128.12 80.1913 128.186C80.3746 128.252 80.569 128.285 80.7743 128.285ZM85.8825 129.132C85.5818 129.132 85.3472 129.077 85.1785 128.967C85.0098 128.85 84.8888 128.699 84.8155 128.516C84.7422 128.325 84.7055 128.124 84.7055 127.911V124.028H83.9575V123.214H84.7275L84.9035 121.597H85.6735V123.214H86.7625V124.028H85.6735V127.768C85.6735 127.951 85.7065 128.091 85.7725 128.186C85.8385 128.274 85.9632 128.318 86.1465 128.318H86.7625V128.956C86.6892 128.993 86.6012 129.022 86.4985 129.044C86.3958 129.066 86.2895 129.084 86.1795 129.099C86.0768 129.121 85.9778 129.132 85.8825 129.132Z" fill="white"/>
<path d="M19.806 81V66.594H21.801V79.257H28.962V81H19.806ZM30.7078 67.875V65.817H32.5558V67.875H30.7078ZM30.7078 81V69.954H32.5558V81H30.7078ZM35.4246 81V69.954H36.9156L37.0836 71.613H37.2306C37.5246 71.165 37.8536 70.801 38.2176 70.521C38.5956 70.241 39.0086 70.038 39.4566 69.912C39.9186 69.772 40.4086 69.702 40.9266 69.702C41.6266 69.702 42.2356 69.821 42.7536 70.059C43.2856 70.297 43.6986 70.682 43.9926 71.214C44.3006 71.746 44.4546 72.467 44.4546 73.377V81H42.6066V73.629C42.6066 73.167 42.5436 72.789 42.4176 72.495C42.3056 72.201 42.1446 71.97 41.9346 71.802C41.7386 71.634 41.4936 71.515 41.1996 71.445C40.9196 71.375 40.6046 71.34 40.2546 71.34C39.7366 71.34 39.2466 71.466 38.7846 71.718C38.3226 71.97 37.9516 72.334 37.6716 72.81C37.4056 73.286 37.2726 73.853 37.2726 74.511V81H35.4246ZM49.1266 84.822C48.5946 84.822 48.1046 84.71 47.6566 84.486C47.2086 84.276 46.8516 83.968 46.5856 83.562C46.3196 83.156 46.1866 82.673 46.1866 82.113C46.1866 81.497 46.3546 80.986 46.6906 80.58C47.0406 80.174 47.4536 79.873 47.9296 79.677C47.5796 79.509 47.3066 79.278 47.1106 78.984C46.9146 78.676 46.8166 78.34 46.8166 77.976C46.8166 77.486 46.9916 77.073 47.3416 76.737C47.7056 76.401 48.1466 76.177 48.6646 76.065C48.1886 75.757 47.8106 75.365 47.5306 74.889C47.2646 74.399 47.1316 73.86 47.1316 73.272C47.1316 72.572 47.2926 71.956 47.6146 71.424C47.9506 70.892 48.4546 70.472 49.1266 70.164C49.8126 69.856 50.6456 69.702 51.6256 69.702C52.0736 69.702 52.4936 69.737 52.8856 69.807C53.2776 69.863 53.6276 69.961 53.9356 70.101C54.4256 69.877 54.7896 69.59 55.0276 69.24C55.2796 68.89 55.4336 68.533 55.4896 68.169H57.3166C57.3166 68.589 57.2186 68.988 57.0226 69.366C56.8406 69.73 56.5886 70.038 56.2666 70.29C55.9446 70.528 55.5526 70.689 55.0906 70.773C55.4406 71.109 55.6996 71.487 55.8676 71.907C56.0496 72.327 56.1406 72.782 56.1406 73.272C56.1406 73.972 55.9726 74.595 55.6366 75.141C55.3146 75.673 54.8246 76.093 54.1666 76.401C53.5086 76.709 52.6826 76.863 51.6886 76.863H49.9666C49.5886 76.863 49.2806 76.94 49.0426 77.094C48.8046 77.234 48.6856 77.465 48.6856 77.787C48.6856 78.067 48.8046 78.298 49.0426 78.48C49.2806 78.648 49.5886 78.732 49.9666 78.732H54.4606C55.2726 78.732 55.9376 79.005 56.4556 79.551C56.9736 80.083 57.2326 80.769 57.2326 81.609C57.2326 82.211 57.0786 82.75 56.7706 83.226C56.4766 83.716 56.0566 84.101 55.5106 84.381C54.9786 84.675 54.3556 84.822 53.6416 84.822H49.1266ZM49.6516 83.415H53.6206C53.9426 83.415 54.2366 83.345 54.5026 83.205C54.7686 83.079 54.9786 82.897 55.1326 82.659C55.2866 82.421 55.3636 82.162 55.3636 81.882C55.3636 81.406 55.2236 81.028 54.9436 80.748C54.6636 80.468 54.3136 80.328 53.8936 80.328H49.6516C49.2036 80.328 48.8256 80.482 48.5176 80.79C48.2096 81.084 48.0556 81.448 48.0556 81.882C48.0556 82.344 48.2096 82.715 48.5176 82.995C48.8256 83.275 49.2036 83.415 49.6516 83.415ZM51.6466 75.477C52.5426 75.477 53.2076 75.281 53.6416 74.889C54.0756 74.497 54.2926 73.958 54.2926 73.272C54.2926 72.6 54.0756 72.068 53.6416 71.676C53.2076 71.284 52.5426 71.088 51.6466 71.088C50.7506 71.088 50.0786 71.284 49.6306 71.676C49.1966 72.068 48.9796 72.6 48.9796 73.272C48.9796 73.706 49.0776 74.091 49.2736 74.427C49.4696 74.763 49.7636 75.022 50.1556 75.204C50.5476 75.386 51.0446 75.477 51.6466 75.477ZM62.3495 81.252C61.2855 81.252 60.4315 80.979 59.7875 80.433C59.1435 79.887 58.8215 78.935 58.8215 77.577V69.954H60.6695V77.325C60.6695 77.787 60.7255 78.165 60.8375 78.459C60.9495 78.753 61.1105 78.984 61.3205 79.152C61.5305 79.32 61.7755 79.439 62.0555 79.509C62.3495 79.579 62.6645 79.614 63.0005 79.614C63.5325 79.614 64.0225 79.488 64.4705 79.236C64.9185 78.984 65.2825 78.62 65.5625 78.144C65.8565 77.654 66.0035 77.087 66.0035 76.443V69.954H67.8515V81H66.3605L66.1925 79.341H66.0455C65.7515 79.789 65.4155 80.153 65.0375 80.433C64.6735 80.713 64.2605 80.916 63.7985 81.042C63.3505 81.182 62.8675 81.252 62.3495 81.252ZM73.4905 81.252C73.0845 81.252 72.6785 81.203 72.2725 81.105C71.8665 81.007 71.4885 80.846 71.1385 80.622C70.7885 80.398 70.5085 80.09 70.2985 79.698C70.0885 79.292 69.9835 78.788 69.9835 78.186C69.9835 77.43 70.1655 76.807 70.5295 76.317C70.8935 75.827 71.3975 75.449 72.0415 75.183C72.6995 74.903 73.4765 74.714 74.3725 74.616C75.2685 74.504 76.2415 74.448 77.2915 74.448V73.188C77.2915 72.782 77.2215 72.432 77.0815 72.138C76.9415 71.844 76.6895 71.62 76.3255 71.466C75.9755 71.298 75.4715 71.214 74.8135 71.214C74.1835 71.214 73.6795 71.298 73.3015 71.466C72.9375 71.62 72.6785 71.823 72.5245 72.075C72.3845 72.327 72.3145 72.607 72.3145 72.915V73.23H70.5295C70.5155 73.16 70.5085 73.09 70.5085 73.02C70.5085 72.95 70.5085 72.866 70.5085 72.768C70.5085 72.096 70.6905 71.536 71.0545 71.088C71.4325 70.626 71.9575 70.283 72.6295 70.059C73.3015 69.821 74.0715 69.702 74.9395 69.702C75.8635 69.702 76.6335 69.835 77.2495 70.101C77.8795 70.367 78.3485 70.745 78.6565 71.235C78.9785 71.725 79.1395 72.313 79.1395 72.999V78.984C79.1395 79.25 79.2025 79.439 79.3285 79.551C79.4545 79.649 79.6085 79.698 79.7905 79.698H80.6095V80.916C80.4135 81 80.1965 81.07 79.9585 81.126C79.7205 81.196 79.4475 81.231 79.1395 81.231C78.7755 81.231 78.4745 81.154 78.2365 81C77.9985 80.86 77.8165 80.664 77.6905 80.412C77.5645 80.146 77.4805 79.852 77.4385 79.53H77.2915C77.0395 79.88 76.7175 80.188 76.3255 80.454C75.9475 80.706 75.5205 80.902 75.0445 81.042C74.5685 81.182 74.0505 81.252 73.4905 81.252ZM73.9525 79.698C74.4005 79.698 74.8205 79.628 75.2125 79.488C75.6185 79.348 75.9755 79.152 76.2835 78.9C76.5915 78.634 76.8365 78.319 77.0185 77.955C77.2005 77.591 77.2915 77.192 77.2915 76.758V75.834C76.1575 75.834 75.1915 75.897 74.3935 76.023C73.5955 76.149 72.9795 76.373 72.5455 76.695C72.1255 77.017 71.9155 77.472 71.9155 78.06C71.9155 78.438 71.9995 78.746 72.1675 78.984C72.3355 79.222 72.5735 79.404 72.8815 79.53C73.1895 79.642 73.5465 79.698 73.9525 79.698ZM84.0309 84.822C83.4989 84.822 83.0089 84.71 82.5609 84.486C82.1129 84.276 81.7559 83.968 81.4899 83.562C81.2239 83.156 81.0909 82.673 81.0909 82.113C81.0909 81.497 81.2589 80.986 81.5949 80.58C81.9449 80.174 82.3579 79.873 82.8339 79.677C82.4839 79.509 82.2109 79.278 82.0149 78.984C81.8189 78.676 81.7209 78.34 81.7209 77.976C81.7209 77.486 81.8959 77.073 82.2459 76.737C82.6099 76.401 83.0509 76.177 83.5689 76.065C83.0929 75.757 82.7149 75.365 82.4349 74.889C82.1689 74.399 82.0359 73.86 82.0359 73.272C82.0359 72.572 82.1969 71.956 82.5189 71.424C82.8549 70.892 83.3589 70.472 84.0309 70.164C84.7169 69.856 85.5499 69.702 86.5299 69.702C86.9779 69.702 87.3979 69.737 87.7899 69.807C88.1819 69.863 88.5319 69.961 88.8399 70.101C89.3299 69.877 89.6939 69.59 89.9319 69.24C90.1839 68.89 90.3379 68.533 90.3939 68.169H92.2209C92.2209 68.589 92.1229 68.988 91.9269 69.366C91.7449 69.73 91.4929 70.038 91.1709 70.29C90.8489 70.528 90.4569 70.689 89.9949 70.773C90.3449 71.109 90.6039 71.487 90.7719 71.907C90.9539 72.327 91.0449 72.782 91.0449 73.272C91.0449 73.972 90.8769 74.595 90.5409 75.141C90.2189 75.673 89.7289 76.093 89.0709 76.401C88.4129 76.709 87.5869 76.863 86.5929 76.863H84.8709C84.4929 76.863 84.1849 76.94 83.9469 77.094C83.7089 77.234 83.5899 77.465 83.5899 77.787C83.5899 78.067 83.7089 78.298 83.9469 78.48C84.1849 78.648 84.4929 78.732 84.8709 78.732H89.3649C90.1769 78.732 90.8419 79.005 91.3599 79.551C91.8779 80.083 92.1369 80.769 92.1369 81.609C92.1369 82.211 91.9829 82.75 91.6749 83.226C91.3809 83.716 90.9609 84.101 90.4149 84.381C89.8829 84.675 89.2599 84.822 88.5459 84.822H84.0309ZM84.5559 83.415H88.5249C88.8469 83.415 89.1409 83.345 89.4069 83.205C89.6729 83.079 89.8829 82.897 90.0369 82.659C90.1909 82.421 90.2679 82.162 90.2679 81.882C90.2679 81.406 90.1279 81.028 89.8479 80.748C89.5679 80.468 89.2179 80.328 88.7979 80.328H84.5559C84.1079 80.328 83.7299 80.482 83.4219 80.79C83.1139 81.084 82.9599 81.448 82.9599 81.882C82.9599 82.344 83.1139 82.715 83.4219 82.995C83.7299 83.275 84.1079 83.415 84.5559 83.415ZM86.5509 75.477C87.4469 75.477 88.1119 75.281 88.5459 74.889C88.9799 74.497 89.1969 73.958 89.1969 73.272C89.1969 72.6 88.9799 72.068 88.5459 71.676C88.1119 71.284 87.4469 71.088 86.5509 71.088C85.6549 71.088 84.9829 71.284 84.5349 71.676C84.1009 72.068 83.8839 72.6 83.8839 73.272C83.8839 73.706 83.9819 74.091 84.1779 74.427C84.3739 74.763 84.6679 75.022 85.0599 75.204C85.4519 75.386 85.9489 75.477 86.5509 75.477ZM98.2408 81.252C97.1488 81.252 96.2248 81.049 95.4688 80.643C94.7268 80.223 94.1598 79.586 93.7678 78.732C93.3898 77.878 93.2008 76.793 93.2008 75.477C93.2008 74.147 93.3898 73.062 93.7678 72.222C94.1598 71.368 94.7338 70.738 95.4898 70.332C96.2458 69.912 97.1908 69.702 98.3248 69.702C99.3608 69.702 100.229 69.905 100.929 70.311C101.629 70.703 102.154 71.298 102.504 72.096C102.868 72.88 103.05 73.867 103.05 75.057V75.939H95.1118C95.1398 76.821 95.2658 77.549 95.4898 78.123C95.7278 78.683 96.0778 79.096 96.5398 79.362C97.0018 79.614 97.5828 79.74 98.2828 79.74C98.7588 79.74 99.1718 79.684 99.5218 79.572C99.8858 79.446 100.187 79.271 100.425 79.047C100.677 78.823 100.866 78.557 100.992 78.249C101.118 77.941 101.188 77.605 101.202 77.241H103.008C102.994 77.829 102.882 78.375 102.672 78.879C102.462 79.369 102.154 79.789 101.748 80.139C101.342 80.489 100.845 80.762 100.257 80.958C99.6688 81.154 98.9968 81.252 98.2408 81.252ZM95.1538 74.553H101.139C101.139 73.937 101.069 73.419 100.929 72.999C100.789 72.579 100.586 72.236 100.32 71.97C100.068 71.704 99.7668 71.515 99.4168 71.403C99.0808 71.277 98.6958 71.214 98.2618 71.214C97.6178 71.214 97.0718 71.333 96.6238 71.571C96.1758 71.809 95.8328 72.173 95.5948 72.663C95.3568 73.153 95.2098 73.783 95.1538 74.553ZM105.336 81V69.954H106.827L106.995 71.613H107.142C107.436 71.165 107.765 70.801 108.129 70.521C108.507 70.241 108.92 70.038 109.368 69.912C109.83 69.772 110.32 69.702 110.838 69.702C111.538 69.702 112.147 69.821 112.665 70.059C113.197 70.297 113.61 70.682 113.904 71.214C114.212 71.746 114.366 72.467 114.366 73.377V81H112.518V73.629C112.518 73.167 112.455 72.789 112.329 72.495C112.217 72.201 112.056 71.97 111.846 71.802C111.65 71.634 111.405 71.515 111.111 71.445C110.831 71.375 110.516 71.34 110.166 71.34C109.648 71.34 109.158 71.466 108.696 71.718C108.234 71.97 107.863 72.334 107.583 72.81C107.317 73.286 107.184 73.853 107.184 74.511V81H105.336ZM121.033 81.252C120.277 81.252 119.612 81.175 119.038 81.021C118.464 80.867 117.988 80.643 117.61 80.349C117.232 80.055 116.945 79.705 116.749 79.299C116.553 78.893 116.455 78.431 116.455 77.913C116.455 77.843 116.455 77.78 116.455 77.724C116.455 77.654 116.462 77.598 116.476 77.556H118.303C118.289 77.612 118.282 77.661 118.282 77.703C118.282 77.745 118.282 77.787 118.282 77.829C118.296 78.319 118.422 78.704 118.66 78.984C118.912 79.264 119.255 79.46 119.689 79.572C120.123 79.684 120.606 79.74 121.138 79.74C121.6 79.74 122.027 79.684 122.419 79.572C122.811 79.446 123.119 79.264 123.343 79.026C123.581 78.774 123.7 78.459 123.7 78.081C123.7 77.619 123.546 77.269 123.238 77.031C122.944 76.779 122.552 76.583 122.062 76.443C121.572 76.303 121.061 76.156 120.529 76.002C120.081 75.876 119.633 75.736 119.185 75.582C118.737 75.428 118.331 75.239 117.967 75.015C117.617 74.791 117.33 74.504 117.106 74.154C116.896 73.79 116.791 73.335 116.791 72.789C116.791 72.299 116.889 71.865 117.085 71.487C117.295 71.109 117.589 70.787 117.967 70.521C118.345 70.255 118.8 70.059 119.332 69.933C119.878 69.793 120.48 69.723 121.138 69.723C121.838 69.723 122.447 69.8 122.965 69.954C123.497 70.108 123.938 70.325 124.288 70.605C124.638 70.885 124.897 71.207 125.065 71.571C125.233 71.921 125.317 72.299 125.317 72.705C125.317 72.789 125.317 72.873 125.317 72.957C125.317 73.027 125.31 73.083 125.296 73.125H123.49V72.894C123.49 72.614 123.413 72.348 123.259 72.096C123.119 71.83 122.867 71.62 122.503 71.466C122.153 71.298 121.663 71.214 121.033 71.214C120.627 71.214 120.277 71.249 119.983 71.319C119.689 71.375 119.444 71.473 119.248 71.613C119.052 71.739 118.905 71.893 118.807 72.075C118.709 72.243 118.66 72.439 118.66 72.663C118.66 73.027 118.779 73.307 119.017 73.503C119.255 73.699 119.57 73.86 119.962 73.986C120.368 74.112 120.802 74.252 121.264 74.406C121.754 74.546 122.251 74.693 122.755 74.847C123.273 74.987 123.742 75.169 124.162 75.393C124.596 75.617 124.939 75.925 125.191 76.317C125.457 76.695 125.59 77.199 125.59 77.829C125.59 78.417 125.478 78.928 125.254 79.362C125.03 79.796 124.708 80.153 124.288 80.433C123.882 80.713 123.399 80.916 122.839 81.042C122.293 81.182 121.691 81.252 121.033 81.252ZM132.262 81V69.954H133.753L133.921 71.613H134.068C134.348 71.165 134.663 70.801 135.013 70.521C135.363 70.241 135.748 70.038 136.168 69.912C136.588 69.772 137.043 69.702 137.533 69.702C138.247 69.702 138.863 69.849 139.381 70.143C139.899 70.423 140.284 70.913 140.536 71.613H140.662C140.928 71.165 141.236 70.808 141.586 70.542C141.936 70.262 142.328 70.052 142.762 69.912C143.196 69.772 143.658 69.702 144.148 69.702C144.82 69.702 145.408 69.821 145.912 70.059C146.416 70.283 146.808 70.661 147.088 71.193C147.382 71.711 147.529 72.411 147.529 73.293V81H145.681V73.587C145.681 73.139 145.625 72.768 145.513 72.474C145.415 72.18 145.268 71.956 145.072 71.802C144.876 71.634 144.645 71.515 144.379 71.445C144.127 71.375 143.854 71.34 143.56 71.34C143.07 71.34 142.615 71.466 142.195 71.718C141.789 71.97 141.46 72.334 141.208 72.81C140.956 73.286 140.83 73.853 140.83 74.511V81H138.982V73.587C138.982 73.139 138.926 72.768 138.814 72.474C138.702 72.18 138.555 71.956 138.373 71.802C138.191 71.634 137.967 71.515 137.701 71.445C137.449 71.375 137.183 71.34 136.903 71.34C136.399 71.34 135.93 71.466 135.496 71.718C135.076 71.97 134.74 72.334 134.488 72.81C134.236 73.286 134.11 73.853 134.11 74.511V81H132.262ZM153.102 81.252C152.696 81.252 152.29 81.203 151.884 81.105C151.478 81.007 151.1 80.846 150.75 80.622C150.4 80.398 150.12 80.09 149.91 79.698C149.7 79.292 149.595 78.788 149.595 78.186C149.595 77.43 149.777 76.807 150.141 76.317C150.505 75.827 151.009 75.449 151.653 75.183C152.311 74.903 153.088 74.714 153.984 74.616C154.88 74.504 155.853 74.448 156.903 74.448V73.188C156.903 72.782 156.833 72.432 156.693 72.138C156.553 71.844 156.301 71.62 155.937 71.466C155.587 71.298 155.083 71.214 154.425 71.214C153.795 71.214 153.291 71.298 152.913 71.466C152.549 71.62 152.29 71.823 152.136 72.075C151.996 72.327 151.926 72.607 151.926 72.915V73.23H150.141C150.127 73.16 150.12 73.09 150.12 73.02C150.12 72.95 150.12 72.866 150.12 72.768C150.12 72.096 150.302 71.536 150.666 71.088C151.044 70.626 151.569 70.283 152.241 70.059C152.913 69.821 153.683 69.702 154.551 69.702C155.475 69.702 156.245 69.835 156.861 70.101C157.491 70.367 157.96 70.745 158.268 71.235C158.59 71.725 158.751 72.313 158.751 72.999V78.984C158.751 79.25 158.814 79.439 158.94 79.551C159.066 79.649 159.22 79.698 159.402 79.698H160.221V80.916C160.025 81 159.808 81.07 159.57 81.126C159.332 81.196 159.059 81.231 158.751 81.231C158.387 81.231 158.086 81.154 157.848 81C157.61 80.86 157.428 80.664 157.302 80.412C157.176 80.146 157.092 79.852 157.05 79.53H156.903C156.651 79.88 156.329 80.188 155.937 80.454C155.559 80.706 155.132 80.902 154.656 81.042C154.18 81.182 153.662 81.252 153.102 81.252ZM153.564 79.698C154.012 79.698 154.432 79.628 154.824 79.488C155.23 79.348 155.587 79.152 155.895 78.9C156.203 78.634 156.448 78.319 156.63 77.955C156.812 77.591 156.903 77.192 156.903 76.758V75.834C155.769 75.834 154.803 75.897 154.005 76.023C153.207 76.149 152.591 76.373 152.157 76.695C151.737 77.017 151.527 77.472 151.527 78.06C151.527 78.438 151.611 78.746 151.779 78.984C151.947 79.222 152.185 79.404 152.493 79.53C152.801 79.642 153.158 79.698 153.564 79.698ZM161.773 67.875V65.817H163.621V67.875H161.773ZM161.773 81V69.954H163.621V81H161.773ZM170.354 81.252C169.598 81.252 168.933 81.175 168.359 81.021C167.785 80.867 167.309 80.643 166.931 80.349C166.553 80.055 166.266 79.705 166.07 79.299C165.874 78.893 165.776 78.431 165.776 77.913C165.776 77.843 165.776 77.78 165.776 77.724C165.776 77.654 165.783 77.598 165.797 77.556H167.624C167.61 77.612 167.603 77.661 167.603 77.703C167.603 77.745 167.603 77.787 167.603 77.829C167.617 78.319 167.743 78.704 167.981 78.984C168.233 79.264 168.576 79.46 169.01 79.572C169.444 79.684 169.927 79.74 170.459 79.74C170.921 79.74 171.348 79.684 171.74 79.572C172.132 79.446 172.44 79.264 172.664 79.026C172.902 78.774 173.021 78.459 173.021 78.081C173.021 77.619 172.867 77.269 172.559 77.031C172.265 76.779 171.873 76.583 171.383 76.443C170.893 76.303 170.382 76.156 169.85 76.002C169.402 75.876 168.954 75.736 168.506 75.582C168.058 75.428 167.652 75.239 167.288 75.015C166.938 74.791 166.651 74.504 166.427 74.154C166.217 73.79 166.112 73.335 166.112 72.789C166.112 72.299 166.21 71.865 166.406 71.487C166.616 71.109 166.91 70.787 167.288 70.521C167.666 70.255 168.121 70.059 168.653 69.933C169.199 69.793 169.801 69.723 170.459 69.723C171.159 69.723 171.768 69.8 172.286 69.954C172.818 70.108 173.259 70.325 173.609 70.605C173.959 70.885 174.218 71.207 174.386 71.571C174.554 71.921 174.638 72.299 174.638 72.705C174.638 72.789 174.638 72.873 174.638 72.957C174.638 73.027 174.631 73.083 174.617 73.125H172.811V72.894C172.811 72.614 172.734 72.348 172.58 72.096C172.44 71.83 172.188 71.62 171.824 71.466C171.474 71.298 170.984 71.214 170.354 71.214C169.948 71.214 169.598 71.249 169.304 71.319C169.01 71.375 168.765 71.473 168.569 71.613C168.373 71.739 168.226 71.893 168.128 72.075C168.03 72.243 167.981 72.439 167.981 72.663C167.981 73.027 168.1 73.307 168.338 73.503C168.576 73.699 168.891 73.86 169.283 73.986C169.689 74.112 170.123 74.252 170.585 74.406C171.075 74.546 171.572 74.693 172.076 74.847C172.594 74.987 173.063 75.169 173.483 75.393C173.917 75.617 174.26 75.925 174.512 76.317C174.778 76.695 174.911 77.199 174.911 77.829C174.911 78.417 174.799 78.928 174.575 79.362C174.351 79.796 174.029 80.153 173.609 80.433C173.203 80.713 172.72 80.916 172.16 81.042C171.614 81.182 171.012 81.252 170.354 81.252ZM185.007 81.252C183.943 81.252 183.089 80.979 182.445 80.433C181.801 79.887 181.479 78.935 181.479 77.577V69.954H183.327V77.325C183.327 77.787 183.383 78.165 183.495 78.459C183.607 78.753 183.768 78.984 183.978 79.152C184.188 79.32 184.433 79.439 184.713 79.509C185.007 79.579 185.322 79.614 185.658 79.614C186.19 79.614 186.68 79.488 187.128 79.236C187.576 78.984 187.94 78.62 188.22 78.144C188.514 77.654 188.661 77.087 188.661 76.443V69.954H190.509V81H189.018L188.85 79.341H188.703C188.409 79.789 188.073 80.153 187.695 80.433C187.331 80.713 186.918 80.916 186.456 81.042C186.008 81.182 185.525 81.252 185.007 81.252ZM197.24 81.252C196.484 81.252 195.819 81.175 195.245 81.021C194.671 80.867 194.195 80.643 193.817 80.349C193.439 80.055 193.152 79.705 192.956 79.299C192.76 78.893 192.662 78.431 192.662 77.913C192.662 77.843 192.662 77.78 192.662 77.724C192.662 77.654 192.669 77.598 192.683 77.556H194.51C194.496 77.612 194.489 77.661 194.489 77.703C194.489 77.745 194.489 77.787 194.489 77.829C194.503 78.319 194.629 78.704 194.867 78.984C195.119 79.264 195.462 79.46 195.896 79.572C196.33 79.684 196.813 79.74 197.345 79.74C197.807 79.74 198.234 79.684 198.626 79.572C199.018 79.446 199.326 79.264 199.55 79.026C199.788 78.774 199.907 78.459 199.907 78.081C199.907 77.619 199.753 77.269 199.445 77.031C199.151 76.779 198.759 76.583 198.269 76.443C197.779 76.303 197.268 76.156 196.736 76.002C196.288 75.876 195.84 75.736 195.392 75.582C194.944 75.428 194.538 75.239 194.174 75.015C193.824 74.791 193.537 74.504 193.313 74.154C193.103 73.79 192.998 73.335 192.998 72.789C192.998 72.299 193.096 71.865 193.292 71.487C193.502 71.109 193.796 70.787 194.174 70.521C194.552 70.255 195.007 70.059 195.539 69.933C196.085 69.793 196.687 69.723 197.345 69.723C198.045 69.723 198.654 69.8 199.172 69.954C199.704 70.108 200.145 70.325 200.495 70.605C200.845 70.885 201.104 71.207 201.272 71.571C201.44 71.921 201.524 72.299 201.524 72.705C201.524 72.789 201.524 72.873 201.524 72.957C201.524 73.027 201.517 73.083 201.503 73.125H199.697V72.894C199.697 72.614 199.62 72.348 199.466 72.096C199.326 71.83 199.074 71.62 198.71 71.466C198.36 71.298 197.87 71.214 197.24 71.214C196.834 71.214 196.484 71.249 196.19 71.319C195.896 71.375 195.651 71.473 195.455 71.613C195.259 71.739 195.112 71.893 195.014 72.075C194.916 72.243 194.867 72.439 194.867 72.663C194.867 73.027 194.986 73.307 195.224 73.503C195.462 73.699 195.777 73.86 196.169 73.986C196.575 74.112 197.009 74.252 197.471 74.406C197.961 74.546 198.458 74.693 198.962 74.847C199.48 74.987 199.949 75.169 200.369 75.393C200.803 75.617 201.146 75.925 201.398 76.317C201.664 76.695 201.797 77.199 201.797 77.829C201.797 78.417 201.685 78.928 201.461 79.362C201.237 79.796 200.915 80.153 200.495 80.433C200.089 80.713 199.606 80.916 199.046 81.042C198.5 81.182 197.898 81.252 197.24 81.252ZM206.853 81.252C206.447 81.252 206.041 81.203 205.635 81.105C205.229 81.007 204.851 80.846 204.501 80.622C204.151 80.398 203.871 80.09 203.661 79.698C203.451 79.292 203.346 78.788 203.346 78.186C203.346 77.43 203.528 76.807 203.892 76.317C204.256 75.827 204.76 75.449 205.404 75.183C206.062 74.903 206.839 74.714 207.735 74.616C208.631 74.504 209.604 74.448 210.654 74.448V73.188C210.654 72.782 210.584 72.432 210.444 72.138C210.304 71.844 210.052 71.62 209.688 71.466C209.338 71.298 208.834 71.214 208.176 71.214C207.546 71.214 207.042 71.298 206.664 71.466C206.3 71.62 206.041 71.823 205.887 72.075C205.747 72.327 205.677 72.607 205.677 72.915V73.23H203.892C203.878 73.16 203.871 73.09 203.871 73.02C203.871 72.95 203.871 72.866 203.871 72.768C203.871 72.096 204.053 71.536 204.417 71.088C204.795 70.626 205.32 70.283 205.992 70.059C206.664 69.821 207.434 69.702 208.302 69.702C209.226 69.702 209.996 69.835 210.612 70.101C211.242 70.367 211.711 70.745 212.019 71.235C212.341 71.725 212.502 72.313 212.502 72.999V78.984C212.502 79.25 212.565 79.439 212.691 79.551C212.817 79.649 212.971 79.698 213.153 79.698H213.972V80.916C213.776 81 213.559 81.07 213.321 81.126C213.083 81.196 212.81 81.231 212.502 81.231C212.138 81.231 211.837 81.154 211.599 81C211.361 80.86 211.179 80.664 211.053 80.412C210.927 80.146 210.843 79.852 210.801 79.53H210.654C210.402 79.88 210.08 80.188 209.688 80.454C209.31 80.706 208.883 80.902 208.407 81.042C207.931 81.182 207.413 81.252 206.853 81.252ZM207.315 79.698C207.763 79.698 208.183 79.628 208.575 79.488C208.981 79.348 209.338 79.152 209.646 78.9C209.954 78.634 210.199 78.319 210.381 77.955C210.563 77.591 210.654 77.192 210.654 76.758V75.834C209.52 75.834 208.554 75.897 207.756 76.023C206.958 76.149 206.342 76.373 205.908 76.695C205.488 77.017 205.278 77.472 205.278 78.06C205.278 78.438 205.362 78.746 205.53 78.984C205.698 79.222 205.936 79.404 206.244 79.53C206.552 79.642 206.909 79.698 207.315 79.698ZM219.283 81.252C218.373 81.252 217.589 81.049 216.931 80.643C216.287 80.237 215.783 79.607 215.419 78.753C215.069 77.885 214.894 76.765 214.894 75.393C214.894 74.091 215.076 73.02 215.44 72.18C215.804 71.34 216.308 70.717 216.952 70.311C217.596 69.905 218.345 69.702 219.199 69.702C219.689 69.702 220.144 69.758 220.564 69.87C220.984 69.982 221.355 70.157 221.677 70.395C222.013 70.633 222.307 70.948 222.559 71.34H222.685V65.817H224.533V81H223.042L222.874 79.425H222.727C222.349 80.041 221.859 80.503 221.257 80.811C220.655 81.105 219.997 81.252 219.283 81.252ZM219.724 79.635C220.424 79.635 220.991 79.481 221.425 79.173C221.859 78.865 222.174 78.417 222.37 77.829C222.58 77.241 222.685 76.513 222.685 75.645V75.309C222.685 74.553 222.608 73.916 222.454 73.398C222.3 72.88 222.09 72.467 221.824 72.159C221.558 71.851 221.25 71.634 220.9 71.508C220.55 71.382 220.179 71.319 219.787 71.319C219.101 71.319 218.541 71.459 218.107 71.739C217.673 72.005 217.351 72.432 217.141 73.02C216.931 73.594 216.826 74.343 216.826 75.267V75.708C216.826 76.66 216.938 77.43 217.162 78.018C217.386 78.592 217.708 79.005 218.128 79.257C218.562 79.509 219.094 79.635 219.724 79.635ZM230.211 81.252C229.805 81.252 229.399 81.203 228.993 81.105C228.587 81.007 228.209 80.846 227.859 80.622C227.509 80.398 227.229 80.09 227.019 79.698C226.809 79.292 226.704 78.788 226.704 78.186C226.704 77.43 226.886 76.807 227.25 76.317C227.614 75.827 228.118 75.449 228.762 75.183C229.42 74.903 230.197 74.714 231.093 74.616C231.989 74.504 232.962 74.448 234.012 74.448V73.188C234.012 72.782 233.942 72.432 233.802 72.138C233.662 71.844 233.41 71.62 233.046 71.466C232.696 71.298 232.192 71.214 231.534 71.214C230.904 71.214 230.4 71.298 230.022 71.466C229.658 71.62 229.399 71.823 229.245 72.075C229.105 72.327 229.035 72.607 229.035 72.915V73.23H227.25C227.236 73.16 227.229 73.09 227.229 73.02C227.229 72.95 227.229 72.866 227.229 72.768C227.229 72.096 227.411 71.536 227.775 71.088C228.153 70.626 228.678 70.283 229.35 70.059C230.022 69.821 230.792 69.702 231.66 69.702C232.584 69.702 233.354 69.835 233.97 70.101C234.6 70.367 235.069 70.745 235.377 71.235C235.699 71.725 235.86 72.313 235.86 72.999V78.984C235.86 79.25 235.923 79.439 236.049 79.551C236.175 79.649 236.329 79.698 236.511 79.698H237.33V80.916C237.134 81 236.917 81.07 236.679 81.126C236.441 81.196 236.168 81.231 235.86 81.231C235.496 81.231 235.195 81.154 234.957 81C234.719 80.86 234.537 80.664 234.411 80.412C234.285 80.146 234.201 79.852 234.159 79.53H234.012C233.76 79.88 233.438 80.188 233.046 80.454C232.668 80.706 232.241 80.902 231.765 81.042C231.289 81.182 230.771 81.252 230.211 81.252ZM230.673 79.698C231.121 79.698 231.541 79.628 231.933 79.488C232.339 79.348 232.696 79.152 233.004 78.9C233.312 78.634 233.557 78.319 233.739 77.955C233.921 77.591 234.012 77.192 234.012 76.758V75.834C232.878 75.834 231.912 75.897 231.114 76.023C230.316 76.149 229.7 76.373 229.266 76.695C228.846 77.017 228.636 77.472 228.636 78.06C228.636 78.438 228.72 78.746 228.888 78.984C229.056 79.222 229.294 79.404 229.602 79.53C229.91 79.642 230.267 79.698 230.673 79.698ZM242.747 81.252C241.991 81.252 241.326 81.175 240.752 81.021C240.178 80.867 239.702 80.643 239.324 80.349C238.946 80.055 238.659 79.705 238.463 79.299C238.267 78.893 238.169 78.431 238.169 77.913C238.169 77.843 238.169 77.78 238.169 77.724C238.169 77.654 238.176 77.598 238.19 77.556H240.017C240.003 77.612 239.996 77.661 239.996 77.703C239.996 77.745 239.996 77.787 239.996 77.829C240.01 78.319 240.136 78.704 240.374 78.984C240.626 79.264 240.969 79.46 241.403 79.572C241.837 79.684 242.32 79.74 242.852 79.74C243.314 79.74 243.741 79.684 244.133 79.572C244.525 79.446 244.833 79.264 245.057 79.026C245.295 78.774 245.414 78.459 245.414 78.081C245.414 77.619 245.26 77.269 244.952 77.031C244.658 76.779 244.266 76.583 243.776 76.443C243.286 76.303 242.775 76.156 242.243 76.002C241.795 75.876 241.347 75.736 240.899 75.582C240.451 75.428 240.045 75.239 239.681 75.015C239.331 74.791 239.044 74.504 238.82 74.154C238.61 73.79 238.505 73.335 238.505 72.789C238.505 72.299 238.603 71.865 238.799 71.487C239.009 71.109 239.303 70.787 239.681 70.521C240.059 70.255 240.514 70.059 241.046 69.933C241.592 69.793 242.194 69.723 242.852 69.723C243.552 69.723 244.161 69.8 244.679 69.954C245.211 70.108 245.652 70.325 246.002 70.605C246.352 70.885 246.611 71.207 246.779 71.571C246.947 71.921 247.031 72.299 247.031 72.705C247.031 72.789 247.031 72.873 247.031 72.957C247.031 73.027 247.024 73.083 247.01 73.125H245.204V72.894C245.204 72.614 245.127 72.348 244.973 72.096C244.833 71.83 244.581 71.62 244.217 71.466C243.867 71.298 243.377 71.214 242.747 71.214C242.341 71.214 241.991 71.249 241.697 71.319C241.403 71.375 241.158 71.473 240.962 71.613C240.766 71.739 240.619 71.893 240.521 72.075C240.423 72.243 240.374 72.439 240.374 72.663C240.374 73.027 240.493 73.307 240.731 73.503C240.969 73.699 241.284 73.86 241.676 73.986C242.082 74.112 242.516 74.252 242.978 74.406C243.468 74.546 243.965 74.693 244.469 74.847C244.987 74.987 245.456 75.169 245.876 75.393C246.31 75.617 246.653 75.925 246.905 76.317C247.171 76.695 247.304 77.199 247.304 77.829C247.304 78.417 247.192 78.928 246.968 79.362C246.744 79.796 246.422 80.153 246.002 80.433C245.596 80.713 245.113 80.916 244.553 81.042C244.007 81.182 243.405 81.252 242.747 81.252Z" fill="#3D60E0"/>
<path d="M346 121.4L434.84 107C435.464 110.846 435.837 114.728 435.957 118.622L346 121.4Z" fill="#B07219"/>
<path d="M346 120L435.957 118C435.986 118.666 436 119.333 436 120H346Z" fill="#178600"/>
<path d="M346.025 120H436.025C436.025 142.989 427.228 165.107 411.438 181.815C395.648 198.524 374.063 208.557 351.111 209.856C328.159 211.155 305.579 203.622 288.005 188.802C270.431 173.981 259.194 152.998 256.6 130.156L346.025 120Z" fill="#3178C6"/>
<path d="M346 121.601L416.771 66C426.185 77.9823 432.402 92.1585 434.84 107.2L346 121.601Z" fill="#563D7C"/>
<path d="M346 121.325L367.78 34C387.181 38.8389 404.418 50.0009 416.771 65.7242L346 121.325Z" fill="#E34C26"/>
<path d="M346 121L256.575 131.156C254.935 116.716 256.816 102.093 262.058 88.5389C267.3 74.9844 275.746 62.9008 286.674 53.3211C297.602 43.7415 310.688 36.9507 324.813 33.5295C338.937 30.1082 353.68 30.1582 367.78 33.6752L346 121Z" fill="#F1E05A"/>
<circle cx="23" cy="125" r="5" fill="#3D60E0"/>
<path d="M38.794 160.132C38.288 160.132 37.8517 160.051 37.485 159.89C37.1257 159.721 36.8507 159.479 36.66 159.164C36.4767 158.841 36.385 158.438 36.385 157.954V157.624H37.43V158.009C37.43 158.405 37.5473 158.709 37.782 158.922C38.0167 159.127 38.354 159.23 38.794 159.23C39.2413 159.23 39.5823 159.087 39.817 158.801C40.059 158.515 40.18 158.09 40.18 157.525V152.454H41.225V157.47C41.225 158.064 41.1297 158.559 40.939 158.955C40.7483 159.351 40.4697 159.648 40.103 159.846C39.7437 160.037 39.3073 160.132 38.794 160.132ZM44.3555 160.132C44.1429 160.132 43.9302 160.106 43.7175 160.055C43.5049 160.004 43.3069 159.919 43.1235 159.802C42.9402 159.685 42.7935 159.523 42.6835 159.318C42.5735 159.105 42.5185 158.841 42.5185 158.526C42.5185 158.13 42.6139 157.804 42.8045 157.547C42.9952 157.29 43.2592 157.092 43.5965 156.953C43.9412 156.806 44.3482 156.707 44.8175 156.656C45.2869 156.597 45.7965 156.568 46.3465 156.568V155.908C46.3465 155.695 46.3099 155.512 46.2365 155.358C46.1632 155.204 46.0312 155.087 45.8405 155.006C45.6572 154.918 45.3932 154.874 45.0485 154.874C44.7185 154.874 44.4545 154.918 44.2565 155.006C44.0659 155.087 43.9302 155.193 43.8495 155.325C43.7762 155.457 43.7395 155.604 43.7395 155.765V155.93H42.8045C42.7972 155.893 42.7935 155.857 42.7935 155.82C42.7935 155.783 42.7935 155.739 42.7935 155.688C42.7935 155.336 42.8889 155.043 43.0795 154.808C43.2775 154.566 43.5525 154.386 43.9045 154.269C44.2565 154.144 44.6599 154.082 45.1145 154.082C45.5985 154.082 46.0019 154.152 46.3245 154.291C46.6545 154.43 46.9002 154.628 47.0615 154.885C47.2302 155.142 47.3145 155.45 47.3145 155.809V158.944C47.3145 159.083 47.3475 159.182 47.4135 159.241C47.4795 159.292 47.5602 159.318 47.6555 159.318H48.0845V159.956C47.9819 160 47.8682 160.037 47.7435 160.066C47.6189 160.103 47.4759 160.121 47.3145 160.121C47.1239 160.121 46.9662 160.081 46.8415 160C46.7169 159.927 46.6215 159.824 46.5555 159.692C46.4895 159.553 46.4455 159.399 46.4235 159.23H46.3465C46.2145 159.413 46.0459 159.575 45.8405 159.714C45.6425 159.846 45.4189 159.949 45.1695 160.022C44.9202 160.095 44.6489 160.132 44.3555 160.132ZM44.5975 159.318C44.8322 159.318 45.0522 159.281 45.2575 159.208C45.4702 159.135 45.6572 159.032 45.8185 158.9C45.9799 158.761 46.1082 158.596 46.2035 158.405C46.2989 158.214 46.3465 158.005 46.3465 157.778V157.294C45.7525 157.294 45.2465 157.327 44.8285 157.393C44.4105 157.459 44.0879 157.576 43.8605 157.745C43.6405 157.914 43.5305 158.152 43.5305 158.46C43.5305 158.658 43.5745 158.819 43.6625 158.944C43.7505 159.069 43.8752 159.164 44.0365 159.23C44.1979 159.289 44.3849 159.318 44.5975 159.318ZM50.4267 160L48.2817 154.214H49.2937L50.3497 157.107C50.401 157.246 50.4597 157.422 50.5257 157.635C50.5917 157.84 50.6577 158.053 50.7237 158.273C50.797 158.486 50.8557 158.676 50.8997 158.845H50.9547C51.006 158.684 51.0647 158.497 51.1307 158.284C51.1967 158.064 51.2627 157.851 51.3287 157.646C51.402 157.433 51.4643 157.254 51.5157 157.107L52.5607 154.214H53.5397L51.3947 160H50.4267ZM55.7852 160.132C55.5726 160.132 55.3599 160.106 55.1472 160.055C54.9346 160.004 54.7366 159.919 54.5532 159.802C54.3699 159.685 54.2232 159.523 54.1132 159.318C54.0032 159.105 53.9482 158.841 53.9482 158.526C53.9482 158.13 54.0436 157.804 54.2342 157.547C54.4249 157.29 54.6889 157.092 55.0262 156.953C55.3709 156.806 55.7779 156.707 56.2472 156.656C56.7166 156.597 57.2262 156.568 57.7762 156.568V155.908C57.7762 155.695 57.7396 155.512 57.6662 155.358C57.5929 155.204 57.4609 155.087 57.2702 155.006C57.0869 154.918 56.8229 154.874 56.4782 154.874C56.1482 154.874 55.8842 154.918 55.6862 155.006C55.4956 155.087 55.3599 155.193 55.2792 155.325C55.2059 155.457 55.1692 155.604 55.1692 155.765V155.93H54.2342C54.2269 155.893 54.2232 155.857 54.2232 155.82C54.2232 155.783 54.2232 155.739 54.2232 155.688C54.2232 155.336 54.3186 155.043 54.5092 154.808C54.7072 154.566 54.9822 154.386 55.3342 154.269C55.6862 154.144 56.0896 154.082 56.5442 154.082C57.0282 154.082 57.4316 154.152 57.7542 154.291C58.0842 154.43 58.3299 154.628 58.4912 154.885C58.6599 155.142 58.7442 155.45 58.7442 155.809V158.944C58.7442 159.083 58.7772 159.182 58.8432 159.241C58.9092 159.292 58.9899 159.318 59.0852 159.318H59.5142V159.956C59.4116 160 59.2979 160.037 59.1732 160.066C59.0486 160.103 58.9056 160.121 58.7442 160.121C58.5536 160.121 58.3959 160.081 58.2712 160C58.1466 159.927 58.0512 159.824 57.9852 159.692C57.9192 159.553 57.8752 159.399 57.8532 159.23H57.7762C57.6442 159.413 57.4756 159.575 57.2702 159.714C57.0722 159.846 56.8486 159.949 56.5992 160.022C56.3499 160.095 56.0786 160.132 55.7852 160.132ZM56.0272 159.318C56.2619 159.318 56.4819 159.281 56.6872 159.208C56.8999 159.135 57.0869 159.032 57.2482 158.9C57.4096 158.761 57.5379 158.596 57.6332 158.405C57.7286 158.214 57.7762 158.005 57.7762 157.778V157.294C57.1822 157.294 56.6762 157.327 56.2582 157.393C55.8402 157.459 55.5176 157.576 55.2902 157.745C55.0702 157.914 54.9602 158.152 54.9602 158.46C54.9602 158.658 55.0042 158.819 55.0922 158.944C55.1802 159.069 55.3049 159.164 55.4662 159.23C55.6276 159.289 55.8146 159.318 56.0272 159.318ZM62.3514 160.132C61.9554 160.132 61.607 160.092 61.3064 160.011C61.0057 159.93 60.7564 159.813 60.5584 159.659C60.3604 159.505 60.21 159.322 60.1074 159.109C60.0047 158.896 59.9534 158.654 59.9534 158.383C59.9534 158.346 59.9534 158.313 59.9534 158.284C59.9534 158.247 59.957 158.218 59.9644 158.196H60.9214C60.914 158.225 60.9104 158.251 60.9104 158.273C60.9104 158.295 60.9104 158.317 60.9104 158.339C60.9177 158.596 60.9837 158.797 61.1084 158.944C61.2404 159.091 61.42 159.193 61.6474 159.252C61.8747 159.311 62.1277 159.34 62.4064 159.34C62.6484 159.34 62.872 159.311 63.0774 159.252C63.2827 159.186 63.444 159.091 63.5614 158.966C63.686 158.834 63.7484 158.669 63.7484 158.471C63.7484 158.229 63.6677 158.046 63.5064 157.921C63.3524 157.789 63.147 157.686 62.8904 157.613C62.6337 157.54 62.366 157.463 62.0874 157.382C61.8527 157.316 61.618 157.243 61.3834 157.162C61.1487 157.081 60.936 156.982 60.7454 156.865C60.562 156.748 60.4117 156.597 60.2944 156.414C60.1844 156.223 60.1294 155.985 60.1294 155.699C60.1294 155.442 60.1807 155.215 60.2834 155.017C60.3934 154.819 60.5474 154.65 60.7454 154.511C60.9434 154.372 61.1817 154.269 61.4604 154.203C61.7464 154.13 62.0617 154.093 62.4064 154.093C62.773 154.093 63.092 154.133 63.3634 154.214C63.642 154.295 63.873 154.408 64.0564 154.555C64.2397 154.702 64.3754 154.87 64.4634 155.061C64.5514 155.244 64.5954 155.442 64.5954 155.655C64.5954 155.699 64.5954 155.743 64.5954 155.787C64.5954 155.824 64.5917 155.853 64.5844 155.875H63.6384V155.754C63.6384 155.607 63.598 155.468 63.5174 155.336C63.444 155.197 63.312 155.087 63.1214 155.006C62.938 154.918 62.6814 154.874 62.3514 154.874C62.1387 154.874 61.9554 154.892 61.8014 154.929C61.6474 154.958 61.519 155.01 61.4164 155.083C61.3137 155.149 61.2367 155.23 61.1854 155.325C61.134 155.413 61.1084 155.516 61.1084 155.633C61.1084 155.824 61.1707 155.97 61.2954 156.073C61.42 156.176 61.585 156.26 61.7904 156.326C62.003 156.392 62.2304 156.465 62.4724 156.546C62.729 156.619 62.9894 156.696 63.2534 156.777C63.5247 156.85 63.7704 156.946 63.9904 157.063C64.2177 157.18 64.3974 157.342 64.5294 157.547C64.6687 157.745 64.7384 158.009 64.7384 158.339C64.7384 158.647 64.6797 158.915 64.5624 159.142C64.445 159.369 64.2764 159.556 64.0564 159.703C63.8437 159.85 63.5907 159.956 63.2974 160.022C63.0114 160.095 62.696 160.132 62.3514 160.132ZM68.1348 160.132C67.5774 160.132 67.1081 160.026 66.7268 159.813C66.3528 159.593 66.0668 159.259 65.8688 158.812C65.6781 158.357 65.5828 157.789 65.5828 157.107C65.5828 156.425 65.6781 155.86 65.8688 155.413C66.0668 154.966 66.3564 154.632 66.7378 154.412C67.1264 154.192 67.6031 154.082 68.1678 154.082C68.5638 154.082 68.9048 154.133 69.1908 154.236C69.4841 154.339 69.7261 154.489 69.9168 154.687C70.1074 154.885 70.2468 155.123 70.3348 155.402C70.4301 155.681 70.4778 156 70.4778 156.359H69.4988C69.4988 156.022 69.4511 155.747 69.3558 155.534C69.2678 155.314 69.1248 155.153 68.9268 155.05C68.7288 154.94 68.4684 154.885 68.1458 154.885C67.8231 154.885 67.5444 154.958 67.3098 155.105C67.0751 155.244 66.8954 155.468 66.7708 155.776C66.6461 156.084 66.5838 156.491 66.5838 156.997V157.228C66.5838 157.705 66.6424 158.101 66.7598 158.416C66.8844 158.731 67.0641 158.962 67.2988 159.109C67.5334 159.256 67.8194 159.329 68.1568 159.329C68.4868 159.329 68.7508 159.27 68.9488 159.153C69.1541 159.036 69.3008 158.867 69.3888 158.647C69.4841 158.427 69.5318 158.163 69.5318 157.855H70.4778C70.4778 158.178 70.4301 158.478 70.3348 158.757C70.2468 159.036 70.1074 159.278 69.9168 159.483C69.7261 159.688 69.4841 159.85 69.1908 159.967C68.8974 160.077 68.5454 160.132 68.1348 160.132ZM71.6389 160V154.214H72.4199L72.5079 155.171H72.5849C72.6435 154.988 72.7242 154.815 72.8269 154.654C72.9295 154.485 73.0689 154.35 73.2449 154.247C73.4209 154.137 73.6372 154.082 73.8939 154.082C74.0039 154.082 74.1029 154.093 74.1909 154.115C74.2862 154.13 74.3559 154.148 74.3999 154.17V155.061H74.0369C73.7875 155.061 73.5712 155.105 73.3879 155.193C73.2119 155.274 73.0652 155.391 72.9479 155.545C72.8305 155.699 72.7425 155.882 72.6839 156.095C72.6325 156.308 72.6069 156.535 72.6069 156.777V160H71.6389ZM75.2912 153.125V152.047H76.2592V153.125H75.2912ZM75.2912 160V154.214H76.2592V160H75.2912ZM77.7619 161.903V154.214H78.5319L78.6309 155.039H78.7079C78.9059 154.716 79.1589 154.478 79.4669 154.324C79.7749 154.163 80.1233 154.082 80.5119 154.082C80.9959 154.082 81.4066 154.188 81.7439 154.401C82.0813 154.614 82.3416 154.947 82.5249 155.402C82.7083 155.849 82.7999 156.432 82.7999 157.151C82.7999 157.826 82.7046 158.387 82.5139 158.834C82.3306 159.274 82.0703 159.6 81.7329 159.813C81.3956 160.026 81.0033 160.132 80.5559 160.132C80.3066 160.132 80.0719 160.103 79.8519 160.044C79.6319 159.985 79.4339 159.894 79.2579 159.769C79.0819 159.637 78.9279 159.472 78.7959 159.274H78.7299V161.903H77.7619ZM80.2479 159.285C80.6073 159.285 80.9006 159.215 81.1279 159.076C81.3553 158.929 81.5239 158.706 81.6339 158.405C81.7439 158.097 81.7989 157.705 81.7989 157.228V156.997C81.7989 156.491 81.7403 156.088 81.6229 155.787C81.5056 155.479 81.3333 155.259 81.1059 155.127C80.8859 154.995 80.6109 154.929 80.2809 154.929C79.9216 154.929 79.6246 155.01 79.3899 155.171C79.1626 155.325 78.9939 155.56 78.8839 155.875C78.7813 156.19 78.7299 156.575 78.7299 157.03V157.195C78.7299 157.598 78.7666 157.936 78.8399 158.207C78.9206 158.471 79.0306 158.684 79.1699 158.845C79.3166 159.006 79.4816 159.12 79.6649 159.186C79.8483 159.252 80.0426 159.285 80.2479 159.285ZM85.3561 160.132C85.0555 160.132 84.8208 160.077 84.6521 159.967C84.4835 159.85 84.3625 159.699 84.2891 159.516C84.2158 159.325 84.1791 159.124 84.1791 158.911V155.028H83.4311V154.214H84.2011L84.3771 152.597H85.1471V154.214H86.2361V155.028H85.1471V158.768C85.1471 158.951 85.1801 159.091 85.2461 159.186C85.3121 159.274 85.4368 159.318 85.6201 159.318H86.2361V159.956C86.1628 159.993 86.0748 160.022 85.9721 160.044C85.8695 160.066 85.7631 160.084 85.6531 160.099C85.5505 160.121 85.4515 160.132 85.3561 160.132Z" fill="white"/>
<circle cx="23" cy="156" r="5" fill="#F1E05A"/>
<path d="M38.794 129V122.367H36.209V121.454H42.446V122.367H39.839V129H38.794ZM43.5382 131.002C43.3622 131.002 43.2082 130.987 43.0762 130.958C42.9515 130.936 42.8672 130.921 42.8232 130.914V130.21H43.3072C43.4832 130.21 43.6555 130.173 43.8242 130.1C43.9928 130.027 44.1505 129.902 44.2972 129.726C44.4438 129.55 44.5685 129.308 44.6712 129L42.4272 123.214H43.4392L44.5942 126.195C44.6455 126.334 44.7042 126.507 44.7702 126.712C44.8435 126.91 44.9132 127.115 44.9792 127.328C45.0525 127.541 45.1112 127.728 45.1552 127.889H45.2212C45.2505 127.772 45.2872 127.64 45.3312 127.493C45.3752 127.346 45.4192 127.196 45.4632 127.042C45.5145 126.881 45.5622 126.73 45.6062 126.591C45.6575 126.444 45.6978 126.316 45.7272 126.206L46.7062 123.214H47.6852L45.7272 128.835C45.6172 129.15 45.4962 129.44 45.3642 129.704C45.2322 129.975 45.0855 130.206 44.9242 130.397C44.7628 130.588 44.5685 130.734 44.3412 130.837C44.1138 130.947 43.8462 131.002 43.5382 131.002ZM48.5861 130.903V123.214H49.3561L49.4551 124.039H49.5321C49.7301 123.716 49.9831 123.478 50.2911 123.324C50.5991 123.163 50.9475 123.082 51.3361 123.082C51.8201 123.082 52.2308 123.188 52.5681 123.401C52.9055 123.614 53.1658 123.947 53.3491 124.402C53.5325 124.849 53.6241 125.432 53.6241 126.151C53.6241 126.826 53.5288 127.387 53.3381 127.834C53.1548 128.274 52.8945 128.6 52.5571 128.813C52.2198 129.026 51.8275 129.132 51.3801 129.132C51.1308 129.132 50.8961 129.103 50.6761 129.044C50.4561 128.985 50.2581 128.894 50.0821 128.769C49.9061 128.637 49.7521 128.472 49.6201 128.274H49.5541V130.903H48.5861ZM51.0721 128.285C51.4315 128.285 51.7248 128.215 51.9521 128.076C52.1795 127.929 52.3481 127.706 52.4581 127.405C52.5681 127.097 52.6231 126.705 52.6231 126.228V125.997C52.6231 125.491 52.5645 125.088 52.4471 124.787C52.3298 124.479 52.1575 124.259 51.9301 124.127C51.7101 123.995 51.4351 123.929 51.1051 123.929C50.7458 123.929 50.4488 124.01 50.2141 124.171C49.9868 124.325 49.8181 124.56 49.7081 124.875C49.6055 125.19 49.5541 125.575 49.5541 126.03V126.195C49.5541 126.598 49.5908 126.936 49.6641 127.207C49.7448 127.471 49.8548 127.684 49.9941 127.845C50.1408 128.006 50.3058 128.12 50.4891 128.186C50.6725 128.252 50.8668 128.285 51.0721 128.285ZM57.1374 129.132C56.5654 129.132 56.0814 129.026 55.6854 128.813C55.2967 128.593 54.9997 128.259 54.7944 127.812C54.5964 127.365 54.4974 126.796 54.4974 126.107C54.4974 125.41 54.5964 124.842 54.7944 124.402C54.9997 123.955 55.3004 123.625 55.6964 123.412C56.0924 123.192 56.5874 123.082 57.1814 123.082C57.724 123.082 58.1787 123.188 58.5454 123.401C58.912 123.606 59.187 123.918 59.3704 124.336C59.561 124.747 59.6564 125.264 59.6564 125.887V126.349H55.4984C55.513 126.811 55.579 127.192 55.6964 127.493C55.821 127.786 56.0044 128.003 56.2464 128.142C56.4884 128.274 56.7927 128.34 57.1594 128.34C57.4087 128.34 57.625 128.311 57.8084 128.252C57.999 128.186 58.1567 128.094 58.2814 127.977C58.4134 127.86 58.5124 127.72 58.5784 127.559C58.6444 127.398 58.681 127.222 58.6884 127.031H59.6344C59.627 127.339 59.5684 127.625 59.4584 127.889C59.3484 128.146 59.187 128.366 58.9744 128.549C58.7617 128.732 58.5014 128.875 58.1934 128.978C57.8854 129.081 57.5334 129.132 57.1374 129.132ZM55.5204 125.623H58.6554C58.6554 125.3 58.6187 125.029 58.5454 124.809C58.472 124.589 58.3657 124.409 58.2264 124.27C58.0944 124.131 57.9367 124.032 57.7534 123.973C57.5774 123.907 57.3757 123.874 57.1484 123.874C56.811 123.874 56.525 123.936 56.2904 124.061C56.0557 124.186 55.876 124.376 55.7514 124.633C55.6267 124.89 55.5497 125.22 55.5204 125.623ZM62.8777 129.132C62.4817 129.132 62.1334 129.092 61.8327 129.011C61.5321 128.93 61.2827 128.813 61.0847 128.659C60.8867 128.505 60.7364 128.322 60.6337 128.109C60.5311 127.896 60.4797 127.654 60.4797 127.383C60.4797 127.346 60.4797 127.313 60.4797 127.284C60.4797 127.247 60.4834 127.218 60.4907 127.196H61.4477C61.4404 127.225 61.4367 127.251 61.4367 127.273C61.4367 127.295 61.4367 127.317 61.4367 127.339C61.4441 127.596 61.5101 127.797 61.6347 127.944C61.7667 128.091 61.9464 128.193 62.1737 128.252C62.4011 128.311 62.6541 128.34 62.9327 128.34C63.1747 128.34 63.3984 128.311 63.6037 128.252C63.8091 128.186 63.9704 128.091 64.0877 127.966C64.2124 127.834 64.2747 127.669 64.2747 127.471C64.2747 127.229 64.1941 127.046 64.0327 126.921C63.8787 126.789 63.6734 126.686 63.4167 126.613C63.1601 126.54 62.8924 126.463 62.6137 126.382C62.3791 126.316 62.1444 126.243 61.9097 126.162C61.6751 126.081 61.4624 125.982 61.2717 125.865C61.0884 125.748 60.9381 125.597 60.8207 125.414C60.7107 125.223 60.6557 124.985 60.6557 124.699C60.6557 124.442 60.7071 124.215 60.8097 124.017C60.9197 123.819 61.0737 123.65 61.2717 123.511C61.4697 123.372 61.7081 123.269 61.9867 123.203C62.2727 123.13 62.5881 123.093 62.9327 123.093C63.2994 123.093 63.6184 123.133 63.8897 123.214C64.1684 123.295 64.3994 123.408 64.5827 123.555C64.7661 123.702 64.9017 123.87 64.9897 124.061C65.0777 124.244 65.1217 124.442 65.1217 124.655C65.1217 124.699 65.1217 124.743 65.1217 124.787C65.1217 124.824 65.1181 124.853 65.1107 124.875H64.1647V124.754C64.1647 124.607 64.1244 124.468 64.0437 124.336C63.9704 124.197 63.8384 124.087 63.6477 124.006C63.4644 123.918 63.2077 123.874 62.8777 123.874C62.6651 123.874 62.4817 123.892 62.3277 123.929C62.1737 123.958 62.0454 124.01 61.9427 124.083C61.8401 124.149 61.7631 124.23 61.7117 124.325C61.6604 124.413 61.6347 124.516 61.6347 124.633C61.6347 124.824 61.6971 124.97 61.8217 125.073C61.9464 125.176 62.1114 125.26 62.3167 125.326C62.5294 125.392 62.7567 125.465 62.9987 125.546C63.2554 125.619 63.5157 125.696 63.7797 125.777C64.0511 125.85 64.2967 125.946 64.5167 126.063C64.7441 126.18 64.9237 126.342 65.0557 126.547C65.1951 126.745 65.2647 127.009 65.2647 127.339C65.2647 127.647 65.2061 127.915 65.0887 128.142C64.9714 128.369 64.8027 128.556 64.5827 128.703C64.3701 128.85 64.1171 128.956 63.8237 129.022C63.5377 129.095 63.2224 129.132 62.8777 129.132ZM68.6611 129.132C68.1038 129.132 67.6345 129.026 67.2531 128.813C66.8791 128.593 66.5931 128.259 66.3951 127.812C66.2045 127.357 66.1091 126.789 66.1091 126.107C66.1091 125.425 66.2045 124.86 66.3951 124.413C66.5931 123.966 66.8828 123.632 67.2641 123.412C67.6528 123.192 68.1295 123.082 68.6941 123.082C69.0901 123.082 69.4311 123.133 69.7171 123.236C70.0105 123.339 70.2525 123.489 70.4431 123.687C70.6338 123.885 70.7731 124.123 70.8611 124.402C70.9565 124.681 71.0041 125 71.0041 125.359H70.0251C70.0251 125.022 69.9775 124.747 69.8821 124.534C69.7941 124.314 69.6511 124.153 69.4531 124.05C69.2551 123.94 68.9948 123.885 68.6721 123.885C68.3495 123.885 68.0708 123.958 67.8361 124.105C67.6015 124.244 67.4218 124.468 67.2971 124.776C67.1725 125.084 67.1101 125.491 67.1101 125.997V126.228C67.1101 126.705 67.1688 127.101 67.2861 127.416C67.4108 127.731 67.5905 127.962 67.8251 128.109C68.0598 128.256 68.3458 128.329 68.6831 128.329C69.0131 128.329 69.2771 128.27 69.4751 128.153C69.6805 128.036 69.8271 127.867 69.9151 127.647C70.0105 127.427 70.0581 127.163 70.0581 126.855H71.0041C71.0041 127.178 70.9565 127.478 70.8611 127.757C70.7731 128.036 70.6338 128.278 70.4431 128.483C70.2525 128.688 70.0105 128.85 69.7171 128.967C69.4238 129.077 69.0718 129.132 68.6611 129.132ZM72.1653 129V123.214H72.9463L73.0343 124.171H73.1113C73.1699 123.988 73.2506 123.815 73.3533 123.654C73.4559 123.485 73.5953 123.35 73.7713 123.247C73.9473 123.137 74.1636 123.082 74.4203 123.082C74.5303 123.082 74.6293 123.093 74.7173 123.115C74.8126 123.13 74.8823 123.148 74.9263 123.17V124.061H74.5633C74.3139 124.061 74.0976 124.105 73.9143 124.193C73.7383 124.274 73.5916 124.391 73.4743 124.545C73.3569 124.699 73.2689 124.882 73.2103 125.095C73.1589 125.308 73.1333 125.535 73.1333 125.777V129H72.1653ZM75.8176 122.125V121.047H76.7856V122.125H75.8176ZM75.8176 129V123.214H76.7856V129H75.8176ZM78.2883 130.903V123.214H79.0583L79.1573 124.039H79.2343C79.4323 123.716 79.6853 123.478 79.9933 123.324C80.3013 123.163 80.6496 123.082 81.0383 123.082C81.5223 123.082 81.933 123.188 82.2703 123.401C82.6076 123.614 82.868 123.947 83.0513 124.402C83.2346 124.849 83.3263 125.432 83.3263 126.151C83.3263 126.826 83.231 127.387 83.0403 127.834C82.857 128.274 82.5966 128.6 82.2593 128.813C81.922 129.026 81.5296 129.132 81.0823 129.132C80.833 129.132 80.5983 129.103 80.3783 129.044C80.1583 128.985 79.9603 128.894 79.7843 128.769C79.6083 128.637 79.4543 128.472 79.3223 128.274H79.2563V130.903H78.2883ZM80.7743 128.285C81.1336 128.285 81.427 128.215 81.6543 128.076C81.8816 127.929 82.0503 127.706 82.1603 127.405C82.2703 127.097 82.3253 126.705 82.3253 126.228V125.997C82.3253 125.491 82.2666 125.088 82.1493 124.787C82.032 124.479 81.8596 124.259 81.6323 124.127C81.4123 123.995 81.1373 123.929 80.8073 123.929C80.448 123.929 80.151 124.01 79.9163 124.171C79.689 124.325 79.5203 124.56 79.4103 124.875C79.3076 125.19 79.2563 125.575 79.2563 126.03V126.195C79.2563 126.598 79.293 126.936 79.3663 127.207C79.447 127.471 79.557 127.684 79.6963 127.845C79.843 128.006 80.008 128.12 80.1913 128.186C80.3746 128.252 80.569 128.285 80.7743 128.285ZM85.8825 129.132C85.5818 129.132 85.3472 129.077 85.1785 128.967C85.0098 128.85 84.8888 128.699 84.8155 128.516C84.7422 128.325 84.7055 128.124 84.7055 127.911V124.028H83.9575V123.214H84.7275L84.9035 121.597H85.6735V123.214H86.7625V124.028H85.6735V127.768C85.6735 127.951 85.7065 128.091 85.7725 128.186C85.8385 128.274 85.9632 128.318 86.1465 128.318H86.7625V128.956C86.6892 128.993 86.6012 129.022 86.4985 129.044C86.3958 129.066 86.2895 129.084 86.1795 129.099C86.0768 129.121 85.9778 129.132 85.8825 129.132Z" fill="white"/>
<circle cx="23" cy="125" r="5" fill="#3D60E0"/>
<path d="M126.169 191.132C125.399 191.132 124.746 190.993 124.211 190.714C123.676 190.428 123.265 189.999 122.979 189.427C122.7 188.848 122.561 188.114 122.561 187.227C122.561 185.914 122.88 184.935 123.518 184.29C124.156 183.645 125.043 183.322 126.18 183.322C126.825 183.322 127.397 183.428 127.896 183.641C128.395 183.846 128.783 184.162 129.062 184.587C129.348 185.005 129.491 185.533 129.491 186.171H128.435C128.435 185.731 128.34 185.368 128.149 185.082C127.966 184.796 127.705 184.583 127.368 184.444C127.031 184.297 126.635 184.224 126.18 184.224C125.652 184.224 125.197 184.327 124.816 184.532C124.435 184.737 124.145 185.056 123.947 185.489C123.749 185.914 123.65 186.464 123.65 187.139V187.37C123.65 188.037 123.749 188.584 123.947 189.009C124.145 189.427 124.431 189.735 124.805 189.933C125.186 190.131 125.645 190.23 126.18 190.23C126.649 190.23 127.053 190.16 127.39 190.021C127.735 189.882 127.999 189.669 128.182 189.383C128.373 189.09 128.468 188.723 128.468 188.283H129.491C129.491 188.936 129.344 189.471 129.051 189.889C128.765 190.307 128.373 190.619 127.874 190.824C127.375 191.029 126.807 191.132 126.169 191.132ZM130.696 191.132L131.158 189.031H130.267V188.195H131.334L131.708 186.49H130.773V185.654H131.895L132.412 183.322H133.281L132.764 185.654H134.381L134.898 183.322H135.778L135.25 185.654H136.13V186.49H135.085L134.7 188.195H135.635V189.031H134.524L134.062 191.132H133.193L133.655 189.031H132.027L131.576 191.132H130.696ZM132.203 188.195H133.831L134.205 186.49H132.588L132.203 188.195Z" fill="white"/>
<circle cx="112" cy="187" r="5" fill="#178600"/>
<path d="M124.794 160.132C124.288 160.132 123.852 160.051 123.485 159.89C123.126 159.721 122.851 159.479 122.66 159.164C122.477 158.841 122.385 158.438 122.385 157.954V157.624H123.43V158.009C123.43 158.405 123.547 158.709 123.782 158.922C124.017 159.127 124.354 159.23 124.794 159.23C125.241 159.23 125.582 159.087 125.817 158.801C126.059 158.515 126.18 158.09 126.18 157.525V152.454H127.225V157.47C127.225 158.064 127.13 158.559 126.939 158.955C126.748 159.351 126.47 159.648 126.103 159.846C125.744 160.037 125.307 160.132 124.794 160.132ZM130.356 160.132C130.143 160.132 129.93 160.106 129.718 160.055C129.505 160.004 129.307 159.919 129.124 159.802C128.94 159.685 128.794 159.523 128.684 159.318C128.574 159.105 128.519 158.841 128.519 158.526C128.519 158.13 128.614 157.804 128.805 157.547C128.995 157.29 129.259 157.092 129.597 156.953C129.941 156.806 130.348 156.707 130.818 156.656C131.287 156.597 131.797 156.568 132.347 156.568V155.908C132.347 155.695 132.31 155.512 132.237 155.358C132.163 155.204 132.031 155.087 131.841 155.006C131.657 154.918 131.393 154.874 131.049 154.874C130.719 154.874 130.455 154.918 130.257 155.006C130.066 155.087 129.93 155.193 129.85 155.325C129.776 155.457 129.74 155.604 129.74 155.765V155.93H128.805C128.797 155.893 128.794 155.857 128.794 155.82C128.794 155.783 128.794 155.739 128.794 155.688C128.794 155.336 128.889 155.043 129.08 154.808C129.278 154.566 129.553 154.386 129.905 154.269C130.257 154.144 130.66 154.082 131.115 154.082C131.599 154.082 132.002 154.152 132.325 154.291C132.655 154.43 132.9 154.628 133.062 154.885C133.23 155.142 133.315 155.45 133.315 155.809V158.944C133.315 159.083 133.348 159.182 133.414 159.241C133.48 159.292 133.56 159.318 133.656 159.318H134.085V159.956C133.982 160 133.868 160.037 133.744 160.066C133.619 160.103 133.476 160.121 133.315 160.121C133.124 160.121 132.966 160.081 132.842 160C132.717 159.927 132.622 159.824 132.556 159.692C132.49 159.553 132.446 159.399 132.424 159.23H132.347C132.215 159.413 132.046 159.575 131.841 159.714C131.643 159.846 131.419 159.949 131.17 160.022C130.92 160.095 130.649 160.132 130.356 160.132ZM130.598 159.318C130.832 159.318 131.052 159.281 131.258 159.208C131.47 159.135 131.657 159.032 131.819 158.9C131.98 158.761 132.108 158.596 132.204 158.405C132.299 158.214 132.347 158.005 132.347 157.778V157.294C131.753 157.294 131.247 157.327 130.829 157.393C130.411 157.459 130.088 157.576 129.861 157.745C129.641 157.914 129.531 158.152 129.531 158.46C129.531 158.658 129.575 158.819 129.663 158.944C129.751 159.069 129.875 159.164 130.037 159.23C130.198 159.289 130.385 159.318 130.598 159.318ZM136.427 160L134.282 154.214H135.294L136.35 157.107C136.401 157.246 136.46 157.422 136.526 157.635C136.592 157.84 136.658 158.053 136.724 158.273C136.797 158.486 136.856 158.676 136.9 158.845H136.955C137.006 158.684 137.065 158.497 137.131 158.284C137.197 158.064 137.263 157.851 137.329 157.646C137.402 157.433 137.464 157.254 137.516 157.107L138.561 154.214H139.54L137.395 160H136.427ZM141.785 160.132C141.573 160.132 141.36 160.106 141.147 160.055C140.935 160.004 140.737 159.919 140.553 159.802C140.37 159.685 140.223 159.523 140.113 159.318C140.003 159.105 139.948 158.841 139.948 158.526C139.948 158.13 140.044 157.804 140.234 157.547C140.425 157.29 140.689 157.092 141.026 156.953C141.371 156.806 141.778 156.707 142.247 156.656C142.717 156.597 143.226 156.568 143.776 156.568V155.908C143.776 155.695 143.74 155.512 143.666 155.358C143.593 155.204 143.461 155.087 143.27 155.006C143.087 154.918 142.823 154.874 142.478 154.874C142.148 154.874 141.884 154.918 141.686 155.006C141.496 155.087 141.36 155.193 141.279 155.325C141.206 155.457 141.169 155.604 141.169 155.765V155.93H140.234C140.227 155.893 140.223 155.857 140.223 155.82C140.223 155.783 140.223 155.739 140.223 155.688C140.223 155.336 140.319 155.043 140.509 154.808C140.707 154.566 140.982 154.386 141.334 154.269C141.686 154.144 142.09 154.082 142.544 154.082C143.028 154.082 143.432 154.152 143.754 154.291C144.084 154.43 144.33 154.628 144.491 154.885C144.66 155.142 144.744 155.45 144.744 155.809V158.944C144.744 159.083 144.777 159.182 144.843 159.241C144.909 159.292 144.99 159.318 145.085 159.318H145.514V159.956C145.412 160 145.298 160.037 145.173 160.066C145.049 160.103 144.906 160.121 144.744 160.121C144.554 160.121 144.396 160.081 144.271 160C144.147 159.927 144.051 159.824 143.985 159.692C143.919 159.553 143.875 159.399 143.853 159.23H143.776C143.644 159.413 143.476 159.575 143.27 159.714C143.072 159.846 142.849 159.949 142.599 160.022C142.35 160.095 142.079 160.132 141.785 160.132ZM142.027 159.318C142.262 159.318 142.482 159.281 142.687 159.208C142.9 159.135 143.087 159.032 143.248 158.9C143.41 158.761 143.538 158.596 143.633 158.405C143.729 158.214 143.776 158.005 143.776 157.778V157.294C143.182 157.294 142.676 157.327 142.258 157.393C141.84 157.459 141.518 157.576 141.29 157.745C141.07 157.914 140.96 158.152 140.96 158.46C140.96 158.658 141.004 158.819 141.092 158.944C141.18 159.069 141.305 159.164 141.466 159.23C141.628 159.289 141.815 159.318 142.027 159.318Z" fill="white"/>
<circle cx="23" cy="187" r="5" fill="#E34C26"/>
<path d="M126.169 129.132C125.399 129.132 124.746 128.993 124.211 128.714C123.676 128.428 123.265 127.999 122.979 127.427C122.7 126.848 122.561 126.114 122.561 125.227C122.561 123.914 122.88 122.935 123.518 122.29C124.156 121.645 125.043 121.322 126.18 121.322C126.825 121.322 127.397 121.428 127.896 121.641C128.395 121.846 128.783 122.162 129.062 122.587C129.348 123.005 129.491 123.533 129.491 124.171H128.435C128.435 123.731 128.34 123.368 128.149 123.082C127.966 122.796 127.705 122.583 127.368 122.444C127.031 122.297 126.635 122.224 126.18 122.224C125.652 122.224 125.197 122.327 124.816 122.532C124.435 122.737 124.145 123.056 123.947 123.489C123.749 123.914 123.65 124.464 123.65 125.139V125.37C123.65 126.037 123.749 126.584 123.947 127.009C124.145 127.427 124.431 127.735 124.805 127.933C125.186 128.131 125.645 128.23 126.18 128.23C126.649 128.23 127.053 128.16 127.39 128.021C127.735 127.882 127.999 127.669 128.182 127.383C128.373 127.09 128.468 126.723 128.468 126.283H129.491C129.491 126.936 129.344 127.471 129.051 127.889C128.765 128.307 128.373 128.619 127.874 128.824C127.375 129.029 126.807 129.132 126.169 129.132ZM133.721 129.132C133.31 129.132 132.914 129.092 132.533 129.011C132.159 128.93 131.825 128.802 131.532 128.626C131.239 128.443 131.004 128.208 130.828 127.922C130.659 127.636 130.575 127.284 130.575 126.866C130.575 126.829 130.575 126.793 130.575 126.756C130.582 126.719 130.586 126.683 130.586 126.646H131.642C131.642 126.668 131.638 126.705 131.631 126.756C131.631 126.8 131.631 126.84 131.631 126.877C131.631 127.17 131.719 127.42 131.895 127.625C132.071 127.83 132.313 127.984 132.621 128.087C132.936 128.182 133.292 128.23 133.688 128.23C133.864 128.23 134.047 128.219 134.238 128.197C134.436 128.175 134.623 128.138 134.799 128.087C134.982 128.028 135.144 127.955 135.283 127.867C135.43 127.772 135.543 127.658 135.624 127.526C135.712 127.387 135.756 127.218 135.756 127.02C135.756 126.771 135.683 126.565 135.536 126.404C135.397 126.235 135.21 126.1 134.975 125.997C134.74 125.887 134.473 125.792 134.172 125.711C133.879 125.623 133.574 125.539 133.259 125.458C132.944 125.377 132.636 125.286 132.335 125.183C132.042 125.073 131.778 124.941 131.543 124.787C131.308 124.626 131.118 124.428 130.971 124.193C130.832 123.958 130.762 123.672 130.762 123.335C130.762 123.02 130.824 122.737 130.949 122.488C131.081 122.239 131.272 122.03 131.521 121.861C131.778 121.685 132.093 121.553 132.467 121.465C132.841 121.37 133.27 121.322 133.754 121.322C134.15 121.322 134.517 121.366 134.854 121.454C135.199 121.535 135.499 121.663 135.756 121.839C136.02 122.008 136.225 122.224 136.372 122.488C136.519 122.752 136.592 123.071 136.592 123.445V123.577H135.558V123.412C135.558 123.163 135.481 122.95 135.327 122.774C135.173 122.598 134.96 122.462 134.689 122.367C134.425 122.272 134.124 122.224 133.787 122.224C133.347 122.224 132.98 122.268 132.687 122.356C132.394 122.437 132.174 122.558 132.027 122.719C131.888 122.873 131.818 123.049 131.818 123.247C131.818 123.474 131.888 123.665 132.027 123.819C132.174 123.973 132.364 124.101 132.599 124.204C132.834 124.299 133.101 124.387 133.402 124.468C133.703 124.549 134.007 124.633 134.315 124.721C134.63 124.802 134.935 124.897 135.228 125.007C135.529 125.11 135.796 125.242 136.031 125.403C136.273 125.557 136.464 125.755 136.603 125.997C136.742 126.232 136.812 126.521 136.812 126.866C136.812 127.401 136.68 127.838 136.416 128.175C136.152 128.505 135.789 128.747 135.327 128.901C134.865 129.055 134.33 129.132 133.721 129.132ZM141.122 129.132C140.712 129.132 140.316 129.092 139.934 129.011C139.56 128.93 139.227 128.802 138.933 128.626C138.64 128.443 138.405 128.208 138.229 127.922C138.061 127.636 137.976 127.284 137.976 126.866C137.976 126.829 137.976 126.793 137.976 126.756C137.984 126.719 137.987 126.683 137.987 126.646H139.043C139.043 126.668 139.04 126.705 139.032 126.756C139.032 126.8 139.032 126.84 139.032 126.877C139.032 127.17 139.12 127.42 139.296 127.625C139.472 127.83 139.714 127.984 140.022 128.087C140.338 128.182 140.693 128.23 141.089 128.23C141.265 128.23 141.449 128.219 141.639 128.197C141.837 128.175 142.024 128.138 142.2 128.087C142.384 128.028 142.545 127.955 142.684 127.867C142.831 127.772 142.945 127.658 143.025 127.526C143.113 127.387 143.157 127.218 143.157 127.02C143.157 126.771 143.084 126.565 142.937 126.404C142.798 126.235 142.611 126.1 142.376 125.997C142.142 125.887 141.874 125.792 141.573 125.711C141.28 125.623 140.976 125.539 140.66 125.458C140.345 125.377 140.037 125.286 139.736 125.183C139.443 125.073 139.179 124.941 138.944 124.787C138.71 124.626 138.519 124.428 138.372 124.193C138.233 123.958 138.163 123.672 138.163 123.335C138.163 123.02 138.226 122.737 138.35 122.488C138.482 122.239 138.673 122.03 138.922 121.861C139.179 121.685 139.494 121.553 139.868 121.465C140.242 121.37 140.671 121.322 141.155 121.322C141.551 121.322 141.918 121.366 142.255 121.454C142.6 121.535 142.901 121.663 143.157 121.839C143.421 122.008 143.627 122.224 143.773 122.488C143.92 122.752 143.993 123.071 143.993 123.445V123.577H142.959V123.412C142.959 123.163 142.882 122.95 142.728 122.774C142.574 122.598 142.362 122.462 142.09 122.367C141.826 122.272 141.526 122.224 141.188 122.224C140.748 122.224 140.382 122.268 140.088 122.356C139.795 122.437 139.575 122.558 139.428 122.719C139.289 122.873 139.219 123.049 139.219 123.247C139.219 123.474 139.289 123.665 139.428 123.819C139.575 123.973 139.766 124.101 140 124.204C140.235 124.299 140.503 124.387 140.803 124.468C141.104 124.549 141.408 124.633 141.716 124.721C142.032 124.802 142.336 124.897 142.629 125.007C142.93 125.11 143.198 125.242 143.432 125.403C143.674 125.557 143.865 125.755 144.004 125.997C144.144 126.232 144.213 126.521 144.213 126.866C144.213 127.401 144.081 127.838 143.817 128.175C143.553 128.505 143.19 128.747 142.728 128.901C142.266 129.055 141.731 129.132 141.122 129.132Z" fill="white"/>
<circle cx="112" cy="156" r="5" fill="#B07219"/>
<path d="M36.946 191V183.454H37.991V186.688H42.094V183.454H43.15V191H42.094V187.601H37.991V191H36.946ZM46.8936 191V184.367H44.3086V183.454H50.5456V184.367H47.9386V191H46.8936ZM51.7165 191V183.454H53.3335L55.0495 188.349C55.0935 188.481 55.1375 188.628 55.1815 188.789C55.2328 188.943 55.2768 189.09 55.3135 189.229C55.3575 189.368 55.3905 189.489 55.4125 189.592H55.4895C55.5115 189.482 55.5408 189.357 55.5775 189.218C55.6142 189.071 55.6545 188.921 55.6985 188.767C55.7425 188.613 55.7828 188.474 55.8195 188.349L57.5355 183.454H59.1415V191H58.0965V186.578C58.0965 186.351 58.1002 186.105 58.1075 185.841C58.1148 185.57 58.1222 185.324 58.1295 185.104C58.1368 184.877 58.1405 184.715 58.1405 184.62H58.0525C58.0305 184.715 57.9938 184.851 57.9425 185.027C57.8912 185.196 57.8362 185.375 57.7775 185.566C57.7262 185.749 57.6785 185.914 57.6345 186.061L55.8635 191H54.9615L53.1905 186.061C53.1465 185.936 53.0988 185.793 53.0475 185.632C53.0035 185.463 52.9558 185.291 52.9045 185.115C52.8605 184.939 52.8165 184.774 52.7725 184.62H52.6955C52.7028 184.781 52.7065 184.983 52.7065 185.225C52.7138 185.46 52.7175 185.698 52.7175 185.94C52.7248 186.175 52.7285 186.387 52.7285 186.578V191H51.7165ZM61.03 191V183.454H62.075V190.087H65.826V191H61.03Z" fill="white"/>
<circle cx="112" cy="125" r="5" fill="#563D7C"/>
<path d="M451.5 1H1V251H451.5V1Z" stroke="#3D60E0"/>
</svg>
