<svg width="117" height="78" viewBox="0 0 117 78" fill="none" xmlns="http://www.w3.org/2000/svg">
<path d="M37.73 60.65L4.55 46.51V39.86L37.73 25.72V31.6L9.66 43.22L37.73 54.77V60.65ZM79.0278 60.65V54.77L107.098 43.22L79.0278 31.6V25.72L112.208 39.86V46.51L79.0278 60.65Z" fill="url(#paint0_linear_110_11)"/>
<path d="M73.9943 2.23901L72.5028 22.2286L47.6311 76.1463L45.4745 53.0079L73.9943 2.23901Z" fill="url(#paint1_linear_110_11)"/>
<path d="M38.6219 5L47.153 13.5378L61.8587 46.0344L50.4369 37.915L38.6219 5Z" fill="url(#paint2_linear_110_11)"/>
<defs>
<linearGradient id="paint0_linear_110_11" x1="58.5" y1="0" x2="58.5" y2="76" gradientUnits="userSpaceOnUse">
<stop stop-color="#00229E"/>
<stop offset="1" stop-color="#3D60E0" stop-opacity="0.46"/>
</linearGradient>
<linearGradient id="paint1_linear_110_11" x1="83.3479" y1="9.28745" x2="38.2775" y2="69.0979" gradientUnits="userSpaceOnUse">
<stop stop-color="#00229E"/>
<stop offset="1" stop-color="#3D60E0" stop-opacity="0.46"/>
</linearGradient>
<linearGradient id="paint2_linear_110_11" x1="45.5655" y1="3.52409" x2="54.9151" y2="47.5103" gradientUnits="userSpaceOnUse">
<stop stop-color="#00229E"/>
<stop offset="1" stop-color="#3D60E0" stop-opacity="0.46"/>
</linearGradient>
</defs>
</svg>
