<svg width="275" height="225" viewBox="0 0 275 225" fill="none" xmlns="http://www.w3.org/2000/svg">
<path d="M16.3878 33.9091L46.3992 119.007H47.5838L77.5952 33.9091H90.429L53.3097 135H40.6733L3.55398 33.9091H16.3878Z" fill="black"/>
<path d="M44.0909 33.9091L71.7273 112.273H72.8182L100.455 33.9091H112.273L78.0909 127H66.4545L32.2727 33.9091H44.0909Z" fill="black"/>
<path d="M53.3636 113.273V218H40.6818V113.273H53.3636Z" fill="black"/>
<path d="M126.181 37.756L94.3422 125.233L83.7493 121.377L115.588 33.9005L126.181 37.756Z" fill="black"/>
<path d="M160.909 127.142H86V118.071H160.909V127.142Z" fill="black"/>
<path d="M179.909 85.142H105V76.071H179.909V85.142Z" fill="black"/>
<path d="M189.909 43.142H115V34.071H189.909V43.142Z" fill="black"/>
<path d="M236.909 85.142H162V76.071H236.909V85.142Z" fill="black"/>
<path d="M221.909 127.142H147V118.071H221.909V127.142Z" fill="black"/>
<path d="M249.909 43.142H175V34.071H249.909V43.142Z" fill="black"/>
<rect x="84.0521" y="120" width="4" height="6" transform="rotate(20 84.0521 120)" fill="black"/>
<rect x="83" y="127" width="4" height="6" transform="rotate(-90 83 127)" fill="black"/>
<path d="M82.7999 125.695C82.7999 125.719 82.7908 125.752 82.7844 125.774C82.7806 125.787 82.7361 125.826 82.732 125.793C82.73 125.777 82.6009 125.786 82.5812 125.786C82.5577 125.786 82.5249 125.78 82.5024 125.786C82.4978 125.787 82.4932 125.844 82.489 125.854C82.4689 125.899 82.4409 125.946 82.4379 125.997C82.4368 126.016 82.4208 126.047 82.4119 126.065C82.4032 126.082 82.4007 126.129 82.3851 126.139C82.3652 126.151 82.3459 126.204 82.3394 126.227C82.3335 126.247 82.317 126.271 82.308 126.291C82.2881 126.336 82.2634 126.386 82.2283 126.421C82.2123 126.437 82.2109 126.458 82.1927 126.472C82.177 126.485 82.185 126.516 82.1663 126.525" stroke="black" stroke-linecap="round"/>
<path d="M82.5887 126.615C82.5953 126.563 82.7516 126.585 82.7814 126.585C82.814 126.585 82.8465 126.585 82.8791 126.585C82.934 126.585 82.9806 126.549 83.0299 126.529C83.1637 126.475 83.3028 126.548 83.4372 126.548C83.621 126.548 83.8016 126.555 83.9841 126.555C84.3007 126.555 84.6182 126.563 84.934 126.563C85.0531 126.563 85.1732 126.585 85.2927 126.585C85.3751 126.585 85.4537 126.6 85.5362 126.6C85.7456 126.6 85.9542 126.593 86.1639 126.593" stroke="black" stroke-linecap="round"/>
<path d="M85.5303 126.6C85.6145 126.6 85.6957 126.615 85.7792 126.615C85.8368 126.615 85.8943 126.615 85.9519 126.615C85.9985 126.615 85.9629 126.614 85.9376 126.615C85.9131 126.617 85.8878 126.631 85.8622 126.631C85.8326 126.631 85.803 126.631 85.7733 126.631C85.7111 126.631 85.6514 126.623 85.5906 126.623C85.3945 126.623 85.2003 126.593 85.0023 126.593C84.8084 126.593 84.5924 126.558 84.4027 126.6C84.3377 126.614 84.2534 126.6 84.1877 126.6C84.1296 126.6 84.0788 126.593 84.0218 126.593C83.9234 126.593 83.8206 126.578 83.7205 126.578C83.6657 126.578 83.6145 126.563 83.5617 126.563C83.5101 126.563 83.4586 126.563 83.4071 126.563C83.2644 126.563 83.1218 126.563 82.9792 126.563C82.8571 126.563 82.7393 126.593 82.6189 126.6C82.5737 126.603 82.5235 126.615 82.4755 126.615C82.4674 126.615 82.408 126.613 82.4198 126.608C82.4541 126.593 82.498 126.578 82.5359 126.578C82.6961 126.578 82.8605 126.567 83.0182 126.593C83.1612 126.617 83.3031 126.615 83.4485 126.615C83.5608 126.615 83.6763 126.6 83.788 126.6C83.8497 126.6 83.9114 126.6 83.9732 126.6C84.026 126.6 84.0788 126.6 84.1316 126.6C84.1488 126.6 84.1659 126.6 84.1831 126.6C84.1992 126.6 84.151 126.6 84.1349 126.6" stroke="black" stroke-linecap="round"/>
<path d="M85.6928 121.032C85.6491 121.027 85.6069 121.013 85.555 121.013C85.5012 121.013 85.4526 121.048 85.4066 121.051C85.3409 121.055 85.2858 121.015 85.2307 121.013C85.1466 121.01 85.1282 121.005 85.0633 120.971C84.9655 120.919 84.8595 120.893 84.7581 120.837C84.6679 120.787 84.6342 120.716 84.5716 120.646C84.5289 120.599 84.4543 120.471 84.4614 120.407C84.4621 120.401 84.6553 120.344 84.6776 120.322C84.7283 120.271 84.7872 120.229 84.8386 120.178C84.896 120.12 84.978 120.092 85.0252 120.021" stroke="black" stroke-linecap="round"/>
<rect x="176.773" y="70.6144" width="1.6132" height="17.5292" transform="rotate(20 176.773 70.6144)" fill="#959595"/>
<rect x="190.121" y="33.4968" width="6.49242" height="12.0503" transform="rotate(20 190.121 33.4968)" fill="#959595"/>
<rect x="162.295" y="112.236" width="1.44746" height="20.1722" transform="rotate(20 162.295 112.236)" fill="#959595"/>
<path d="M191.881 34L204.097 38.4463L187.216 84.8276L175 80.3814L191.881 34Z" fill="black"/>
<rect x="224.781" y="80" width="13" height="45.2642" transform="rotate(20 224.781 80)" fill="black"/>
<path d="M257 35H250V43L257 35Z" stroke="black"/>
<path d="M243 77H236V85L243 77Z" stroke="black"/>
<path d="M249.778 34.6709C250.087 34.6709 250.361 34.4785 250.69 34.5726C250.992 34.6587 251.273 34.5293 251.565 34.5293C252.155 34.5293 252.745 34.5293 253.335 34.5293C253.916 34.5293 254.507 34.4971 255.086 34.5293C255.254 34.5386 255.403 34.6001 255.582 34.6001C255.765 34.6001 255.948 34.6001 256.13 34.6001C256.483 34.6001 256.813 34.5293 257.174 34.5293" stroke="black" stroke-linecap="round"/>
<path d="M251.441 34.6709C251.252 34.6709 250.687 34.6563 250.875 34.6355C250.961 34.626 251.301 34.5293 251.247 34.5293C251.123 34.5293 250.999 34.5293 250.875 34.5293C250.628 34.5293 250.38 34.5293 250.132 34.5293C249.976 34.5293 249.497 34.4563 249.389 34.5647" stroke="black" stroke-linecap="round"/>
</svg>
